<?xml version="1.0" encoding="utf-8" standalone="no"?>
<!DOCTYPE svg PUBLIC "-//W3C//DTD SVG 1.1//EN"
  "http://www.w3.org/Graphics/SVG/1.1/DTD/svg11.dtd">
<!-- Created with matplotlib (https://matplotlib.org/) -->
<svg height="345.6pt" version="1.1" viewBox="0 0 460.8 345.6" width="460.8pt" xmlns="http://www.w3.org/2000/svg" xmlns:xlink="http://www.w3.org/1999/xlink">
 <metadata>
  <rdf:RDF xmlns:cc="http://creativecommons.org/ns#" xmlns:dc="http://purl.org/dc/elements/1.1/" xmlns:rdf="http://www.w3.org/1999/02/22-rdf-syntax-ns#">
   <cc:Work>
    <dc:type rdf:resource="http://purl.org/dc/dcmitype/StillImage"/>
    <dc:date>2021-05-10T17:14:10.212586</dc:date>
    <dc:format>image/svg+xml</dc:format>
    <dc:creator>
     <cc:Agent>
      <dc:title>Matplotlib v3.3.3, https://matplotlib.org/</dc:title>
     </cc:Agent>
    </dc:creator>
   </cc:Work>
  </rdf:RDF>
 </metadata>
 <defs>
  <style type="text/css">*{stroke-linecap:butt;stroke-linejoin:round;}</style>
 </defs>
 <g id="figure_1">
  <g id="patch_1">
   <path d="M 0 345.6 
L 460.8 345.6 
L 460.8 0 
L 0 0 
z
" style="fill:#ffffff;"/>
  </g>
  <g id="axes_1">
   <g id="patch_2">
    <path d="M 57.6 307.584 
L 414.72 307.584 
L 414.72 41.472 
L 57.6 41.472 
z
" style="fill:#ffffff;"/>
   </g>
   <g id="matplotlib.axis_1">
    <g id="xtick_1">
     <g id="line2d_1">
      <path clip-path="url(#p3f2cfeb30a)" d="M 73.829029 307.584 
L 73.829029 41.472 
" style="fill:none;stroke:#b0b0b0;stroke-linecap:square;stroke-width:0.8;"/>
     </g>
     <g id="line2d_2">
      <defs>
       <path d="M 0 0 
L 0 3.5 
" id="m35775b5fcd" style="stroke:#000000;stroke-width:0.8;"/>
      </defs>
      <g>
       <use style="stroke:#000000;stroke-width:0.8;" x="73.829029" xlink:href="#m35775b5fcd" y="307.584"/>
      </g>
     </g>
     <g id="text_1">
      <!-- 0 -->
      <g transform="translate(70.647779 322.182437)scale(0.1 -0.1)">
       <defs>
        <path d="M 31.78125 66.40625 
Q 24.171875 66.40625 20.328125 58.90625 
Q 16.5 51.421875 16.5 36.375 
Q 16.5 21.390625 20.328125 13.890625 
Q 24.171875 6.390625 31.78125 6.390625 
Q 39.453125 6.390625 43.28125 13.890625 
Q 47.125 21.390625 47.125 36.375 
Q 47.125 51.421875 43.28125 58.90625 
Q 39.453125 66.40625 31.78125 66.40625 
z
M 31.78125 74.21875 
Q 44.046875 74.21875 50.515625 64.515625 
Q 56.984375 54.828125 56.984375 36.375 
Q 56.984375 17.96875 50.515625 8.265625 
Q 44.046875 -1.421875 31.78125 -1.421875 
Q 19.53125 -1.421875 13.0625 8.265625 
Q 6.59375 17.96875 6.59375 36.375 
Q 6.59375 54.828125 13.0625 64.515625 
Q 19.53125 74.21875 31.78125 74.21875 
z
" id="DejaVuSans-48"/>
       </defs>
       <use xlink:href="#DejaVuSans-48"/>
      </g>
     </g>
    </g>
    <g id="xtick_2">
     <g id="line2d_3">
      <path clip-path="url(#p3f2cfeb30a)" d="M 141.468597 307.584 
L 141.468597 41.472 
" style="fill:none;stroke:#b0b0b0;stroke-linecap:square;stroke-width:0.8;"/>
     </g>
     <g id="line2d_4">
      <g>
       <use style="stroke:#000000;stroke-width:0.8;" x="141.468597" xlink:href="#m35775b5fcd" y="307.584"/>
      </g>
     </g>
     <g id="text_2">
      <!-- 5 -->
      <g transform="translate(138.287347 322.182437)scale(0.1 -0.1)">
       <defs>
        <path d="M 10.796875 72.90625 
L 49.515625 72.90625 
L 49.515625 64.59375 
L 19.828125 64.59375 
L 19.828125 46.734375 
Q 21.96875 47.46875 24.109375 47.828125 
Q 26.265625 48.1875 28.421875 48.1875 
Q 40.625 48.1875 47.75 41.5 
Q 54.890625 34.8125 54.890625 23.390625 
Q 54.890625 11.625 47.5625 5.09375 
Q 40.234375 -1.421875 26.90625 -1.421875 
Q 22.3125 -1.421875 17.546875 -0.640625 
Q 12.796875 0.140625 7.71875 1.703125 
L 7.71875 11.625 
Q 12.109375 9.234375 16.796875 8.0625 
Q 21.484375 6.890625 26.703125 6.890625 
Q 35.15625 6.890625 40.078125 11.328125 
Q 45.015625 15.765625 45.015625 23.390625 
Q 45.015625 31 40.078125 35.4375 
Q 35.15625 39.890625 26.703125 39.890625 
Q 22.75 39.890625 18.8125 39.015625 
Q 14.890625 38.140625 10.796875 36.28125 
z
" id="DejaVuSans-53"/>
       </defs>
       <use xlink:href="#DejaVuSans-53"/>
      </g>
     </g>
    </g>
    <g id="xtick_3">
     <g id="line2d_5">
      <path clip-path="url(#p3f2cfeb30a)" d="M 209.108166 307.584 
L 209.108166 41.472 
" style="fill:none;stroke:#b0b0b0;stroke-linecap:square;stroke-width:0.8;"/>
     </g>
     <g id="line2d_6">
      <g>
       <use style="stroke:#000000;stroke-width:0.8;" x="209.108166" xlink:href="#m35775b5fcd" y="307.584"/>
      </g>
     </g>
     <g id="text_3">
      <!-- 10 -->
      <g transform="translate(202.745666 322.182437)scale(0.1 -0.1)">
       <defs>
        <path d="M 12.40625 8.296875 
L 28.515625 8.296875 
L 28.515625 63.921875 
L 10.984375 60.40625 
L 10.984375 69.390625 
L 28.421875 72.90625 
L 38.28125 72.90625 
L 38.28125 8.296875 
L 54.390625 8.296875 
L 54.390625 0 
L 12.40625 0 
z
" id="DejaVuSans-49"/>
       </defs>
       <use xlink:href="#DejaVuSans-49"/>
       <use x="63.623047" xlink:href="#DejaVuSans-48"/>
      </g>
     </g>
    </g>
    <g id="xtick_4">
     <g id="line2d_7">
      <path clip-path="url(#p3f2cfeb30a)" d="M 276.747734 307.584 
L 276.747734 41.472 
" style="fill:none;stroke:#b0b0b0;stroke-linecap:square;stroke-width:0.8;"/>
     </g>
     <g id="line2d_8">
      <g>
       <use style="stroke:#000000;stroke-width:0.8;" x="276.747734" xlink:href="#m35775b5fcd" y="307.584"/>
      </g>
     </g>
     <g id="text_4">
      <!-- 15 -->
      <g transform="translate(270.385234 322.182437)scale(0.1 -0.1)">
       <use xlink:href="#DejaVuSans-49"/>
       <use x="63.623047" xlink:href="#DejaVuSans-53"/>
      </g>
     </g>
    </g>
    <g id="xtick_5">
     <g id="line2d_9">
      <path clip-path="url(#p3f2cfeb30a)" d="M 344.387302 307.584 
L 344.387302 41.472 
" style="fill:none;stroke:#b0b0b0;stroke-linecap:square;stroke-width:0.8;"/>
     </g>
     <g id="line2d_10">
      <g>
       <use style="stroke:#000000;stroke-width:0.8;" x="344.387302" xlink:href="#m35775b5fcd" y="307.584"/>
      </g>
     </g>
     <g id="text_5">
      <!-- 20 -->
      <g transform="translate(338.024802 322.182437)scale(0.1 -0.1)">
       <defs>
        <path d="M 19.1875 8.296875 
L 53.609375 8.296875 
L 53.609375 0 
L 7.328125 0 
L 7.328125 8.296875 
Q 12.9375 14.109375 22.625 23.890625 
Q 32.328125 33.6875 34.8125 36.53125 
Q 39.546875 41.84375 41.421875 45.53125 
Q 43.3125 49.21875 43.3125 52.78125 
Q 43.3125 58.59375 39.234375 62.25 
Q 35.15625 65.921875 28.609375 65.921875 
Q 23.96875 65.921875 18.8125 64.3125 
Q 13.671875 62.703125 7.8125 59.421875 
L 7.8125 69.390625 
Q 13.765625 71.78125 18.9375 73 
Q 24.125 74.21875 28.421875 74.21875 
Q 39.75 74.21875 46.484375 68.546875 
Q 53.21875 62.890625 53.21875 53.421875 
Q 53.21875 48.921875 51.53125 44.890625 
Q 49.859375 40.875 45.40625 35.40625 
Q 44.1875 33.984375 37.640625 27.21875 
Q 31.109375 20.453125 19.1875 8.296875 
z
" id="DejaVuSans-50"/>
       </defs>
       <use xlink:href="#DejaVuSans-50"/>
       <use x="63.623047" xlink:href="#DejaVuSans-48"/>
      </g>
     </g>
    </g>
    <g id="xtick_6">
     <g id="line2d_11">
      <path clip-path="url(#p3f2cfeb30a)" d="M 412.02687 307.584 
L 412.02687 41.472 
" style="fill:none;stroke:#b0b0b0;stroke-linecap:square;stroke-width:0.8;"/>
     </g>
     <g id="line2d_12">
      <g>
       <use style="stroke:#000000;stroke-width:0.8;" x="412.02687" xlink:href="#m35775b5fcd" y="307.584"/>
      </g>
     </g>
     <g id="text_6">
      <!-- 25 -->
      <g transform="translate(405.66437 322.182437)scale(0.1 -0.1)">
       <use xlink:href="#DejaVuSans-50"/>
       <use x="63.623047" xlink:href="#DejaVuSans-53"/>
      </g>
     </g>
    </g>
    <g id="text_7">
     <!-- LST (h) -->
     <g transform="translate(218.486562 335.860562)scale(0.1 -0.1)">
      <defs>
       <path d="M 9.8125 72.90625 
L 19.671875 72.90625 
L 19.671875 8.296875 
L 55.171875 8.296875 
L 55.171875 0 
L 9.8125 0 
z
" id="DejaVuSans-76"/>
       <path d="M 53.515625 70.515625 
L 53.515625 60.890625 
Q 47.90625 63.578125 42.921875 64.890625 
Q 37.9375 66.21875 33.296875 66.21875 
Q 25.25 66.21875 20.875 63.09375 
Q 16.5 59.96875 16.5 54.203125 
Q 16.5 49.359375 19.40625 46.890625 
Q 22.3125 44.4375 30.421875 42.921875 
L 36.375 41.703125 
Q 47.40625 39.59375 52.65625 34.296875 
Q 57.90625 29 57.90625 20.125 
Q 57.90625 9.515625 50.796875 4.046875 
Q 43.703125 -1.421875 29.984375 -1.421875 
Q 24.8125 -1.421875 18.96875 -0.25 
Q 13.140625 0.921875 6.890625 3.21875 
L 6.890625 13.375 
Q 12.890625 10.015625 18.65625 8.296875 
Q 24.421875 6.59375 29.984375 6.59375 
Q 38.421875 6.59375 43.015625 9.90625 
Q 47.609375 13.234375 47.609375 19.390625 
Q 47.609375 24.75 44.3125 27.78125 
Q 41.015625 30.8125 33.5 32.328125 
L 27.484375 33.5 
Q 16.453125 35.6875 11.515625 40.375 
Q 6.59375 45.0625 6.59375 53.421875 
Q 6.59375 63.09375 13.40625 68.65625 
Q 20.21875 74.21875 32.171875 74.21875 
Q 37.3125 74.21875 42.625 73.28125 
Q 47.953125 72.359375 53.515625 70.515625 
z
" id="DejaVuSans-83"/>
       <path d="M -0.296875 72.90625 
L 61.375 72.90625 
L 61.375 64.59375 
L 35.5 64.59375 
L 35.5 0 
L 25.59375 0 
L 25.59375 64.59375 
L -0.296875 64.59375 
z
" id="DejaVuSans-84"/>
       <path id="DejaVuSans-32"/>
       <path d="M 31 75.875 
Q 24.46875 64.65625 21.28125 53.65625 
Q 18.109375 42.671875 18.109375 31.390625 
Q 18.109375 20.125 21.3125 9.0625 
Q 24.515625 -2 31 -13.1875 
L 23.1875 -13.1875 
Q 15.875 -1.703125 12.234375 9.375 
Q 8.59375 20.453125 8.59375 31.390625 
Q 8.59375 42.28125 12.203125 53.3125 
Q 15.828125 64.359375 23.1875 75.875 
z
" id="DejaVuSans-40"/>
       <path d="M 54.890625 33.015625 
L 54.890625 0 
L 45.90625 0 
L 45.90625 32.71875 
Q 45.90625 40.484375 42.875 44.328125 
Q 39.84375 48.1875 33.796875 48.1875 
Q 26.515625 48.1875 22.3125 43.546875 
Q 18.109375 38.921875 18.109375 30.90625 
L 18.109375 0 
L 9.078125 0 
L 9.078125 75.984375 
L 18.109375 75.984375 
L 18.109375 46.1875 
Q 21.34375 51.125 25.703125 53.5625 
Q 30.078125 56 35.796875 56 
Q 45.21875 56 50.046875 50.171875 
Q 54.890625 44.34375 54.890625 33.015625 
z
" id="DejaVuSans-104"/>
       <path d="M 8.015625 75.875 
L 15.828125 75.875 
Q 23.140625 64.359375 26.78125 53.3125 
Q 30.421875 42.28125 30.421875 31.390625 
Q 30.421875 20.453125 26.78125 9.375 
Q 23.140625 -1.703125 15.828125 -13.1875 
L 8.015625 -13.1875 
Q 14.5 -2 17.703125 9.0625 
Q 20.90625 20.125 20.90625 31.390625 
Q 20.90625 42.671875 17.703125 53.65625 
Q 14.5 64.65625 8.015625 75.875 
z
" id="DejaVuSans-41"/>
      </defs>
      <use xlink:href="#DejaVuSans-76"/>
      <use x="55.712891" xlink:href="#DejaVuSans-83"/>
      <use x="119.189453" xlink:href="#DejaVuSans-84"/>
      <use x="180.273438" xlink:href="#DejaVuSans-32"/>
      <use x="212.060547" xlink:href="#DejaVuSans-40"/>
      <use x="251.074219" xlink:href="#DejaVuSans-104"/>
      <use x="314.453125" xlink:href="#DejaVuSans-41"/>
     </g>
    </g>
   </g>
   <g id="matplotlib.axis_2">
    <g id="ytick_1">
     <g id="line2d_13">
      <path clip-path="url(#p3f2cfeb30a)" d="M 57.6 263.245671 
L 414.72 263.245671 
" style="fill:none;stroke:#b0b0b0;stroke-linecap:square;stroke-width:0.8;"/>
     </g>
     <g id="line2d_14">
      <defs>
       <path d="M 0 0 
L -3.5 0 
" id="ma572bdb4a6" style="stroke:#000000;stroke-width:0.8;"/>
      </defs>
      <g>
       <use style="stroke:#000000;stroke-width:0.8;" x="57.6" xlink:href="#ma572bdb4a6" y="263.245671"/>
      </g>
     </g>
     <g id="text_8">
      <!-- $\mathdefault{10^{-4}}$ -->
      <g transform="translate(27.1 267.04489)scale(0.1 -0.1)">
       <defs>
        <path d="M 10.59375 35.5 
L 73.1875 35.5 
L 73.1875 27.203125 
L 10.59375 27.203125 
z
" id="DejaVuSans-8722"/>
        <path d="M 37.796875 64.3125 
L 12.890625 25.390625 
L 37.796875 25.390625 
z
M 35.203125 72.90625 
L 47.609375 72.90625 
L 47.609375 25.390625 
L 58.015625 25.390625 
L 58.015625 17.1875 
L 47.609375 17.1875 
L 47.609375 0 
L 37.796875 0 
L 37.796875 17.1875 
L 4.890625 17.1875 
L 4.890625 26.703125 
z
" id="DejaVuSans-52"/>
       </defs>
       <use transform="translate(0 0.684375)" xlink:href="#DejaVuSans-49"/>
       <use transform="translate(63.623047 0.684375)" xlink:href="#DejaVuSans-48"/>
       <use transform="translate(128.203125 38.965625)scale(0.7)" xlink:href="#DejaVuSans-8722"/>
       <use transform="translate(186.855469 38.965625)scale(0.7)" xlink:href="#DejaVuSans-52"/>
      </g>
     </g>
    </g>
    <g id="ytick_2">
     <g id="line2d_15">
      <path clip-path="url(#p3f2cfeb30a)" d="M 57.6 208.779557 
L 414.72 208.779557 
" style="fill:none;stroke:#b0b0b0;stroke-linecap:square;stroke-width:0.8;"/>
     </g>
     <g id="line2d_16">
      <g>
       <use style="stroke:#000000;stroke-width:0.8;" x="57.6" xlink:href="#ma572bdb4a6" y="208.779557"/>
      </g>
     </g>
     <g id="text_9">
      <!-- $\mathdefault{10^{-3}}$ -->
      <g transform="translate(27.1 212.578776)scale(0.1 -0.1)">
       <defs>
        <path d="M 40.578125 39.3125 
Q 47.65625 37.796875 51.625 33 
Q 55.609375 28.21875 55.609375 21.1875 
Q 55.609375 10.40625 48.1875 4.484375 
Q 40.765625 -1.421875 27.09375 -1.421875 
Q 22.515625 -1.421875 17.65625 -0.515625 
Q 12.796875 0.390625 7.625 2.203125 
L 7.625 11.71875 
Q 11.71875 9.328125 16.59375 8.109375 
Q 21.484375 6.890625 26.8125 6.890625 
Q 36.078125 6.890625 40.9375 10.546875 
Q 45.796875 14.203125 45.796875 21.1875 
Q 45.796875 27.640625 41.28125 31.265625 
Q 36.765625 34.90625 28.71875 34.90625 
L 20.21875 34.90625 
L 20.21875 43.015625 
L 29.109375 43.015625 
Q 36.375 43.015625 40.234375 45.921875 
Q 44.09375 48.828125 44.09375 54.296875 
Q 44.09375 59.90625 40.109375 62.90625 
Q 36.140625 65.921875 28.71875 65.921875 
Q 24.65625 65.921875 20.015625 65.03125 
Q 15.375 64.15625 9.8125 62.3125 
L 9.8125 71.09375 
Q 15.4375 72.65625 20.34375 73.4375 
Q 25.25 74.21875 29.59375 74.21875 
Q 40.828125 74.21875 47.359375 69.109375 
Q 53.90625 64.015625 53.90625 55.328125 
Q 53.90625 49.265625 50.4375 45.09375 
Q 46.96875 40.921875 40.578125 39.3125 
z
" id="DejaVuSans-51"/>
       </defs>
       <use transform="translate(0 0.765625)" xlink:href="#DejaVuSans-49"/>
       <use transform="translate(63.623047 0.765625)" xlink:href="#DejaVuSans-48"/>
       <use transform="translate(128.203125 39.046875)scale(0.7)" xlink:href="#DejaVuSans-8722"/>
       <use transform="translate(186.855469 39.046875)scale(0.7)" xlink:href="#DejaVuSans-51"/>
      </g>
     </g>
    </g>
    <g id="ytick_3">
     <g id="line2d_17">
      <path clip-path="url(#p3f2cfeb30a)" d="M 57.6 154.313443 
L 414.72 154.313443 
" style="fill:none;stroke:#b0b0b0;stroke-linecap:square;stroke-width:0.8;"/>
     </g>
     <g id="line2d_18">
      <g>
       <use style="stroke:#000000;stroke-width:0.8;" x="57.6" xlink:href="#ma572bdb4a6" y="154.313443"/>
      </g>
     </g>
     <g id="text_10">
      <!-- $\mathdefault{10^{-2}}$ -->
      <g transform="translate(27.1 158.112662)scale(0.1 -0.1)">
       <use transform="translate(0 0.765625)" xlink:href="#DejaVuSans-49"/>
       <use transform="translate(63.623047 0.765625)" xlink:href="#DejaVuSans-48"/>
       <use transform="translate(128.203125 39.046875)scale(0.7)" xlink:href="#DejaVuSans-8722"/>
       <use transform="translate(186.855469 39.046875)scale(0.7)" xlink:href="#DejaVuSans-50"/>
      </g>
     </g>
    </g>
    <g id="ytick_4">
     <g id="line2d_19">
      <path clip-path="url(#p3f2cfeb30a)" d="M 57.6 99.847329 
L 414.72 99.847329 
" style="fill:none;stroke:#b0b0b0;stroke-linecap:square;stroke-width:0.8;"/>
     </g>
     <g id="line2d_20">
      <g>
       <use style="stroke:#000000;stroke-width:0.8;" x="57.6" xlink:href="#ma572bdb4a6" y="99.847329"/>
      </g>
     </g>
     <g id="text_11">
      <!-- $\mathdefault{10^{-1}}$ -->
      <g transform="translate(27.1 103.646548)scale(0.1 -0.1)">
       <use transform="translate(0 0.684375)" xlink:href="#DejaVuSans-49"/>
       <use transform="translate(63.623047 0.684375)" xlink:href="#DejaVuSans-48"/>
       <use transform="translate(128.203125 38.965625)scale(0.7)" xlink:href="#DejaVuSans-8722"/>
       <use transform="translate(186.855469 38.965625)scale(0.7)" xlink:href="#DejaVuSans-49"/>
      </g>
     </g>
    </g>
    <g id="ytick_5">
     <g id="line2d_21">
      <path clip-path="url(#p3f2cfeb30a)" d="M 57.6 45.381215 
L 414.72 45.381215 
" style="fill:none;stroke:#b0b0b0;stroke-linecap:square;stroke-width:0.8;"/>
     </g>
     <g id="line2d_22">
      <g>
       <use style="stroke:#000000;stroke-width:0.8;" x="57.6" xlink:href="#ma572bdb4a6" y="45.381215"/>
      </g>
     </g>
     <g id="text_12">
      <!-- $\mathdefault{10^{0}}$ -->
      <g transform="translate(33 49.180434)scale(0.1 -0.1)">
       <use transform="translate(0 0.765625)" xlink:href="#DejaVuSans-49"/>
       <use transform="translate(63.623047 0.765625)" xlink:href="#DejaVuSans-48"/>
       <use transform="translate(128.203125 39.046875)scale(0.7)" xlink:href="#DejaVuSans-48"/>
      </g>
     </g>
    </g>
    <g id="ytick_6">
     <g id="line2d_23">
      <defs>
       <path d="M 0 0 
L -2 0 
" id="m540a84dd22" style="stroke:#000000;stroke-width:0.6;"/>
      </defs>
      <g>
       <use style="stroke:#000000;stroke-width:0.6;" x="57.6" xlink:href="#m540a84dd22" y="301.315851"/>
      </g>
     </g>
    </g>
    <g id="ytick_7">
     <g id="line2d_24">
      <g>
       <use style="stroke:#000000;stroke-width:0.6;" x="57.6" xlink:href="#m540a84dd22" y="291.724844"/>
      </g>
     </g>
    </g>
    <g id="ytick_8">
     <g id="line2d_25">
      <g>
       <use style="stroke:#000000;stroke-width:0.6;" x="57.6" xlink:href="#m540a84dd22" y="284.919917"/>
      </g>
     </g>
    </g>
    <g id="ytick_9">
     <g id="line2d_26">
      <g>
       <use style="stroke:#000000;stroke-width:0.6;" x="57.6" xlink:href="#m540a84dd22" y="279.641605"/>
      </g>
     </g>
    </g>
    <g id="ytick_10">
     <g id="line2d_27">
      <g>
       <use style="stroke:#000000;stroke-width:0.6;" x="57.6" xlink:href="#m540a84dd22" y="275.32891"/>
      </g>
     </g>
    </g>
    <g id="ytick_11">
     <g id="line2d_28">
      <g>
       <use style="stroke:#000000;stroke-width:0.6;" x="57.6" xlink:href="#m540a84dd22" y="271.682579"/>
      </g>
     </g>
    </g>
    <g id="ytick_12">
     <g id="line2d_29">
      <g>
       <use style="stroke:#000000;stroke-width:0.6;" x="57.6" xlink:href="#m540a84dd22" y="268.523983"/>
      </g>
     </g>
    </g>
    <g id="ytick_13">
     <g id="line2d_30">
      <g>
       <use style="stroke:#000000;stroke-width:0.6;" x="57.6" xlink:href="#m540a84dd22" y="265.737904"/>
      </g>
     </g>
    </g>
    <g id="ytick_14">
     <g id="line2d_31">
      <g>
       <use style="stroke:#000000;stroke-width:0.6;" x="57.6" xlink:href="#m540a84dd22" y="246.849737"/>
      </g>
     </g>
    </g>
    <g id="ytick_15">
     <g id="line2d_32">
      <g>
       <use style="stroke:#000000;stroke-width:0.6;" x="57.6" xlink:href="#m540a84dd22" y="237.25873"/>
      </g>
     </g>
    </g>
    <g id="ytick_16">
     <g id="line2d_33">
      <g>
       <use style="stroke:#000000;stroke-width:0.6;" x="57.6" xlink:href="#m540a84dd22" y="230.453803"/>
      </g>
     </g>
    </g>
    <g id="ytick_17">
     <g id="line2d_34">
      <g>
       <use style="stroke:#000000;stroke-width:0.6;" x="57.6" xlink:href="#m540a84dd22" y="225.175491"/>
      </g>
     </g>
    </g>
    <g id="ytick_18">
     <g id="line2d_35">
      <g>
       <use style="stroke:#000000;stroke-width:0.6;" x="57.6" xlink:href="#m540a84dd22" y="220.862796"/>
      </g>
     </g>
    </g>
    <g id="ytick_19">
     <g id="line2d_36">
      <g>
       <use style="stroke:#000000;stroke-width:0.6;" x="57.6" xlink:href="#m540a84dd22" y="217.216465"/>
      </g>
     </g>
    </g>
    <g id="ytick_20">
     <g id="line2d_37">
      <g>
       <use style="stroke:#000000;stroke-width:0.6;" x="57.6" xlink:href="#m540a84dd22" y="214.057869"/>
      </g>
     </g>
    </g>
    <g id="ytick_21">
     <g id="line2d_38">
      <g>
       <use style="stroke:#000000;stroke-width:0.6;" x="57.6" xlink:href="#m540a84dd22" y="211.27179"/>
      </g>
     </g>
    </g>
    <g id="ytick_22">
     <g id="line2d_39">
      <g>
       <use style="stroke:#000000;stroke-width:0.6;" x="57.6" xlink:href="#m540a84dd22" y="192.383623"/>
      </g>
     </g>
    </g>
    <g id="ytick_23">
     <g id="line2d_40">
      <g>
       <use style="stroke:#000000;stroke-width:0.6;" x="57.6" xlink:href="#m540a84dd22" y="182.792616"/>
      </g>
     </g>
    </g>
    <g id="ytick_24">
     <g id="line2d_41">
      <g>
       <use style="stroke:#000000;stroke-width:0.6;" x="57.6" xlink:href="#m540a84dd22" y="175.987689"/>
      </g>
     </g>
    </g>
    <g id="ytick_25">
     <g id="line2d_42">
      <g>
       <use style="stroke:#000000;stroke-width:0.6;" x="57.6" xlink:href="#m540a84dd22" y="170.709377"/>
      </g>
     </g>
    </g>
    <g id="ytick_26">
     <g id="line2d_43">
      <g>
       <use style="stroke:#000000;stroke-width:0.6;" x="57.6" xlink:href="#m540a84dd22" y="166.396682"/>
      </g>
     </g>
    </g>
    <g id="ytick_27">
     <g id="line2d_44">
      <g>
       <use style="stroke:#000000;stroke-width:0.6;" x="57.6" xlink:href="#m540a84dd22" y="162.750351"/>
      </g>
     </g>
    </g>
    <g id="ytick_28">
     <g id="line2d_45">
      <g>
       <use style="stroke:#000000;stroke-width:0.6;" x="57.6" xlink:href="#m540a84dd22" y="159.591755"/>
      </g>
     </g>
    </g>
    <g id="ytick_29">
     <g id="line2d_46">
      <g>
       <use style="stroke:#000000;stroke-width:0.6;" x="57.6" xlink:href="#m540a84dd22" y="156.805676"/>
      </g>
     </g>
    </g>
    <g id="ytick_30">
     <g id="line2d_47">
      <g>
       <use style="stroke:#000000;stroke-width:0.6;" x="57.6" xlink:href="#m540a84dd22" y="137.917509"/>
      </g>
     </g>
    </g>
    <g id="ytick_31">
     <g id="line2d_48">
      <g>
       <use style="stroke:#000000;stroke-width:0.6;" x="57.6" xlink:href="#m540a84dd22" y="128.326502"/>
      </g>
     </g>
    </g>
    <g id="ytick_32">
     <g id="line2d_49">
      <g>
       <use style="stroke:#000000;stroke-width:0.6;" x="57.6" xlink:href="#m540a84dd22" y="121.521575"/>
      </g>
     </g>
    </g>
    <g id="ytick_33">
     <g id="line2d_50">
      <g>
       <use style="stroke:#000000;stroke-width:0.6;" x="57.6" xlink:href="#m540a84dd22" y="116.243263"/>
      </g>
     </g>
    </g>
    <g id="ytick_34">
     <g id="line2d_51">
      <g>
       <use style="stroke:#000000;stroke-width:0.6;" x="57.6" xlink:href="#m540a84dd22" y="111.930568"/>
      </g>
     </g>
    </g>
    <g id="ytick_35">
     <g id="line2d_52">
      <g>
       <use style="stroke:#000000;stroke-width:0.6;" x="57.6" xlink:href="#m540a84dd22" y="108.284237"/>
      </g>
     </g>
    </g>
    <g id="ytick_36">
     <g id="line2d_53">
      <g>
       <use style="stroke:#000000;stroke-width:0.6;" x="57.6" xlink:href="#m540a84dd22" y="105.125641"/>
      </g>
     </g>
    </g>
    <g id="ytick_37">
     <g id="line2d_54">
      <g>
       <use style="stroke:#000000;stroke-width:0.6;" x="57.6" xlink:href="#m540a84dd22" y="102.339562"/>
      </g>
     </g>
    </g>
    <g id="ytick_38">
     <g id="line2d_55">
      <g>
       <use style="stroke:#000000;stroke-width:0.6;" x="57.6" xlink:href="#m540a84dd22" y="83.451395"/>
      </g>
     </g>
    </g>
    <g id="ytick_39">
     <g id="line2d_56">
      <g>
       <use style="stroke:#000000;stroke-width:0.6;" x="57.6" xlink:href="#m540a84dd22" y="73.860388"/>
      </g>
     </g>
    </g>
    <g id="ytick_40">
     <g id="line2d_57">
      <g>
       <use style="stroke:#000000;stroke-width:0.6;" x="57.6" xlink:href="#m540a84dd22" y="67.055461"/>
      </g>
     </g>
    </g>
    <g id="ytick_41">
     <g id="line2d_58">
      <g>
       <use style="stroke:#000000;stroke-width:0.6;" x="57.6" xlink:href="#m540a84dd22" y="61.777149"/>
      </g>
     </g>
    </g>
    <g id="ytick_42">
     <g id="line2d_59">
      <g>
       <use style="stroke:#000000;stroke-width:0.6;" x="57.6" xlink:href="#m540a84dd22" y="57.464454"/>
      </g>
     </g>
    </g>
    <g id="ytick_43">
     <g id="line2d_60">
      <g>
       <use style="stroke:#000000;stroke-width:0.6;" x="57.6" xlink:href="#m540a84dd22" y="53.818123"/>
      </g>
     </g>
    </g>
    <g id="ytick_44">
     <g id="line2d_61">
      <g>
       <use style="stroke:#000000;stroke-width:0.6;" x="57.6" xlink:href="#m540a84dd22" y="50.659527"/>
      </g>
     </g>
    </g>
    <g id="ytick_45">
     <g id="line2d_62">
      <g>
       <use style="stroke:#000000;stroke-width:0.6;" x="57.6" xlink:href="#m540a84dd22" y="47.873448"/>
      </g>
     </g>
    </g>
    <g id="text_13">
     <!-- RMS (K) -->
     <g transform="translate(21.020312 194.260031)rotate(-90)scale(0.1 -0.1)">
      <defs>
       <path d="M 44.390625 34.1875 
Q 47.5625 33.109375 50.5625 29.59375 
Q 53.5625 26.078125 56.59375 19.921875 
L 66.609375 0 
L 56 0 
L 46.6875 18.703125 
Q 43.0625 26.03125 39.671875 28.421875 
Q 36.28125 30.8125 30.421875 30.8125 
L 19.671875 30.8125 
L 19.671875 0 
L 9.8125 0 
L 9.8125 72.90625 
L 32.078125 72.90625 
Q 44.578125 72.90625 50.734375 67.671875 
Q 56.890625 62.453125 56.890625 51.90625 
Q 56.890625 45.015625 53.6875 40.46875 
Q 50.484375 35.9375 44.390625 34.1875 
z
M 19.671875 64.796875 
L 19.671875 38.921875 
L 32.078125 38.921875 
Q 39.203125 38.921875 42.84375 42.21875 
Q 46.484375 45.515625 46.484375 51.90625 
Q 46.484375 58.296875 42.84375 61.546875 
Q 39.203125 64.796875 32.078125 64.796875 
z
" id="DejaVuSans-82"/>
       <path d="M 9.8125 72.90625 
L 24.515625 72.90625 
L 43.109375 23.296875 
L 61.8125 72.90625 
L 76.515625 72.90625 
L 76.515625 0 
L 66.890625 0 
L 66.890625 64.015625 
L 48.09375 14.015625 
L 38.1875 14.015625 
L 19.390625 64.015625 
L 19.390625 0 
L 9.8125 0 
z
" id="DejaVuSans-77"/>
       <path d="M 9.8125 72.90625 
L 19.671875 72.90625 
L 19.671875 42.09375 
L 52.390625 72.90625 
L 65.09375 72.90625 
L 28.90625 38.921875 
L 67.671875 0 
L 54.6875 0 
L 19.671875 35.109375 
L 19.671875 0 
L 9.8125 0 
z
" id="DejaVuSans-75"/>
      </defs>
      <use xlink:href="#DejaVuSans-82"/>
      <use x="69.482422" xlink:href="#DejaVuSans-77"/>
      <use x="155.761719" xlink:href="#DejaVuSans-83"/>
      <use x="219.238281" xlink:href="#DejaVuSans-32"/>
      <use x="251.025391" xlink:href="#DejaVuSans-40"/>
      <use x="290.039062" xlink:href="#DejaVuSans-75"/>
      <use x="355.615234" xlink:href="#DejaVuSans-41"/>
     </g>
    </g>
   </g>
   <g id="line2d_63">
    <path clip-path="url(#p3f2cfeb30a)" d="M 73.832727 193.064139 
L 76.538182 195.554004 
L 81.949091 200.893834 
L 83.301818 201.932971 
L 84.654546 202.752778 
L 86.007273 203.353945 
L 87.36 203.806332 
L 90.065455 204.394837 
L 94.123637 204.903817 
L 98.181818 205.382363 
L 100.887273 205.922534 
L 103.592728 206.748296 
L 106.298182 207.940789 
L 109.003637 209.549481 
L 111.709091 211.589148 
L 114.414546 213.965128 
L 119.825455 219.029398 
L 121.178182 220.089142 
L 122.53091 220.961623 
L 123.883637 221.626828 
L 125.236364 222.037243 
L 126.589092 222.226299 
L 129.294546 222.188188 
L 132.000001 221.996092 
L 134.705455 222.085012 
L 136.058183 222.340248 
L 137.41091 222.758312 
L 138.763637 223.361498 
L 140.116364 224.159098 
L 141.469092 225.156989 
L 144.174546 227.627966 
L 146.880001 230.085267 
L 148.232728 230.879812 
L 149.585455 231.061041 
L 150.938183 230.408073 
L 152.29091 229.048689 
L 153.643637 226.98129 
L 156.349092 221.922674 
L 159.054546 216.809555 
L 161.760001 212.322351 
L 164.465455 208.585084 
L 165.818183 206.982788 
L 167.17091 205.567295 
L 168.523637 204.323771 
L 169.876365 203.241742 
L 171.229092 202.322554 
L 172.581819 201.552401 
L 173.934546 200.939295 
L 175.287274 200.474702 
L 176.640001 200.154672 
L 177.992728 199.991504 
L 179.345456 199.954783 
L 180.698183 200.071885 
L 182.05091 200.33107 
L 183.403637 200.744359 
L 184.756365 201.303104 
L 186.109092 202.016319 
L 187.461819 202.862736 
L 190.167274 204.979575 
L 194.225456 208.752817 
L 195.578183 209.990899 
L 196.93091 211.065947 
L 198.283637 211.883675 
L 199.636365 212.288325 
L 200.989092 212.232818 
L 202.341819 211.688058 
L 203.694547 210.73769 
L 205.047274 209.461522 
L 207.752728 206.345026 
L 211.81091 201.619999 
L 214.516365 198.864305 
L 217.221819 196.545284 
L 219.927274 194.672665 
L 222.632728 193.236414 
L 225.338183 192.168504 
L 228.043638 191.468262 
L 230.749092 191.053264 
L 233.454547 190.917299 
L 236.160001 190.999342 
L 238.865456 191.253875 
L 244.276365 192.102842 
L 248.334547 192.756506 
L 251.040001 193.010125 
L 253.745456 193.067702 
L 256.45091 192.902079 
L 259.156365 192.432454 
L 268.625456 190.149836 
L 269.978183 189.928421 
L 272.683638 189.825968 
L 276.741819 190.079718 
L 280.800001 190.843852 
L 282.152728 191.205532 
L 284.858183 191.490943 
L 286.21091 191.359974 
L 287.563637 191.028283 
L 288.916365 190.498542 
L 290.269092 189.650053 
L 291.621819 188.583032 
L 292.974547 187.306741 
L 295.680001 184.332286 
L 299.738183 179.871989 
L 302.443637 177.293778 
L 305.149092 175.227162 
L 306.501819 174.436104 
L 307.854546 173.784633 
L 309.207274 173.311964 
L 310.560001 173.024146 
L 311.912728 172.920743 
L 313.265456 173.015371 
L 314.618183 173.302408 
L 315.97091 173.828725 
L 317.323637 174.573864 
L 318.676365 175.567483 
L 320.029092 176.806149 
L 321.381819 178.301477 
L 322.734546 180.090839 
L 325.440001 184.306196 
L 326.792728 186.491714 
L 328.145455 188.332178 
L 329.498183 189.39819 
L 330.85091 189.262772 
L 332.203637 187.800222 
L 333.556364 185.420966 
L 338.967273 174.375389 
L 340.320001 172.013888 
L 341.672728 169.937519 
L 343.025455 168.124578 
L 344.378183 166.566877 
L 345.73091 165.262041 
L 347.083637 164.168851 
L 348.436364 163.281074 
L 349.789092 162.605199 
L 351.141819 162.164228 
L 352.494546 161.905058 
L 353.847273 161.846047 
L 355.200001 161.987821 
L 356.552728 162.329851 
L 357.905455 162.876143 
L 359.258182 163.61899 
L 360.61091 164.579881 
L 361.963637 165.796157 
L 363.316364 167.253417 
L 364.669091 168.935974 
L 366.021819 170.938928 
L 367.374546 173.230368 
L 368.727273 175.884579 
L 370.08 178.911749 
L 371.432728 182.424129 
L 372.785455 186.468208 
L 374.138182 191.074429 
L 378.196364 206.457983 
L 379.549091 208.391913 
L 380.901818 206.91605 
L 384.96 197.198933 
L 386.312727 194.823921 
L 387.665455 193.007683 
L 389.018182 191.719871 
L 390.370909 190.897093 
L 391.723636 190.490305 
L 393.076364 190.425948 
L 394.429091 190.681491 
L 395.781818 191.225519 
L 397.134545 192.035477 
L 398.487273 193.051376 
L 398.487273 193.051376 
" style="fill:none;stroke:#1f77b4;stroke-linecap:square;stroke-width:1.5;"/>
   </g>
   <g id="line2d_64">
    <path clip-path="url(#p3f2cfeb30a)" d="M 73.832727 128.198307 
L 79.243636 135.663008 
L 80.596364 137.352296 
L 81.949091 138.855271 
L 83.301818 140.115192 
L 84.654546 141.095891 
L 86.007273 141.800904 
L 87.36 142.279221 
L 88.712727 142.576672 
L 90.065455 142.720188 
L 92.770909 142.633396 
L 95.476364 142.182466 
L 99.534546 141.134002 
L 106.298182 139.266584 
L 110.356364 138.459035 
L 113.061819 138.136105 
L 115.767273 138.010747 
L 118.472728 138.095287 
L 121.178182 138.396131 
L 123.883637 138.91485 
L 126.589092 139.649349 
L 129.294546 140.594496 
L 132.000001 141.746763 
L 134.705455 143.095864 
L 137.41091 144.630414 
L 141.469092 147.242107 
L 145.527273 150.14494 
L 153.643637 156.115204 
L 156.349092 157.81514 
L 159.054546 159.190339 
L 161.760001 160.149093 
L 163.112728 160.447356 
L 164.465455 160.620538 
L 165.818183 160.667914 
L 167.17091 160.590429 
L 168.523637 160.39563 
L 171.229092 159.680577 
L 173.934546 158.604814 
L 176.640001 157.274544 
L 180.698183 154.989359 
L 198.283637 144.648411 
L 209.105456 138.692696 
L 215.869092 135.18788 
L 221.280001 132.587823 
L 225.338183 130.813819 
L 228.043638 129.779395 
L 230.749092 128.917862 
L 233.454547 128.290602 
L 236.160001 127.96037 
L 238.865456 128.006976 
L 240.218183 128.201138 
L 241.57091 128.52768 
L 242.923638 129.002759 
L 244.276365 129.64926 
L 245.629092 130.491012 
L 246.981819 131.556082 
L 248.334547 132.87775 
L 249.687274 134.505301 
L 251.040001 136.506153 
L 252.392728 138.968736 
L 253.745456 142.035653 
L 255.098183 145.91758 
L 256.45091 150.979351 
L 257.803638 157.909403 
L 259.156365 168.248267 
L 260.509092 185.146681 
L 261.861819 185.476891 
L 263.214547 167.224002 
L 264.567274 155.6271 
L 265.920001 147.528955 
L 267.272728 141.341447 
L 268.625456 136.348182 
L 269.978183 132.174151 
L 271.33091 128.590015 
L 272.683638 125.471206 
L 274.036365 122.724907 
L 275.389092 120.283129 
L 276.741819 118.095704 
L 279.447274 114.352027 
L 282.152728 111.289692 
L 284.858183 108.775527 
L 287.563637 106.726386 
L 290.269092 105.073448 
L 292.974547 103.766459 
L 295.680001 102.760919 
L 298.385456 102.013472 
L 301.09091 101.491946 
L 303.796365 101.161036 
L 307.854546 100.948938 
L 311.912728 101.003928 
L 315.97091 101.26355 
L 320.029092 101.700874 
L 324.087274 102.334657 
L 328.145455 103.22879 
L 330.85091 104.031929 
L 333.556364 105.055923 
L 336.261819 106.368677 
L 338.967273 108.046569 
L 341.672728 110.205777 
L 343.025455 111.504688 
L 344.378183 112.982712 
L 345.73091 114.666248 
L 347.083637 116.59202 
L 348.436364 118.802568 
L 349.789092 121.362969 
L 351.141819 124.350075 
L 352.494546 127.878833 
L 353.847273 132.118163 
L 355.200001 137.331719 
L 356.552728 143.906227 
L 357.905455 152.308699 
L 359.258182 161.572844 
L 360.61091 162.995485 
L 363.316364 146.103427 
L 364.669091 139.496952 
L 366.021819 134.382337 
L 367.374546 130.318689 
L 368.727273 127.034817 
L 370.08 124.345262 
L 371.432728 122.141162 
L 372.785455 120.336922 
L 374.138182 118.871635 
L 375.490909 117.705247 
L 376.843637 116.805441 
L 378.196364 116.146709 
L 379.549091 115.712787 
L 380.901818 115.486184 
L 382.254546 115.458635 
L 383.607273 115.62069 
L 384.96 115.965731 
L 386.312727 116.487268 
L 387.665455 117.18198 
L 389.018182 118.043985 
L 390.370909 119.068758 
L 391.723636 120.249604 
L 394.429091 123.053994 
L 397.134545 126.370445 
L 398.487273 128.177167 
L 398.487273 128.177167 
" style="fill:none;stroke:#ff7f0e;stroke-linecap:square;stroke-width:1.5;"/>
   </g>
   <g id="line2d_65">
    <path clip-path="url(#p3f2cfeb30a)" d="M 73.832727 87.411224 
L 79.243636 95.485839 
L 80.596364 97.295724 
L 81.949091 98.90836 
L 83.301818 100.268213 
L 84.654546 101.338245 
L 86.007273 102.118689 
L 87.36 102.655343 
L 88.712727 102.990898 
L 90.065455 103.15125 
L 91.418182 103.158212 
L 94.123637 102.797126 
L 96.829091 102.070066 
L 100.887273 100.597841 
L 107.650909 97.999242 
L 111.709091 96.739475 
L 114.414546 96.114068 
L 117.120001 95.691355 
L 119.825455 95.490297 
L 122.53091 95.5247 
L 125.236364 95.806452 
L 127.941819 96.345704 
L 130.647273 97.152494 
L 133.352728 98.236273 
L 136.058183 99.607401 
L 138.763637 101.276663 
L 141.469092 103.255908 
L 144.174546 105.557267 
L 146.880001 108.188478 
L 149.585455 111.149063 
L 152.29091 114.418416 
L 156.349092 119.790378 
L 161.760001 127.215377 
L 164.465455 130.539596 
L 165.818183 131.958126 
L 167.17091 133.150903 
L 168.523637 134.072373 
L 169.876365 134.685131 
L 171.229092 134.964127 
L 172.581819 134.902351 
L 173.934546 134.508108 
L 175.287274 133.804183 
L 176.640001 132.825197 
L 177.992728 131.610584 
L 180.698183 128.649238 
L 183.403637 125.246441 
L 192.872728 112.956209 
L 196.93091 108.214515 
L 200.989092 103.909009 
L 205.047274 100.029873 
L 209.105456 96.555392 
L 213.163638 93.455135 
L 217.221819 90.697704 
L 221.280001 88.247284 
L 225.338183 86.084199 
L 229.396365 84.250627 
L 232.101819 83.247959 
L 234.807274 82.45711 
L 237.512728 81.91508 
L 240.218183 81.667801 
L 242.923638 81.775806 
L 244.276365 81.98562 
L 245.629092 82.313979 
L 246.981819 82.773372 
L 248.334547 83.379419 
L 249.687274 84.150328 
L 251.040001 85.108361 
L 252.392728 86.281855 
L 253.745456 87.706139 
L 255.098183 89.428694 
L 256.45091 91.514755 
L 257.803638 94.055143 
L 259.156365 97.186167 
L 260.509092 101.120359 
L 261.861819 106.221507 
L 263.214547 113.173385 
L 264.567274 123.426789 
L 265.920001 139.17412 
L 267.272728 138.041963 
L 268.625456 121.32237 
L 269.978183 110.099103 
L 271.33091 102.109355 
L 272.683638 95.938067 
L 274.036365 90.917164 
L 275.389092 86.691049 
L 276.741819 83.050174 
L 278.094547 79.860564 
L 279.447274 77.032341 
L 280.800001 74.502177 
L 283.505456 70.161122 
L 286.21091 66.58361 
L 288.916365 63.613954 
L 291.621819 61.150976 
L 294.327274 59.119198 
L 297.032728 57.463984 
L 299.738183 56.142482 
L 302.443637 55.12067 
L 305.149092 54.371227 
L 307.854546 53.873754 
L 310.560001 53.61296 
L 313.265456 53.578853 
L 315.97091 53.767731 
L 318.676365 54.181627 
L 321.381819 54.82997 
L 324.087274 55.729619 
L 326.792728 56.908461 
L 329.498183 58.405837 
L 332.203637 60.276967 
L 334.909092 62.600214 
L 336.261819 63.964339 
L 337.614546 65.487027 
L 338.967273 67.191505 
L 340.320001 69.106035 
L 341.672728 71.26761 
L 343.025455 73.725751 
L 344.378183 76.547002 
L 345.73091 79.823993 
L 347.083637 83.695878 
L 348.436364 88.380384 
L 349.789092 94.245204 
L 351.141819 101.982097 
L 352.494546 113.050049 
L 353.847273 129.432079 
L 355.200001 128.270465 
L 356.552728 112.63766 
L 357.905455 102.36303 
L 359.258182 95.264138 
L 360.61091 89.974924 
L 361.963637 85.844651 
L 363.316364 82.525047 
L 364.669091 79.811417 
L 366.021819 77.572869 
L 367.374546 75.722828 
L 368.727273 74.199728 
L 370.08 72.959927 
L 371.432728 71.969788 
L 372.785455 71.204929 
L 374.138182 70.64682 
L 375.490909 70.280479 
L 376.843637 70.094564 
L 378.196364 70.080155 
L 379.549091 70.229991 
L 380.901818 70.538492 
L 382.254546 71.001543 
L 383.607273 71.615659 
L 384.96 72.37812 
L 386.312727 73.286865 
L 387.665455 74.339031 
L 390.370909 76.864634 
L 393.076364 79.92647 
L 395.781818 83.469559 
L 398.487273 87.388016 
L 398.487273 87.388016 
" style="fill:none;stroke:#2ca02c;stroke-linecap:square;stroke-width:1.5;"/>
   </g>
   <g id="line2d_66">
    <path clip-path="url(#p3f2cfeb30a)" d="M 73.832727 237.598704 
L 77.890909 246.020683 
L 88.712727 269.664574 
L 90.065455 273.021456 
L 92.770909 280.605406 
L 95.476364 289.832062 
L 96.829091 293.715555 
L 98.181818 295.488 
L 99.534546 293.924753 
L 100.887273 290.314613 
L 104.945455 278.193992 
L 107.650909 271.993838 
L 109.003637 269.521077 
L 111.709091 265.226736 
L 113.061819 263.509692 
L 115.767273 260.569378 
L 118.472728 258.265831 
L 119.825455 257.384116 
L 123.883637 255.314574 
L 126.589092 254.498477 
L 130.647273 253.860636 
L 133.352728 253.943051 
L 136.058183 254.251475 
L 140.116364 255.091177 
L 142.821819 255.934665 
L 153.643637 260.524385 
L 156.349092 261.92001 
L 159.054546 263.156405 
L 160.407274 263.512062 
L 161.760001 264.300182 
L 167.17091 265.929079 
L 169.876365 266.195105 
L 171.229092 266.340187 
L 172.581819 266.236433 
L 175.287274 265.477566 
L 176.640001 264.620114 
L 179.345456 262.235274 
L 180.698183 260.82298 
L 183.403637 257.524255 
L 186.109092 253.936727 
L 190.167274 248.87173 
L 192.872728 245.794243 
L 195.578183 242.949445 
L 200.989092 237.986489 
L 205.047274 234.723936 
L 209.105456 232.152625 
L 213.163638 230.081316 
L 217.221819 228.359511 
L 229.396365 224.010996 
L 233.454547 222.18164 
L 237.512728 219.873084 
L 240.218183 217.980035 
L 244.276365 214.864406 
L 252.392728 208.012996 
L 255.098183 205.936279 
L 259.156365 203.193115 
L 261.861819 201.703707 
L 264.567274 200.468501 
L 268.625456 199.172182 
L 271.33091 198.73711 
L 274.036365 198.705331 
L 276.741819 198.953808 
L 279.447274 199.543187 
L 280.800001 199.966863 
L 283.505456 201.172625 
L 286.21091 202.762902 
L 288.916365 204.75076 
L 290.269092 205.928794 
L 292.974547 208.792502 
L 295.680001 212.041929 
L 297.032728 213.974738 
L 299.738183 218.511577 
L 301.09091 221.191158 
L 302.443637 224.232833 
L 305.149092 231.237602 
L 309.207274 243.142213 
L 310.560001 244.162166 
L 311.912728 243.318836 
L 313.265456 240.283411 
L 317.323637 229.375978 
L 318.676365 226.312627 
L 320.029092 223.525589 
L 322.734546 218.748805 
L 324.087274 216.60516 
L 325.440001 214.789872 
L 326.792728 213.163826 
L 329.498183 210.453397 
L 332.203637 208.22926 
L 336.261819 205.412056 
L 340.320001 203.360015 
L 341.672728 202.794938 
L 343.025455 202.359153 
L 349.789092 200.880791 
L 352.494546 200.659318 
L 355.200001 200.6507 
L 359.258182 200.944987 
L 361.963637 201.534434 
L 364.669091 202.238681 
L 367.374546 203.085279 
L 370.08 204.266947 
L 372.785455 205.719699 
L 375.490909 207.500229 
L 378.196364 209.566485 
L 380.901818 211.903951 
L 383.607273 214.695413 
L 386.312727 217.920853 
L 389.018182 221.495404 
L 391.723636 225.524781 
L 394.429091 229.996352 
L 397.134545 234.910656 
L 398.487273 237.568163 
L 398.487273 237.568163 
" style="fill:none;stroke:#d62728;stroke-linecap:square;stroke-width:1.5;"/>
   </g>
   <g id="line2d_67">
    <path clip-path="url(#p3f2cfeb30a)" d="M 73.832727 237.513929 
L 77.890909 245.652933 
L 81.949091 254.440499 
L 87.36 266.555927 
L 88.712727 269.172989 
L 90.065455 271.095778 
L 91.418182 271.739005 
L 92.770909 270.70577 
L 94.123637 268.44848 
L 95.476364 265.171977 
L 99.534546 254.62962 
L 102.24 248.45467 
L 104.945455 243.206304 
L 106.298182 240.836263 
L 109.003637 236.689199 
L 111.709091 233.148874 
L 114.414546 230.134705 
L 117.120001 227.651726 
L 119.825455 225.653153 
L 122.53091 224.10884 
L 125.236364 223.025871 
L 127.941819 222.354832 
L 129.294546 222.1885 
L 130.647273 222.134398 
L 132.000001 222.193786 
L 134.705455 222.635625 
L 137.41091 223.519585 
L 140.116364 224.829582 
L 141.469092 225.667351 
L 144.174546 227.729303 
L 146.880001 230.256212 
L 149.585455 233.330099 
L 150.938183 235.049894 
L 153.643637 239.000816 
L 156.349092 243.423202 
L 159.054546 248.224474 
L 163.112728 255.650994 
L 164.465455 257.834055 
L 165.818183 259.743481 
L 167.17091 261.339574 
L 168.523637 262.417549 
L 169.876365 263.153288 
L 171.229092 263.51384 
L 172.581819 263.305273 
L 173.934546 262.585399 
L 175.287274 261.468248 
L 176.640001 259.753451 
L 177.992728 257.486556 
L 179.345456 254.775542 
L 183.403637 245.486554 
L 187.461819 236.387733 
L 191.520001 228.393167 
L 194.225456 223.646285 
L 196.93091 219.439605 
L 199.636365 215.699213 
L 202.341819 212.380019 
L 205.047274 209.463233 
L 207.752728 206.85415 
L 210.458183 204.607231 
L 213.163638 202.60954 
L 215.869092 200.906446 
L 218.574547 199.458555 
L 221.280001 198.253064 
L 223.985456 197.254106 
L 226.69091 196.470718 
L 229.396365 195.900916 
L 232.101819 195.573712 
L 234.807274 195.463391 
L 237.512728 195.600685 
L 240.218183 195.979383 
L 242.923638 196.578279 
L 245.629092 197.38728 
L 251.040001 199.339446 
L 253.745456 200.279968 
L 256.45091 201.066962 
L 257.803638 201.29943 
L 260.509092 201.298213 
L 261.861819 201.155586 
L 263.214547 200.874115 
L 265.920001 199.995668 
L 278.094547 194.222417 
L 280.800001 193.149744 
L 284.858183 191.869383 
L 287.563637 191.035324 
L 292.974547 189.644505 
L 298.385456 188.175291 
L 303.796365 186.879578 
L 309.207274 185.968891 
L 313.265456 185.687625 
L 315.97091 185.765008 
L 318.676365 185.99109 
L 321.381819 186.487322 
L 324.087274 187.251693 
L 326.792728 188.2565 
L 329.498183 189.404321 
L 333.556364 191.484397 
L 341.672728 196.710203 
L 344.378183 198.245003 
L 347.083637 199.459294 
L 349.789092 200.203842 
L 352.494546 200.579244 
L 355.200001 200.614085 
L 357.905455 200.447108 
L 360.61091 200.316543 
L 364.669091 200.590747 
L 367.374546 200.99498 
L 368.727273 201.371562 
L 371.432728 202.538902 
L 372.785455 203.249848 
L 375.490909 205.084363 
L 378.196364 207.32434 
L 380.901818 210.001813 
L 383.607273 213.224061 
L 387.665455 218.911567 
L 390.370909 223.090709 
L 394.429091 229.971302 
L 397.134545 234.890004 
L 398.487273 237.484272 
L 398.487273 237.484272 
" style="fill:none;stroke:#9467bd;stroke-linecap:square;stroke-width:1.5;"/>
   </g>
   <g id="patch_3">
    <path d="M 57.6 307.584 
L 57.6 41.472 
" style="fill:none;stroke:#000000;stroke-linecap:square;stroke-linejoin:miter;stroke-width:0.8;"/>
   </g>
   <g id="patch_4">
    <path d="M 414.72 307.584 
L 414.72 41.472 
" style="fill:none;stroke:#000000;stroke-linecap:square;stroke-linejoin:miter;stroke-width:0.8;"/>
   </g>
   <g id="patch_5">
    <path d="M 57.6 307.584 
L 414.72 307.584 
" style="fill:none;stroke:#000000;stroke-linecap:square;stroke-linejoin:miter;stroke-width:0.8;"/>
   </g>
   <g id="patch_6">
    <path d="M 57.6 41.472 
L 414.72 41.472 
" style="fill:none;stroke:#000000;stroke-linecap:square;stroke-linejoin:miter;stroke-width:0.8;"/>
   </g>
   <g id="legend_1">
    <g id="patch_7">
     <path d="M 216.97875 302.584 
L 255.34125 302.584 
Q 257.34125 302.584 257.34125 300.584 
L 257.34125 228.193375 
Q 257.34125 226.193375 255.34125 226.193375 
L 216.97875 226.193375 
Q 214.97875 226.193375 214.97875 228.193375 
L 214.97875 300.584 
Q 214.97875 302.584 216.97875 302.584 
z
" style="fill:#ffffff;opacity:0.8;stroke:#cccccc;stroke-linejoin:miter;"/>
    </g>
    <g id="line2d_68">
     <path d="M 218.97875 234.291812 
L 238.97875 234.291812 
" style="fill:none;stroke:#1f77b4;stroke-linecap:square;stroke-width:1.5;"/>
    </g>
    <g id="line2d_69"/>
    <g id="text_14">
     <!-- 3 -->
     <g transform="translate(246.97875 237.791812)scale(0.1 -0.1)">
      <use xlink:href="#DejaVuSans-51"/>
     </g>
    </g>
    <g id="line2d_70">
     <path d="M 218.97875 248.969937 
L 238.97875 248.969937 
" style="fill:none;stroke:#ff7f0e;stroke-linecap:square;stroke-width:1.5;"/>
    </g>
    <g id="line2d_71"/>
    <g id="text_15">
     <!-- 4 -->
     <g transform="translate(246.97875 252.469937)scale(0.1 -0.1)">
      <use xlink:href="#DejaVuSans-52"/>
     </g>
    </g>
    <g id="line2d_72">
     <path d="M 218.97875 263.648062 
L 238.97875 263.648062 
" style="fill:none;stroke:#2ca02c;stroke-linecap:square;stroke-width:1.5;"/>
    </g>
    <g id="line2d_73"/>
    <g id="text_16">
     <!-- 5 -->
     <g transform="translate(246.97875 267.148062)scale(0.1 -0.1)">
      <use xlink:href="#DejaVuSans-53"/>
     </g>
    </g>
    <g id="line2d_74">
     <path d="M 218.97875 278.326188 
L 238.97875 278.326188 
" style="fill:none;stroke:#d62728;stroke-linecap:square;stroke-width:1.5;"/>
    </g>
    <g id="line2d_75"/>
    <g id="text_17">
     <!-- 6 -->
     <g transform="translate(246.97875 281.826188)scale(0.1 -0.1)">
      <defs>
       <path d="M 33.015625 40.375 
Q 26.375 40.375 22.484375 35.828125 
Q 18.609375 31.296875 18.609375 23.390625 
Q 18.609375 15.53125 22.484375 10.953125 
Q 26.375 6.390625 33.015625 6.390625 
Q 39.65625 6.390625 43.53125 10.953125 
Q 47.40625 15.53125 47.40625 23.390625 
Q 47.40625 31.296875 43.53125 35.828125 
Q 39.65625 40.375 33.015625 40.375 
z
M 52.59375 71.296875 
L 52.59375 62.3125 
Q 48.875 64.0625 45.09375 64.984375 
Q 41.3125 65.921875 37.59375 65.921875 
Q 27.828125 65.921875 22.671875 59.328125 
Q 17.53125 52.734375 16.796875 39.40625 
Q 19.671875 43.65625 24.015625 45.921875 
Q 28.375 48.1875 33.59375 48.1875 
Q 44.578125 48.1875 50.953125 41.515625 
Q 57.328125 34.859375 57.328125 23.390625 
Q 57.328125 12.15625 50.6875 5.359375 
Q 44.046875 -1.421875 33.015625 -1.421875 
Q 20.359375 -1.421875 13.671875 8.265625 
Q 6.984375 17.96875 6.984375 36.375 
Q 6.984375 53.65625 15.1875 63.9375 
Q 23.390625 74.21875 37.203125 74.21875 
Q 40.921875 74.21875 44.703125 73.484375 
Q 48.484375 72.75 52.59375 71.296875 
z
" id="DejaVuSans-54"/>
      </defs>
      <use xlink:href="#DejaVuSans-54"/>
     </g>
    </g>
    <g id="line2d_76">
     <path d="M 218.97875 293.004312 
L 238.97875 293.004312 
" style="fill:none;stroke:#9467bd;stroke-linecap:square;stroke-width:1.5;"/>
    </g>
    <g id="line2d_77"/>
    <g id="text_18">
     <!-- 7 -->
     <g transform="translate(246.97875 296.504312)scale(0.1 -0.1)">
      <defs>
       <path d="M 8.203125 72.90625 
L 55.078125 72.90625 
L 55.078125 68.703125 
L 28.609375 0 
L 18.3125 0 
L 43.21875 64.59375 
L 8.203125 64.59375 
z
" id="DejaVuSans-55"/>
      </defs>
      <use xlink:href="#DejaVuSans-55"/>
     </g>
    </g>
   </g>
  </g>
 </g>
 <defs>
  <clipPath id="p3f2cfeb30a">
   <rect height="266.112" width="357.12" x="57.6" y="41.472"/>
  </clipPath>
 </defs>
</svg>
