<?xml version="1.0" standalone="no"?>
<!DOCTYPE svg PUBLIC "-//W3C//DTD SVG 20010904//EN"
 "http://www.w3.org/TR/2001/REC-SVG-20010904/DTD/svg10.dtd">
<svg version="1.0" xmlns="http://www.w3.org/2000/svg"
 width="2585.000000pt" height="1390.000000pt" viewBox="0 0 2585.000000 1390.000000"
 preserveAspectRatio="xMidYMid meet">
<metadata>
Created by potrace 1.16, written by Peter Selinger 2001-2019
</metadata>
<g transform="translate(0.000000,1390.000000) scale(0.100000,-0.100000)"
fill="#000000" stroke="none">
<path d="M6950 13570 c0 -27 3 -30 30 -30 27 0 30 3 30 30 0 27 -3 30 -30 30
-27 0 -30 -3 -30 -30z"/>
<path d="M18444 13591 c-100 -25 -156 -118 -138 -231 20 -121 159 -186 282
-130 l42 19 0 86 0 86 -67 -3 c-62 -3 -68 -5 -71 -25 -3 -21 1 -23 37 -23 l41
0 0 -49 c0 -55 -7 -61 -72 -61 -88 0 -130 44 -131 138 -1 60 17 106 50 128 37
24 111 22 161 -4 l42 -22 0 31 c0 25 -6 32 -32 43 -45 19 -107 26 -144 17z"/>
<path d="M19102 13590 c-68 -16 -102 -74 -82 -136 13 -39 45 -59 120 -75 78
-17 103 -56 60 -99 -25 -25 -94 -27 -147 -5 -45 19 -43 20 -43 -11 0 -32 48
-54 120 -54 71 0 116 21 137 64 35 75 -15 147 -113 162 -61 9 -89 33 -80 67 9
38 66 52 132 32 27 -8 50 -15 52 -15 1 0 2 11 2 25 0 17 -7 28 -22 34 -39 15
-102 20 -136 11z"/>
<path d="M20110 13410 l0 -190 30 0 30 0 0 190 0 190 -30 0 -30 0 0 -190z"/>
<path d="M21660 13570 c0 -25 4 -30 25 -30 21 0 25 5 25 30 0 25 -4 30 -25 30
-21 0 -25 -5 -25 -30z"/>
<path d="M22100 13410 l0 -190 30 0 30 0 0 190 0 190 -30 0 -30 0 0 -190z"/>
<path d="M6677 13583 c-4 -3 -7 -87 -7 -185 l0 -178 120 0 120 0 0 25 c0 25
-1 25 -90 25 l-90 0 0 160 0 160 -23 0 c-13 0 -27 -3 -30 -7z"/>
<path d="M7410 13406 l0 -186 115 0 115 0 0 25 c0 25 -1 25 -85 25 l-84 0 -3
158 -3 157 -27 3 -28 3 0 -185z"/>
<path d="M17627 13583 c-4 -3 -7 -87 -7 -185 l0 -178 126 0 c124 0 125 0 122
23 -3 21 -8 22 -95 25 l-93 3 0 59 0 60 91 0 c88 0 90 1 87 23 -3 21 -8 22
-90 25 l-88 3 0 49 0 50 90 0 c89 0 90 0 90 25 l0 25 -113 0 c-63 0 -117 -3
-120 -7z"/>
<path d="M17940 13406 l0 -186 93 0 c161 0 217 48 217 186 0 57 -4 78 -23 104
-37 56 -76 73 -188 78 l-99 5 0 -187z m173 123 c51 -14 77 -57 77 -126 0 -98
-36 -133 -135 -133 l-55 0 0 135 0 135 38 0 c20 0 54 -5 75 -11z"/>
<path d="M18717 13583 c-4 -3 -7 -87 -7 -185 l0 -178 126 0 c124 0 125 0 122
23 -3 21 -8 22 -95 25 l-93 3 0 59 0 60 91 0 c88 0 90 1 87 23 -3 21 -8 22
-90 25 l-88 3 0 49 0 50 90 0 c89 0 90 0 90 25 l0 25 -113 0 c-63 0 -117 -3
-120 -7z"/>
<path d="M19507 13583 c-4 -3 -7 -87 -7 -185 l0 -178 30 0 30 0 0 70 0 70 38
0 c20 0 54 5 75 11 95 26 103 167 12 205 -35 14 -166 20 -178 7z m158 -57 c22
-15 26 -79 8 -97 -7 -7 -35 -14 -62 -17 l-51 -5 0 67 0 66 43 0 c24 0 52 -6
62 -14z"/>
<path d="M6957 13494 c-4 -4 -7 -67 -7 -141 l0 -133 30 0 31 0 -3 138 c-3 129
-4 137 -23 140 -12 2 -24 0 -28 -4z"/>
<path d="M7097 13493 c-4 -3 -7 -66 -7 -140 l0 -133 30 0 30 0 0 98 c0 53 4
102 8 109 4 6 20 17 36 23 23 8 34 7 52 -5 23 -15 24 -21 24 -120 l0 -105 30
0 30 0 0 95 c0 104 -15 156 -48 174 -31 16 -97 14 -113 -5 -11 -14 -13 -14
-21 0 -9 16 -39 22 -51 9z"/>
<path d="M7718 13477 c-34 -28 -48 -64 -48 -126 0 -153 192 -197 245 -57 25
65 14 129 -30 173 -29 29 -39 33 -86 33 -41 0 -61 -5 -81 -23z m122 -35 c37
-30 40 -131 4 -166 -24 -24 -81 -21 -98 7 -28 43 -24 120 9 152 29 29 55 32
85 7z"/>
<path d="M8012 13466 c-54 -61 -52 -159 4 -218 23 -23 36 -28 73 -28 27 0 51
6 63 17 17 15 18 15 18 -10 0 -56 -66 -83 -134 -57 -24 9 -26 8 -26 -20 0 -26
4 -29 44 -35 54 -9 97 0 130 26 34 27 48 100 44 239 -3 104 -5 115 -22 118
-11 3 -25 -3 -32 -12 -10 -14 -13 -15 -24 -1 -8 10 -30 15 -60 15 -42 0 -52
-4 -78 -34z m133 -31 c20 -19 25 -34 25 -75 0 -41 -5 -56 -25 -75 -13 -14 -33
-25 -45 -25 -11 0 -32 11 -45 25 -20 19 -25 34 -25 75 0 41 5 56 25 75 13 14
34 25 45 25 12 0 32 -11 45 -25z"/>
<path d="M19838 13477 c-34 -28 -48 -64 -48 -126 0 -153 192 -197 245 -57 25
65 14 129 -30 173 -29 29 -39 33 -86 33 -41 0 -61 -5 -81 -23z m122 -35 c37
-30 40 -131 4 -166 -24 -24 -81 -21 -98 7 -28 43 -24 120 9 152 29 29 55 32
85 7z"/>
<path d="M20220 13491 c0 -6 23 -65 50 -132 28 -67 50 -129 50 -138 0 -28 -30
-61 -56 -61 -19 0 -24 -5 -24 -25 0 -22 4 -25 35 -25 54 0 75 31 149 216 36
90 66 167 66 170 0 3 -12 4 -27 2 -25 -3 -32 -13 -67 -100 -22 -54 -42 -95
-45 -92 -3 3 -22 47 -42 97 -32 80 -40 92 -63 95 -14 2 -26 -1 -26 -7z"/>
<path d="M20550 13360 l0 -140 25 0 c25 0 25 0 25 94 0 110 14 139 70 139 50
0 60 -21 60 -135 0 -98 0 -98 25 -98 l25 0 0 105 c0 110 -12 156 -45 169 -30
11 -90 6 -113 -10 -20 -14 -22 -14 -22 0 0 10 -9 16 -25 16 l-25 0 0 -140z"/>
<path d="M20891 13474 c-71 -60 -60 -208 19 -249 94 -48 190 18 190 132 0 96
-42 143 -129 143 -39 0 -56 -6 -80 -26z m125 -38 c24 -20 28 -31 28 -73 0 -67
-23 -103 -67 -103 -38 0 -50 7 -66 37 -25 49 -3 146 36 156 34 9 42 7 69 -17z"/>
<path d="M21170 13360 l0 -140 25 0 c25 0 25 1 25 91 0 50 5 99 11 110 16 31
57 43 85 24 23 -15 24 -21 24 -120 l0 -105 30 0 30 0 0 98 c0 82 3 102 18 114
31 28 59 31 81 9 18 -18 21 -34 21 -121 l0 -100 25 0 25 0 0 105 c0 147 -16
175 -99 175 -27 0 -44 -7 -60 -24 l-22 -24 -24 24 c-29 28 -88 32 -123 8 -20
-14 -22 -14 -22 0 0 10 -9 16 -25 16 l-25 0 0 -140z"/>
<path d="M21660 13360 l0 -140 25 0 25 0 0 140 0 140 -25 0 -25 0 0 -140z"/>
<path d="M21818 13493 c-11 -3 -18 -14 -18 -30 0 -22 3 -24 23 -19 73 22 128
11 135 -27 3 -14 -4 -17 -35 -17 -57 0 -110 -18 -128 -43 -24 -34 -19 -94 10
-122 28 -29 84 -33 128 -11 15 8 27 11 27 5 0 -5 14 -9 30 -9 l30 0 0 78 c-1
157 -30 203 -128 201 -31 -1 -65 -3 -74 -6z m142 -159 c0 -19 -19 -56 -34 -66
-17 -12 -71 -9 -84 4 -18 18 -15 55 6 67 9 6 38 11 65 11 36 0 47 -4 47 -16z"/>
<path d="M1957 12983 c-15 -15 -5 -23 28 -23 l35 0 0 -175 0 -175 -65 0 c-58
0 -65 -2 -65 -20 0 -18 7 -20 65 -20 l65 0 0 -175 0 -175 -36 0 c-45 0 -42
-24 4 -28 l32 -3 0 -170 0 -169 -65 0 c-58 0 -65 -2 -65 -20 0 -18 7 -20 65
-20 l65 0 0 -175 0 -175 -35 0 c-24 0 -35 -5 -35 -15 0 -10 11 -15 35 -15 l35
0 0 -175 0 -175 -65 0 c-58 0 -65 -2 -65 -20 0 -18 7 -20 65 -20 l65 0 0 -170
0 -170 -35 0 c-24 0 -35 -5 -35 -15 0 -10 11 -15 35 -15 l35 0 0 -175 0 -175
-65 0 c-58 0 -65 -2 -65 -20 0 -18 7 -20 65 -20 l65 0 0 -169 0 -170 -32 -3
c-46 -4 -49 -28 -4 -28 l36 0 0 -175 0 -175 -65 0 c-58 0 -65 -2 -65 -20 0
-18 7 -20 65 -20 l65 0 0 -66 c0 -57 2 -65 18 -62 14 3 18 16 20 66 l3 62 429
0 430 0 0 -65 c0 -58 2 -65 20 -65 18 0 20 7 20 65 l0 65 430 0 430 0 0 -65
c0 -58 2 -65 20 -65 18 0 20 7 20 65 l0 65 430 0 430 0 0 -65 c0 -58 2 -65 20
-65 18 0 20 7 20 65 l0 65 430 0 429 0 3 -62 c2 -50 6 -63 21 -66 15 -3 17 5
17 62 l0 66 430 0 429 0 3 -62 c2 -50 6 -63 21 -66 15 -3 17 5 17 62 l0 66
435 0 435 0 0 -65 c0 -51 3 -65 15 -65 12 0 15 14 15 65 l0 65 435 0 435 0 0
-65 c0 -51 3 -65 15 -65 12 0 15 14 15 65 l0 65 435 0 435 0 0 -66 c0 -57 2
-65 18 -62 14 3 18 16 20 66 l3 62 429 0 430 0 0 -66 c0 -57 2 -65 18 -62 14
3 18 16 20 66 l3 62 429 0 430 0 0 -65 c0 -58 2 -65 20 -65 18 0 20 7 20 65
l0 65 430 0 430 0 0 -65 c0 -58 2 -65 20 -65 18 0 20 7 20 65 l0 65 430 0 430
0 0 -65 c0 -58 2 -65 20 -65 20 0 20 7 20 1800 l0 1800 -5453 0 c-3000 0
-5457 -3 -5460 -7z m10873 -290 l0 -257 -70 -157 c-106 -238 -182 -442 -297
-794 -58 -176 -107 -327 -110 -335 -4 -12 -7 -11 -14 5 -4 11 -43 101 -85 200
-291 687 -519 938 -768 845 -72 -27 -179 -127 -246 -228 -66 -101 -174 -313
-244 -482 -31 -74 -63 -148 -70 -165 -20 -44 -72 -199 -236 -700 -81 -247
-151 -448 -156 -445 -17 8 -121 138 -225 280 l-104 142 -13 -32 c-13 -31 -11
-34 75 -152 48 -66 125 -165 170 -219 l82 -99 -75 -222 c-42 -123 -80 -227
-85 -232 -5 -6 -11 -2 -15 10 -26 71 -125 286 -172 369 -84 151 -137 225 -203
281 -134 115 -215 132 -483 101 -145 -17 -180 -18 -228 -8 -32 7 -58 15 -58
19 0 15 240 300 291 346 150 135 252 161 379 96 49 -25 145 -113 212 -196 47
-59 54 -63 65 -48 7 10 13 26 13 36 0 29 -207 232 -270 264 -48 25 -66 29
-145 29 -79 0 -97 -4 -147 -29 -81 -41 -207 -162 -343 -330 -64 -80 -120 -146
-124 -146 -15 0 -126 62 -164 92 -23 18 -100 82 -172 143 -177 151 -227 187
-320 232 -76 36 -85 38 -180 38 -120 0 -167 -18 -284 -106 -99 -74 -154 -127
-284 -281 -60 -71 -110 -128 -112 -128 -1 0 -28 11 -60 25 -104 47 -202 68
-305 68 -107 0 -140 -11 -176 -59 l-24 -30 68 17 c83 22 156 23 247 4 80 -17
205 -63 205 -75 0 -19 -255 -303 -361 -403 -201 -188 -418 -350 -486 -363 -32
-6 -107 24 -223 91 -34 19 -188 82 -222 90 -16 4 -28 10 -28 14 0 4 32 34 72
66 39 32 153 132 254 221 100 89 219 188 263 219 68 47 176 155 157 155 -14 0
-114 -54 -171 -93 -74 -49 -123 -90 -345 -287 -96 -85 -199 -175 -228 -199
-41 -33 -50 -46 -42 -57 10 -10 5 -11 -27 -2 -21 6 -108 12 -193 12 -182 0
-233 -11 -463 -98 l-147 -56 -213 96 c-116 53 -234 104 -262 114 -234 87 -418
61 -581 -82 -30 -26 -60 -48 -65 -48 -11 0 -183 113 -214 141 -11 9 -40 28
-63 41 -39 20 -48 33 -78 103 -75 171 -184 463 -384 1025 -114 322 -237 662
-273 755 -190 494 -342 781 -496 936 -90 90 -155 123 -246 124 -86 0 -155 -29
-233 -100 -53 -48 -153 -179 -191 -252 l-20 -38 -1 223 0 222 5385 0 5385 0 0
-257z m-10233 123 c125 -59 266 -252 415 -571 113 -241 188 -436 458 -1195
187 -526 310 -858 369 -992 11 -27 19 -48 17 -48 -2 0 -23 7 -47 16 -61 21
-193 29 -258 15 -132 -28 -274 -125 -463 -314 -70 -70 -133 -127 -140 -127 -8
0 -36 19 -63 42 -84 70 -195 138 -253 154 -125 37 -241 -2 -364 -120 l-66 -64
-24 27 c-14 15 -46 64 -71 110 l-47 83 0 1278 0 1278 47 83 c175 312 329 420
490 345z m10233 -1708 c-1 -1046 -2 -1170 -16 -1145 -29 53 -125 289 -278 683
l-155 401 93 289 c101 311 140 427 206 599 49 128 141 345 146 345 2 0 4 -528
4 -1172z m-1153 1028 c130 -61 281 -273 443 -624 89 -194 190 -445 190 -473 0
-26 -171 -564 -265 -832 -83 -239 -115 -323 -164 -436 -39 -90 -40 -94 -25
-123 9 -17 19 -26 23 -22 13 15 106 241 164 399 61 165 297 884 297 903 0 44
33 -28 150 -330 153 -396 212 -538 286 -697 l54 -114 0 -113 0 -114 -498 0
-498 0 -37 76 c-90 181 -205 318 -317 374 -97 50 -184 52 -370 11 -164 -37
-271 -42 -340 -17 -52 19 -127 66 -158 98 l-21 23 138 425 c151 465 208 631
239 700 11 25 25 63 32 85 21 70 129 316 184 420 139 266 276 405 401 405 22
0 63 -11 92 -24z m-3263 -1267 c68 -25 145 -76 256 -170 272 -228 330 -274
373 -293 l48 -22 -64 -74 c-273 -319 -492 -390 -782 -256 -38 18 -160 89 -270
158 -110 68 -221 137 -247 152 -27 15 -48 31 -48 35 0 13 129 162 229 264 107
110 198 180 269 208 65 25 166 25 236 -2z m766 -439 c8 -5 11 -10 5 -10 -5 0
-17 5 -25 10 -8 5 -10 10 -5 10 6 0 17 -5 25 -10z m646 -100 c58 -28 102 -68
196 -179 49 -58 143 -234 218 -406 34 -78 72 -150 86 -162 l25 -23 -1785 0
c-982 0 -1786 2 -1786 4 0 2 21 17 48 32 192 112 474 365 696 626 l108 127 32
-16 c17 -9 132 -79 256 -156 249 -155 334 -199 447 -228 257 -65 483 48 750
375 l31 38 56 -17 c61 -19 149 -17 336 10 129 18 210 11 286 -25z m815 -323
c130 -86 243 -98 464 -47 144 34 239 40 300 20 90 -29 187 -120 273 -254 31
-49 69 -103 85 -121 15 -18 27 -35 27 -39 0 -3 -313 -6 -696 -6 -553 0 -695 3
-691 13 2 6 40 117 83 244 44 128 82 233 85 233 4 0 35 -19 70 -43z m-6878
-33 c72 -19 136 -49 144 -69 3 -8 11 -15 19 -15 7 0 25 -5 39 -12 l25 -11 -20
-22 -21 -23 31 -66 c17 -36 49 -93 71 -126 38 -56 43 -60 78 -60 33 0 45 7 90
55 l52 55 28 -19 c15 -11 60 -38 101 -60 l75 -41 -735 0 -735 0 55 53 c30 28
105 98 165 155 210 198 356 253 538 206z m1072 -109 c78 -27 455 -197 455
-205 0 -9 -65 -34 -132 -52 -37 -9 -77 -9 -195 1 -130 11 -163 11 -269 -4
-118 -16 -121 -16 -174 5 -60 24 -186 95 -196 111 -15 24 105 116 196 149 46
17 72 20 160 16 63 -2 125 -11 155 -21z m-698 -94 l82 -55 -31 -39 c-42 -52
-57 -56 -84 -22 -23 29 -104 184 -104 199 0 9 15 0 137 -83z m1947 4 c-2 -15
-128 -80 -203 -105 -36 -12 -96 -25 -133 -29 -70 -7 -237 4 -250 17 -11 11
195 89 294 112 90 20 294 24 292 5z m136 -30 c24 -8 55 -17 69 -20 14 -2 62
-22 106 -43 44 -22 118 -57 165 -80 l85 -41 -710 0 -710 0 75 30 c80 33 87 33
215 5 98 -22 235 -20 329 4 82 21 213 80 286 129 25 16 46 30 46 30 1 1 21 -6
44 -14z m-3554 -28 c48 -24 214 -143 214 -153 0 -2 -142 -4 -316 -4 l-315 0
41 49 c47 55 117 108 169 128 53 20 146 11 207 -20z m-562 -89 l38 -68 -41 0
-41 0 0 72 c0 39 2 69 4 67 1 -2 20 -34 40 -71z"/>
<path d="M6590 12586 l0 -186 115 0 115 0 0 25 c0 25 -1 25 -85 25 l-84 0 -3
158 -3 157 -27 3 -28 3 0 -185z"/>
<path d="M6888 12673 c-11 -3 -18 -14 -18 -30 0 -22 3 -24 23 -19 73 22 128
11 135 -27 3 -14 -4 -17 -35 -17 -57 0 -110 -18 -128 -43 -24 -34 -19 -94 10
-122 28 -29 84 -33 128 -11 15 8 27 11 27 5 0 -5 14 -9 30 -9 l30 0 0 78 c-1
157 -30 203 -128 201 -31 -1 -65 -3 -74 -6z m142 -159 c0 -19 -19 -56 -34 -66
-17 -12 -71 -9 -84 4 -18 18 -15 55 6 67 9 6 38 11 65 11 36 0 47 -4 47 -16z"/>
<path d="M7177 12673 c-4 -3 -7 -66 -7 -140 l0 -133 30 0 30 0 0 98 c0 114 12
136 75 134 31 -1 35 2 35 23 0 22 -4 25 -38 25 -21 0 -43 -5 -50 -12 -9 -9
-15 -9 -24 0 -13 13 -41 16 -51 5z"/>
<path d="M7412 12664 c-33 -23 -52 -67 -52 -124 0 -57 19 -101 52 -124 29 -21
97 -20 127 1 24 16 24 16 17 -13 -13 -57 -66 -76 -146 -53 -10 3 -15 -3 -15
-20 0 -20 7 -27 35 -34 74 -19 148 11 171 70 5 13 9 89 9 169 l0 144 -25 0
c-16 0 -25 -6 -25 -16 0 -14 -2 -14 -22 0 -29 20 -97 20 -126 0z m117 -43 c46
-46 33 -155 -20 -173 -66 -22 -112 46 -89 133 16 57 72 77 109 40z"/>
<path d="M7738 12664 c-38 -20 -62 -70 -62 -130 0 -87 57 -144 145 -144 70 0
109 17 109 47 0 20 -4 24 -17 18 -10 -4 -44 -10 -75 -13 -51 -4 -59 -2 -82 21
-49 49 -38 57 74 57 114 0 118 3 100 68 -15 58 -59 92 -118 92 -26 -1 -59 -7
-74 -16z m117 -49 c39 -38 32 -45 -50 -45 l-75 0 11 24 c22 48 78 58 114 21z"/>
<path d="M14450 12860 l0 -130 -60 0 c-53 0 -60 -2 -60 -20 0 -18 7 -20 60
-20 l60 0 0 -180 0 -180 -30 0 c-20 0 -30 -5 -30 -15 0 -10 10 -15 30 -15 l30
0 0 -185 0 -185 -60 0 c-47 0 -60 -3 -60 -15 0 -12 13 -15 60 -15 l60 0 0
-185 0 -185 -30 0 c-20 0 -30 -5 -30 -15 0 -10 10 -15 30 -15 l30 0 0 -180 0
-180 -60 0 c-53 0 -60 -2 -60 -20 0 -18 7 -20 60 -20 l60 0 0 -180 0 -180 -30
0 c-20 0 -30 -5 -30 -15 0 -10 10 -15 30 -15 l30 0 0 -180 0 -180 -60 0 c-53
0 -60 -2 -60 -20 0 -18 7 -20 60 -20 l60 0 0 -180 0 -180 -30 0 c-20 0 -30 -5
-30 -15 0 -10 10 -15 30 -15 l30 0 0 -180 0 -180 -60 0 c-53 0 -60 -2 -60 -20
0 -18 7 -20 60 -20 l59 0 3 -62 c2 -50 6 -63 21 -66 15 -3 17 5 17 62 l0 66
435 0 435 0 0 -65 c0 -51 3 -65 15 -65 12 0 15 14 15 65 l0 65 435 0 435 0 0
-66 c0 -57 2 -65 18 -62 14 3 18 16 20 66 l3 62 429 0 430 0 0 -66 c0 -57 2
-65 18 -62 14 3 18 16 20 66 l3 62 429 0 430 0 0 -66 c0 -57 2 -65 18 -62 14
3 18 16 20 66 l3 62 429 0 430 0 0 -65 c0 -58 2 -65 20 -65 18 0 20 7 20 65
l0 65 430 0 430 0 0 -65 c0 -58 2 -65 20 -65 18 0 20 7 20 65 l0 65 430 0 429
0 3 -62 c2 -50 6 -63 21 -66 15 -3 17 5 17 62 l0 66 430 0 429 0 3 -62 c2 -50
6 -63 21 -66 15 -3 17 5 17 62 l0 66 430 0 429 0 3 -62 c2 -50 6 -63 21 -66
15 -3 17 5 17 62 l0 66 435 0 435 0 0 -65 c0 -51 3 -65 15 -65 12 0 15 14 15
65 l0 65 435 0 435 0 0 -66 c0 -57 2 -65 18 -62 14 3 18 16 20 66 l3 62 429 0
430 0 0 -66 c0 -57 2 -65 18 -62 16 3 17 98 20 1801 l2 1797 -5430 0 -5430 0
0 -130z m10820 -1045 l0 -1135 -82 -77 c-44 -43 -155 -167 -245 -275 -90 -109
-166 -198 -169 -198 -2 0 -79 76 -171 168 -221 221 -369 320 -558 374 -94 26
-257 31 -345 9 -73 -18 -209 -82 -273 -128 -150 -108 -203 -162 -410 -411 -65
-78 -124 -142 -131 -142 -7 0 -68 25 -137 56 -173 78 -266 114 -293 114 -12 0
-31 -9 -40 -19 -17 -18 -15 -20 49 -40 37 -12 138 -54 226 -93 135 -60 157
-73 149 -87 -16 -29 -143 -166 -199 -215 -87 -77 -93 -77 -236 -11 -146 68
-271 101 -475 126 -166 21 -400 74 -514 117 l-48 19 128 6 c144 7 216 24 428
101 144 52 251 76 342 76 51 0 64 4 83 24 l23 24 -68 8 c-99 10 -228 -16 -424
-86 -238 -84 -296 -94 -510 -87 -176 7 -191 9 -360 62 -110 35 -315 45 -427
22 -68 -15 -197 -61 -305 -109 -25 -11 -53 -18 -61 -15 -19 7 -120 -19 -402
-105 -252 -76 -257 -77 -415 -43 -121 26 -339 38 -574 32 -123 -4 -235 -11
-248 -16 -12 -5 -59 -15 -103 -21 -44 -7 -178 -34 -298 -62 -325 -73 -306 -73
-527 7 -228 82 -371 127 -472 149 l-77 17 -48 -25 c-43 -23 -45 -25 -20 -26
87 -1 444 -104 589 -170 l43 -19 -50 4 c-301 28 -570 34 -692 15 -37 -6 -165
-28 -283 -50 -276 -50 -372 -60 -574 -60 -208 0 -300 18 -443 85 -28 14 -56
25 -61 25 -5 0 -58 23 -118 51 -229 107 -372 143 -512 129 -48 -5 -107 -16
-131 -25 -72 -25 -224 -113 -261 -150 -19 -19 -37 -35 -41 -35 -3 0 -7 209 -8
465 l-2 464 68 50 c230 169 445 193 673 75 158 -82 256 -169 690 -620 303
-314 378 -342 732 -270 97 20 187 36 200 36 12 1 48 14 78 31 l55 30 -100 -5
c-61 -2 -168 -18 -275 -40 -332 -70 -350 -59 -870 489 -332 351 -540 477 -790
478 -134 0 -277 -49 -402 -138 -26 -19 -50 -35 -53 -35 -3 0 -5 504 -5 1120
l0 1120 5390 0 5390 0 0 -1135z m-1289 -1189 c98 -21 211 -71 313 -140 89 -59
289 -244 387 -358 l50 -57 -31 -34 c-16 -19 -30 -37 -30 -39 0 -3 21 1 48 7
l47 13 40 -42 c23 -22 98 -109 167 -192 172 -205 202 -229 268 -206 24 9 30 8
30 -4 0 -12 -580 -14 -4517 -13 -2485 1 -4477 5 -4428 10 50 4 203 29 340 54
340 62 451 69 713 49 114 -9 275 -19 357 -23 112 -6 176 -15 254 -35 138 -36
218 -45 387 -46 284 0 647 51 1056 149 106 26 147 31 250 31 169 0 249 21 472
124 248 114 263 119 282 112 10 -4 123 -1 253 5 331 16 436 6 591 -56 221 -88
488 -153 765 -185 121 -15 191 -36 337 -101 126 -57 171 -63 233 -31 40 20
187 165 259 254 l37 47 42 -15 c93 -34 206 -54 303 -55 109 -1 160 6 371 51
79 16 162 30 185 30 l43 0 -32 32 -32 32 -173 -37 c-228 -49 -318 -60 -403
-52 -97 9 -255 48 -255 64 0 18 232 287 328 380 128 124 184 168 277 215 138
70 279 91 416 62z m1267 -978 c-32 -24 -42 -23 -84 14 -36 32 -200 224 -259
303 -16 22 -45 55 -63 73 -28 29 -31 36 -20 50 98 124 317 383 372 440 l71 73
3 -468 2 -468 -22 -17z m-4358 411 c9 -5 -44 -9 -125 -9 -77 0 -158 -3 -180
-7 -65 -10 -33 7 41 22 71 14 235 10 264 -6z m-896 -189 c-64 -30 -169 -61
-200 -59 -18 1 230 87 251 87 6 0 -17 -13 -51 -28z m-4908 -26 c109 -22 235
-68 339 -124 103 -55 332 -136 420 -149 38 -5 -205 -9 -647 -10 l-708 -1 0 24
c0 26 88 109 147 139 17 9 38 23 45 31 28 28 142 78 207 91 89 18 109 18 197
-1z m4073 -33 c9 -5 63 -12 120 -15 129 -8 155 -19 80 -35 -619 -135 -1025
-168 -1292 -105 -37 9 -67 18 -65 19 6 7 412 96 506 111 162 28 614 44 651 25z"/>
<path d="M18647 12589 c-68 -40 -72 -228 -6 -284 52 -43 120 -27 151 35 21 43
23 148 4 194 -8 18 -24 41 -37 50 -26 18 -85 21 -112 5z m93 -44 c18 -22 25
-135 10 -179 -13 -42 -52 -59 -77 -34 -35 36 -39 155 -7 206 17 25 55 29 74 7z"/>
<path d="M18890 12580 c-41 -41 -13 -110 45 -110 42 0 65 22 65 64 0 60 -68
88 -110 46z m68 -19 c8 -4 12 -19 10 -32 -4 -30 -51 -35 -56 -6 -8 39 15 58
46 38z"/>
<path d="M22395 12591 c-22 -4 -31 -13 -33 -30 -4 -22 -1 -24 32 -18 l36 6 0
-110 0 -109 -30 0 c-23 0 -30 -4 -30 -20 0 -19 7 -20 90 -20 83 0 90 1 90 20
0 16 -7 20 -35 20 l-35 0 0 135 0 135 -27 -1 c-16 -1 -41 -4 -58 -8z"/>
<path d="M22633 12590 c-13 -6 -23 -18 -23 -30 0 -23 1 -24 50 -9 50 15 88 5
96 -25 8 -34 -15 -72 -85 -141 -88 -86 -85 -95 39 -95 93 0 100 1 100 20 0 18
-7 20 -67 20 l-67 0 50 53 c28 28 58 63 68 77 44 67 -4 141 -92 139 -26 0 -57
-4 -69 -9z"/>
<path d="M22927 12589 c-68 -40 -72 -228 -6 -284 52 -43 120 -27 151 35 21 43
23 148 4 194 -8 18 -24 41 -37 50 -26 18 -85 21 -112 5z m93 -44 c18 -22 25
-135 10 -179 -13 -42 -52 -59 -77 -34 -35 36 -39 155 -7 206 17 25 55 29 74 7z"/>
<path d="M23175 12580 c-39 -43 -9 -110 50 -110 18 0 39 8 48 18 22 25 21 75
-1 95 -25 23 -75 21 -97 -3z m79 -32 c8 -14 7 -21 -6 -34 -30 -30 -75 9 -48
42 16 18 39 15 54 -8z"/>
<path d="M17631 12468 c-21 -110 -23 -126 -11 -148 6 -12 25 -26 41 -32 27 -9
29 -13 23 -49 -6 -34 -4 -39 13 -39 16 0 22 9 27 38 5 34 11 41 45 54 50 20
71 53 87 136 17 89 17 92 -6 92 -11 0 -20 -2 -20 -4 0 -2 -7 -39 -15 -82 -14
-76 -35 -114 -62 -114 -16 0 -16 -4 6 103 16 76 17 89 4 94 -23 9 -29 -6 -48
-105 -14 -75 -21 -92 -34 -90 -12 3 -16 16 -16 58 0 30 4 74 9 98 7 38 6 42
-12 42 -17 0 -23 -10 -31 -52z"/>
<path d="M21381 12468 c-21 -110 -23 -126 -11 -148 6 -12 25 -26 41 -32 27 -9
29 -13 23 -49 -6 -34 -4 -39 13 -39 16 0 22 9 27 38 5 34 11 41 45 54 50 20
71 53 87 136 17 89 17 92 -6 92 -11 0 -20 -2 -20 -4 0 -2 -7 -39 -15 -82 -14
-76 -35 -114 -62 -114 -16 0 -16 -4 6 103 16 76 17 89 4 94 -23 9 -29 -6 -48
-105 -14 -75 -21 -92 -34 -90 -12 3 -16 16 -16 58 0 30 4 74 9 98 7 38 6 42
-12 42 -17 0 -23 -10 -31 -52z"/>
<path d="M18180 12460 c0 -20 5 -20 132 -18 117 3 133 5 136 21 3 15 -8 17
-132 17 -130 0 -136 -1 -136 -20z"/>
<path d="M21930 12460 c0 -20 5 -20 132 -18 117 3 133 5 136 21 3 15 -8 17
-132 17 -130 0 -136 -1 -136 -20z"/>
<path d="M16390 12410 l0 -30 445 0 445 0 0 30 0 30 -445 0 -445 0 0 -30z"/>
<path d="M17911 12421 c-24 -24 -36 -79 -28 -129 8 -48 50 -86 86 -77 45 10
61 40 61 112 0 55 -4 67 -25 88 -29 30 -68 32 -94 6z m83 -59 c10 -50 -1 -100
-27 -116 -27 -16 -47 17 -47 77 0 61 14 89 43 85 17 -2 24 -13 31 -46z"/>
<path d="M20140 12410 l0 -30 445 0 445 0 0 30 0 30 -445 0 -445 0 0 -30z"/>
<path d="M21661 12421 c-24 -24 -36 -79 -28 -129 8 -48 50 -86 86 -77 45 10
61 40 61 112 0 55 -4 67 -25 88 -29 30 -68 32 -94 6z m83 -59 c10 -50 -1 -100
-27 -116 -27 -16 -47 17 -47 77 0 61 14 89 43 85 17 -2 24 -13 31 -46z"/>
<path d="M18180 12380 c0 -19 7 -20 135 -20 128 0 135 1 135 20 0 19 -7 20
-135 20 -128 0 -135 -1 -135 -20z"/>
<path d="M21930 12380 c0 -19 7 -20 135 -20 128 0 135 1 135 20 0 19 -7 20
-135 20 -128 0 -135 -1 -135 -20z"/>
<path d="M18637 11919 c-23 -13 -47 -62 -47 -94 0 -34 25 -82 49 -95 25 -13
77 -13 100 0 15 8 17 6 13 -15 -9 -47 -61 -70 -122 -54 -9 2 -16 -4 -18 -17
-5 -36 65 -46 124 -18 84 40 101 226 26 285 -27 21 -95 25 -125 8z m97 -45 c9
-8 16 -31 16 -49 0 -61 -62 -89 -94 -43 -44 63 26 145 78 92z"/>
<path d="M18911 11914 c-33 -24 -51 -74 -51 -146 0 -73 22 -126 60 -145 100
-50 182 63 150 206 -16 69 -46 101 -97 101 -21 0 -49 -7 -62 -16z m93 -46 c31
-51 27 -171 -7 -205 -25 -26 -63 -9 -77 33 -15 44 -9 156 9 178 19 23 58 20
75 -6z"/>
<path d="M19155 11910 c-39 -43 -9 -110 50 -110 18 0 39 8 48 18 22 25 21 75
-1 95 -25 23 -75 21 -97 -3z m79 -32 c8 -14 7 -21 -6 -34 -30 -30 -75 9 -48
42 16 18 39 15 54 -8z"/>
<path d="M17640 11846 c0 -3 -7 -37 -15 -78 -20 -93 -13 -126 30 -144 32 -13
33 -16 28 -55 -5 -36 -4 -41 12 -38 11 3 22 19 29 43 9 32 17 41 43 48 55 14
72 47 98 191 6 33 5 37 -13 37 -17 0 -23 -10 -32 -57 -18 -91 -30 -122 -52
-134 -11 -6 -22 -9 -24 -7 -2 3 5 48 15 102 l18 97 -21 -3 c-17 -3 -23 -17
-39 -98 -10 -52 -20 -96 -22 -98 -1 -1 -10 1 -20 4 -15 6 -17 16 -11 73 3 36
9 78 12 94 5 23 3 27 -15 27 -11 0 -21 -2 -21 -4z"/>
<path d="M18180 11790 c0 -20 5 -20 132 -18 117 3 133 5 136 21 3 15 -8 17
-132 17 -130 0 -136 -1 -136 -20z"/>
<path d="M17911 11751 c-24 -24 -36 -79 -28 -129 8 -48 50 -86 86 -77 45 10
61 40 61 112 0 55 -4 67 -25 88 -29 30 -68 32 -94 6z m83 -59 c10 -50 -1 -100
-27 -116 -27 -16 -47 17 -47 77 0 61 14 89 43 85 17 -2 24 -13 31 -46z"/>
<path d="M18180 11710 c0 -19 7 -20 135 -20 128 0 135 1 135 20 0 19 -7 20
-135 20 -128 0 -135 -1 -135 -20z"/>
<path d="M23908 9957 c21 -22 48 -36 84 -44 29 -7 113 -42 186 -78 73 -36 138
-65 143 -65 6 0 20 8 33 17 22 17 21 18 -118 86 -136 66 -281 117 -334 117
l-26 0 32 -33z"/>
<path d="M24613 9904 c-64 -33 -210 -147 -196 -151 43 -15 184 71 241 145 30
39 22 40 -45 6z"/>
<path d="M13460 12851 c-16 -4 -26 -15 -28 -30 -3 -22 -1 -23 32 -17 l36 7 0
-110 0 -110 -32 -3 c-22 -2 -34 -9 -36 -20 -3 -16 7 -18 93 -18 86 0 96 2 93
18 -2 11 -14 18 -35 20 l-32 3 -3 132 -3 132 -30 2 c-16 1 -41 -2 -55 -6z"/>
<path d="M13698 12853 c-12 -3 -18 -14 -18 -33 l0 -29 35 15 c51 21 82 18 100
-10 21 -32 12 -49 -72 -140 -34 -38 -63 -77 -63 -87 0 -17 9 -19 101 -19 90 0
100 2 97 18 -3 14 -16 18 -66 20 -34 2 -62 6 -62 10 0 4 25 32 55 62 81 80 93
142 33 184 -21 15 -98 20 -140 9z"/>
<path d="M13991 12844 c-33 -24 -51 -74 -51 -146 0 -73 22 -126 60 -145 100
-50 182 63 150 206 -16 69 -46 101 -97 101 -21 0 -49 -7 -62 -16z m93 -46 c31
-51 27 -171 -7 -205 -25 -26 -63 -9 -77 33 -15 44 -9 156 9 178 19 23 58 20
75 -6z"/>
<path d="M1005 12715 c-31 -30 -33 -75 -5 -100 20 -18 20 -19 1 -39 -27 -31
-34 -63 -20 -97 15 -37 55 -59 109 -59 85 0 133 96 75 150 -24 23 -24 23 -5
37 31 22 27 86 -6 112 -39 31 -117 29 -149 -4z m113 -24 c18 -11 11 -61 -9
-74 -9 -5 -28 -7 -42 -3 -31 7 -46 48 -27 71 14 16 57 20 78 6z m6 -137 c34
-33 9 -94 -38 -94 -34 0 -58 23 -58 55 0 49 62 74 96 39z"/>
<path d="M1291 12724 c-33 -24 -51 -74 -51 -146 0 -73 22 -126 60 -145 100
-50 182 63 150 206 -16 69 -46 101 -97 101 -21 0 -49 -7 -62 -16z m93 -46 c31
-51 27 -171 -7 -205 -25 -26 -63 -9 -77 33 -15 44 -9 156 9 178 19 23 58 20
75 -6z"/>
<path d="M1557 12729 c-68 -40 -72 -228 -6 -284 52 -43 120 -27 151 35 21 43
23 148 4 194 -8 18 -24 41 -37 50 -26 18 -85 21 -112 5z m93 -44 c18 -22 25
-135 10 -179 -13 -42 -52 -59 -77 -34 -35 36 -39 155 -7 206 17 25 55 29 74 7z"/>
<path d="M13717 12059 c-23 -13 -47 -62 -47 -94 0 -34 25 -82 49 -95 25 -13
77 -13 100 0 15 8 17 6 13 -15 -9 -47 -61 -70 -122 -54 -9 2 -16 -4 -18 -17
-5 -36 65 -46 124 -18 84 40 101 226 26 285 -27 21 -95 25 -125 8z m97 -45 c9
-8 16 -31 16 -49 0 -61 -62 -89 -94 -43 -44 63 26 145 78 92z"/>
<path d="M13991 12054 c-33 -24 -51 -74 -51 -146 0 -73 22 -126 60 -145 100
-50 182 63 150 206 -16 69 -46 101 -97 101 -21 0 -49 -7 -62 -16z m93 -46 c31
-51 27 -171 -7 -205 -25 -26 -63 -9 -77 33 -15 44 -9 156 9 178 19 23 58 20
75 -6z"/>
<path d="M1037 11960 c-43 -34 -60 -77 -60 -147 1 -104 48 -159 128 -149 53 6
85 43 85 96 0 87 -59 133 -137 106 -32 -10 -30 18 3 51 22 22 31 25 70 19 43
-5 45 -4 42 17 -3 19 -10 22 -54 25 -39 2 -56 -2 -77 -18z m93 -149 c15 -29
12 -77 -6 -95 -49 -50 -119 29 -80 89 21 31 70 34 86 6z"/>
<path d="M1291 11964 c-33 -24 -51 -74 -51 -146 0 -73 22 -126 60 -145 100
-50 182 63 150 206 -16 69 -46 101 -97 101 -21 0 -49 -7 -62 -16z m93 -46 c31
-51 27 -171 -7 -205 -25 -26 -63 -9 -77 33 -15 44 -9 156 9 178 19 23 58 20
75 -6z"/>
<path d="M1557 11969 c-68 -40 -72 -228 -6 -284 52 -43 120 -27 151 35 21 43
23 148 4 194 -8 18 -24 41 -37 50 -26 18 -85 21 -112 5z m93 -44 c18 -22 25
-135 10 -179 -13 -42 -52 -59 -77 -34 -35 36 -39 155 -7 206 17 25 55 29 74 7z"/>
<path d="M13737 11250 c-43 -34 -60 -77 -60 -147 1 -104 48 -159 128 -149 53
6 85 43 85 96 0 87 -59 133 -137 106 -32 -10 -30 18 3 51 22 22 31 25 70 19
43 -5 45 -4 42 17 -3 19 -10 22 -54 25 -39 2 -56 -2 -77 -18z m93 -149 c15
-29 12 -77 -6 -95 -49 -50 -119 29 -80 89 21 31 70 34 86 6z"/>
<path d="M13991 11254 c-33 -24 -51 -74 -51 -146 0 -73 22 -126 60 -145 100
-50 182 63 150 206 -16 69 -46 101 -97 101 -21 0 -49 -7 -62 -16z m93 -46 c31
-51 27 -171 -7 -205 -25 -26 -63 -9 -77 33 -15 44 -9 156 9 178 19 23 58 20
75 -6z"/>
<path d="M1033 11125 c-35 -53 -63 -106 -63 -120 0 -24 2 -25 65 -25 l65 0 0
-35 c0 -31 3 -35 25 -35 22 0 25 4 25 35 0 31 3 35 25 35 18 0 25 5 25 20 0
15 -7 20 -25 20 l-25 0 0 100 0 100 -27 0 c-24 0 -37 -14 -90 -95z m67 -40 l0
-65 -45 0 -45 0 42 65 c24 35 44 65 46 65 1 0 2 -29 2 -65z"/>
<path d="M1291 11204 c-33 -24 -51 -74 -51 -146 0 -73 22 -126 60 -145 100
-50 182 63 150 206 -16 69 -46 101 -97 101 -21 0 -49 -7 -62 -16z m93 -46 c31
-51 27 -171 -7 -205 -25 -26 -63 -9 -77 33 -15 44 -9 156 9 178 19 23 58 20
75 -6z"/>
<path d="M1557 11209 c-68 -40 -72 -228 -6 -284 52 -43 120 -27 151 35 21 43
23 148 4 194 -8 18 -24 41 -37 50 -26 18 -85 21 -112 5z m93 -44 c18 -22 25
-135 10 -179 -13 -42 -52 -59 -77 -34 -35 36 -39 155 -7 206 17 25 55 29 74 7z"/>
<path d="M13703 10473 c-7 -2 -13 -14 -13 -24 0 -18 5 -20 44 -14 53 8 83 0
91 -24 10 -33 -5 -50 -51 -57 -34 -5 -44 -10 -44 -25 0 -15 7 -19 35 -19 40 0
80 -32 71 -57 -3 -8 -6 -18 -6 -23 0 -13 -67 -32 -90 -26 -11 3 -29 9 -40 12
-16 4 -20 1 -20 -19 0 -19 6 -26 31 -31 55 -11 93 -7 127 14 54 33 64 97 21
136 -18 16 -18 17 1 42 33 41 22 84 -27 110 -21 12 -106 15 -130 5z"/>
<path d="M13991 10464 c-33 -24 -51 -74 -51 -146 0 -73 22 -126 60 -145 100
-50 182 63 150 206 -16 69 -46 101 -97 101 -21 0 -49 -7 -62 -16z m93 -46 c31
-51 27 -171 -7 -205 -25 -26 -63 -9 -77 33 -15 44 -9 156 9 178 19 23 58 20
75 -6z"/>
<path d="M998 10443 c-12 -3 -18 -14 -18 -33 l0 -29 35 15 c51 21 82 18 100
-10 21 -32 12 -49 -72 -140 -34 -38 -63 -77 -63 -87 0 -17 9 -19 101 -19 90 0
100 2 97 18 -3 14 -16 18 -66 20 -34 2 -62 6 -62 10 0 4 25 32 55 62 81 80 93
142 33 184 -21 15 -98 20 -140 9z"/>
<path d="M1291 10434 c-33 -24 -51 -74 -51 -146 0 -73 22 -126 60 -145 100
-50 182 63 150 206 -16 69 -46 101 -97 101 -21 0 -49 -7 -62 -16z m93 -46 c31
-51 27 -171 -7 -205 -25 -26 -63 -9 -77 33 -15 44 -9 156 9 178 19 23 58 20
75 -6z"/>
<path d="M1557 10439 c-68 -40 -72 -228 -6 -284 52 -43 120 -27 151 35 21 43
23 148 4 194 -8 18 -24 41 -37 50 -26 18 -85 21 -112 5z m93 -44 c18 -22 25
-135 10 -179 -13 -42 -52 -59 -77 -34 -35 36 -39 155 -7 206 17 25 55 29 74 7z"/>
<path d="M1557 9679 c-68 -40 -72 -228 -6 -284 52 -43 120 -27 151 35 21 43
23 148 4 194 -8 18 -24 41 -37 50 -26 18 -85 21 -112 5z m93 -44 c18 -22 25
-135 10 -179 -13 -42 -52 -59 -77 -34 -35 36 -39 155 -7 206 17 25 55 29 74 7z"/>
<path d="M13991 9674 c-33 -24 -51 -74 -51 -146 0 -73 22 -126 60 -145 100
-50 182 63 150 206 -16 69 -46 101 -97 101 -21 0 -49 -7 -62 -16z m93 -46 c31
-51 27 -171 -7 -205 -25 -26 -63 -9 -77 33 -15 44 -9 156 9 178 19 23 58 20
75 -6z"/>
<path d="M1950 9025 c0 -10 11 -15 35 -15 l35 0 0 -175 0 -175 -65 0 c-58 0
-65 -2 -65 -20 0 -18 7 -20 65 -20 l65 0 0 -169 0 -170 -32 -3 c-46 -4 -49
-28 -4 -28 l36 0 0 -175 0 -175 -65 0 c-58 0 -65 -2 -65 -20 0 -18 7 -20 65
-20 l65 0 0 -175 0 -175 -36 0 c-45 0 -42 -24 4 -28 l32 -3 0 -170 0 -169 -65
0 c-58 0 -65 -2 -65 -20 0 -18 7 -20 65 -20 l65 0 0 -175 0 -175 -35 0 c-24 0
-35 -5 -35 -15 0 -10 11 -15 35 -15 l35 0 0 -175 0 -175 -65 0 c-51 0 -65 -3
-65 -15 0 -12 14 -15 65 -15 l65 0 0 -175 0 -175 -35 0 c-24 0 -35 -5 -35 -15
0 -10 11 -15 35 -15 l35 0 0 -175 0 -175 -65 0 c-58 0 -65 -2 -65 -20 0 -18 7
-20 65 -20 l65 0 0 -66 c0 -57 2 -65 18 -62 14 3 18 16 20 66 l3 62 429 0 430
0 0 -66 c0 -57 2 -65 18 -62 14 3 18 16 20 66 l3 62 429 0 429 0 3 -62 c2 -48
7 -63 18 -63 11 0 16 15 18 63 l3 62 429 0 429 0 3 -62 c2 -50 6 -63 21 -66
15 -3 17 5 17 62 l0 66 430 0 429 0 3 -62 c2 -50 6 -63 21 -66 15 -3 17 5 17
62 l0 66 430 0 429 0 3 -62 c2 -50 6 -63 21 -66 15 -3 17 5 17 62 l0 66 435 0
435 0 0 -65 c0 -51 3 -65 15 -65 12 0 15 14 15 65 l0 65 435 0 435 0 0 -65 c0
-51 3 -65 15 -65 12 0 15 14 15 65 l0 65 435 0 435 0 0 -66 c0 -57 2 -65 18
-62 14 3 18 16 20 66 l3 62 429 0 430 0 0 -66 c0 -57 2 -65 18 -62 14 3 18 16
20 66 l3 62 429 0 429 0 3 -62 c2 -48 7 -63 18 -63 11 0 16 15 18 63 l3 62
429 0 429 0 3 -62 c2 -48 7 -63 18 -63 11 0 16 15 18 63 l3 62 429 0 429 0 3
-62 c2 -50 6 -63 21 -66 16 -3 17 88 17 1797 l0 1801 -5460 0 c-4847 0 -5460
-2 -5460 -15z m10880 -733 l0 -709 -55 -38 c-136 -93 -315 -341 -461 -637 -27
-54 -51 -98 -54 -98 -3 1 -34 37 -70 81 -182 226 -455 431 -655 495 -281 89
-481 -8 -695 -338 -44 -68 -83 -127 -88 -133 -4 -5 -43 -83 -87 -173 -61 -127
-82 -161 -94 -156 -68 27 -232 77 -295 90 -73 15 -79 15 -97 -2 -29 -26 -24
-44 12 -44 16 0 51 -5 77 -11 63 -15 264 -78 280 -88 10 -6 -14 -68 -103 -262
-135 -294 -260 -548 -280 -568 -7 -7 -17 -11 -23 -7 -5 3 -46 56 -90 119 -103
145 -237 286 -325 344 -72 47 -262 143 -284 143 -27 0 -11 20 63 79 192 155
334 227 496 252 52 8 76 17 89 33 10 11 14 25 10 29 -12 12 -160 -9 -233 -33
-130 -44 -248 -115 -418 -251 l-98 -79 -44 16 c-93 33 -458 132 -548 149 -185
34 -386 20 -541 -38 -77 -29 -276 -131 -304 -156 -48 -43 -459 -302 -555 -351
l-61 -31 -77 25 c-83 26 -218 56 -252 56 -11 0 -34 -10 -51 -22 l-29 -22 102
-17 c107 -18 219 -48 217 -58 -1 -9 -476 -241 -494 -241 -9 0 -43 19 -77 43
-33 23 -79 53 -103 67 -23 14 -91 54 -149 90 l-106 65 43 6 c23 3 137 14 252
24 194 17 213 20 249 44 l40 26 -59 3 c-33 2 -127 -4 -210 -12 -82 -9 -208
-20 -279 -26 l-128 -11 -88 30 c-128 45 -223 56 -341 41 -96 -13 -98 -13 -315
29 -334 64 -455 77 -585 63 -183 -19 -347 -89 -486 -208 l-54 -47 -97 31 c-53
17 -108 34 -122 38 -14 3 -29 10 -35 14 -5 4 -26 11 -45 14 -106 21 -133 31
-155 61 -13 16 -92 140 -175 274 -316 509 -500 755 -721 965 -230 219 -433
339 -630 374 -79 14 -95 14 -166 0 -43 -9 -86 -19 -95 -23 -17 -7 -18 30 -18
689 l0 696 5385 0 5385 0 0 -708z m-10410 -732 c267 -91 574 -358 860 -745
140 -190 518 -785 499 -785 -6 0 -94 25 -197 55 -384 112 -533 139 -688 124
-110 -10 -240 -52 -292 -94 -9 -7 -51 -41 -93 -74 -80 -63 -140 -128 -258
-278 -40 -51 -76 -93 -81 -93 -4 0 -31 36 -59 80 l-51 79 2 858 3 858 65 23
c81 28 192 25 290 -8z m10410 -852 l0 -803 -99 167 c-54 92 -107 182 -117 201
-26 48 -61 103 -195 306 l-117 176 77 150 c138 269 249 430 378 548 35 31 65
57 68 57 3 0 5 -361 5 -802z m-1352 632 c126 -35 260 -111 407 -230 81 -66
240 -230 304 -313 l44 -58 -128 -277 c-71 -152 -166 -355 -212 -451 l-83 -174
18 -29 18 -29 81 168 c45 92 138 292 208 443 70 151 130 279 135 284 11 11
260 -363 260 -392 0 -6 11 -23 23 -39 13 -15 81 -125 150 -244 l127 -215 0
-87 0 -87 -541 0 -541 0 16 25 c9 14 23 36 32 50 14 21 14 30 4 55 -7 17 -15
30 -19 30 -3 0 -17 -20 -30 -45 -13 -25 -29 -45 -35 -45 -6 0 -42 48 -81 107
-238 362 -453 540 -862 715 -68 29 -123 57 -123 63 0 17 100 218 124 250 13
16 32 51 43 76 32 73 137 223 211 301 145 154 274 197 450 148z m-723 -893
c409 -180 592 -333 843 -709 39 -59 80 -111 89 -117 13 -7 -219 -10 -751 -11
l-768 0 30 35 c33 37 187 345 328 657 49 109 94 197 99 198 6 0 64 -24 130
-53z m-1980 -16 c103 -21 501 -133 512 -145 4 -3 -1 -12 -9 -19 -112 -88 -218
-178 -217 -184 0 -5 10 -13 22 -20 24 -13 32 -7 189 124 47 40 91 73 96 73 6
0 47 -14 91 -31 87 -33 220 -109 272 -155 101 -90 204 -203 269 -295 40 -57
87 -119 104 -136 l30 -33 -1660 0 -1659 0 65 36 c109 60 412 204 428 204 9 0
94 -27 189 -60 271 -93 443 -120 646 -101 286 28 620 138 835 276 66 43 71 48
55 61 -27 21 -38 18 -121 -33 -157 -95 -366 -173 -589 -219 -167 -35 -398 -39
-538 -10 -74 15 -249 71 -375 118 -23 9 -18 13 68 63 51 30 189 118 307 195
119 77 232 147 252 155 21 9 45 22 53 30 23 20 123 68 188 90 149 49 311 54
497 16z m-5644 -291 c91 -18 203 -48 462 -122 l249 -72 25 -40 26 -40 21 25
c16 19 27 23 46 17 14 -3 72 -19 130 -34 115 -30 170 -50 170 -62 -1 -4 -32
-41 -70 -82 -68 -74 -68 -74 -90 -55 -11 10 -46 56 -77 102 -57 83 -57 83 -77
64 -24 -24 -22 -29 64 -148 l59 -83 -929 0 -930 0 84 108 c211 270 351 378
556 428 60 14 191 12 281 -6z m2124 -104 c176 -32 275 -52 281 -59 3 -3 -5 -8
-18 -12 -13 -4 -157 -74 -320 -156 -230 -115 -306 -149 -336 -149 -26 0 -98
25 -213 73 -96 41 -196 82 -223 92 l-49 19 29 23 c113 93 245 160 369 187 98
22 299 14 480 -18z m742 -102 c24 -18 50 -26 100 -31 52 -4 84 -14 133 -41 86
-46 216 -129 260 -164 19 -15 39 -28 45 -28 5 0 30 -14 55 -30 l45 -30 -850 0
-849 0 274 139 c151 77 317 154 369 172 l94 32 111 -17 c61 -10 120 -19 131
-21 15 -3 11 4 -15 26 l-35 30 50 -6 c29 -4 63 -17 82 -31z m-1495 -205 c83
-34 179 -74 212 -89 l61 -29 -308 0 -309 -1 83 90 c45 50 88 90 96 90 8 0 82
-28 165 -61z m-2384 -91 l26 -28 -42 0 -42 0 0 52 c0 52 0 52 17 28 9 -14 27
-37 41 -52z"/>
<path d="M6662 8820 c-68 -16 -102 -74 -82 -136 13 -39 45 -59 120 -75 78 -17
103 -56 60 -99 -25 -25 -94 -27 -147 -5 -45 19 -43 20 -43 -11 0 -32 48 -54
120 -54 71 0 116 21 137 64 35 75 -15 147 -113 162 -61 9 -89 33 -80 67 9 38
66 52 132 32 27 -8 50 -15 52 -15 1 0 2 11 2 25 0 17 -7 28 -22 34 -39 15
-102 20 -136 11z"/>
<path d="M7700 8640 l0 -190 25 0 25 0 0 190 0 190 -25 0 -25 0 0 -190z"/>
<path d="M7840 8640 l0 -190 25 0 25 0 0 190 0 190 -25 0 -25 0 0 -190z"/>
<path d="M6907 8723 c-4 -3 -7 -66 -7 -140 l0 -133 30 0 30 0 0 98 c0 53 4
102 8 108 13 20 52 35 73 29 29 -10 39 -45 39 -146 0 -87 0 -89 24 -89 24 0
24 2 28 100 2 77 7 103 20 116 21 21 76 23 89 3 5 -8 9 -60 9 -116 l0 -103 31
0 31 0 -4 109 c-2 92 -6 114 -24 138 -28 38 -94 44 -137 13 l-29 -22 -22 21
c-27 26 -97 29 -117 5 -11 -14 -13 -14 -21 0 -9 16 -39 22 -51 9z"/>
<path d="M7418 8723 c-11 -3 -18 -14 -18 -30 0 -22 3 -24 23 -19 73 22 128 11
135 -27 3 -14 -4 -17 -35 -17 -57 0 -110 -18 -128 -43 -24 -34 -19 -94 10
-122 28 -29 84 -33 128 -11 15 8 27 11 27 5 0 -5 14 -9 30 -9 l30 0 0 78 c-1
157 -30 203 -128 201 -31 -1 -65 -3 -74 -6z m142 -159 c0 -19 -19 -56 -34 -66
-17 -12 -71 -9 -84 4 -18 18 -15 55 6 67 9 6 38 11 65 11 36 0 47 -4 47 -16z"/>
<path d="M14450 8910 l0 -130 -60 0 c-53 0 -60 -2 -60 -20 0 -18 7 -20 60 -20
l60 0 0 -180 0 -180 -30 0 c-20 0 -30 -5 -30 -15 0 -10 10 -15 30 -15 l30 0 0
-180 0 -180 -60 0 c-53 0 -60 -2 -60 -20 0 -18 7 -20 60 -20 l60 0 0 -180 0
-180 -30 0 c-20 0 -30 -5 -30 -15 0 -10 10 -15 30 -15 l30 0 0 -180 0 -180
-60 0 c-53 0 -60 -2 -60 -20 0 -18 7 -20 60 -20 l60 0 0 -180 0 -180 -30 0
c-20 0 -30 -5 -30 -15 0 -10 10 -15 30 -15 l30 0 0 -185 0 -185 -60 0 c-47 0
-60 -3 -60 -15 0 -12 13 -15 60 -15 l60 0 0 -185 0 -185 -30 0 c-20 0 -30 -5
-30 -15 0 -10 10 -15 30 -15 l30 0 0 -180 0 -180 -60 0 c-53 0 -60 -2 -60 -20
0 -18 7 -20 60 -20 l59 0 3 -62 c2 -50 6 -63 21 -66 15 -3 17 5 17 62 l0 66
435 0 435 0 0 -65 c0 -51 3 -65 15 -65 12 0 15 14 15 65 l0 65 435 0 435 0 0
-66 c0 -57 2 -65 18 -62 14 3 18 16 20 66 l3 62 429 0 430 0 0 -66 c0 -57 2
-65 18 -62 14 3 18 16 20 66 l3 62 429 0 430 0 0 -66 c0 -57 2 -65 18 -62 14
3 18 16 20 66 l3 62 429 0 429 0 3 -62 c2 -48 7 -63 18 -63 11 0 16 15 18 63
l3 62 429 0 429 0 3 -62 c2 -48 7 -63 18 -63 11 0 16 15 18 63 l3 62 429 0
429 0 3 -62 c2 -50 6 -63 21 -66 15 -3 17 5 17 62 l0 66 430 0 429 0 3 -62 c2
-50 6 -63 21 -66 15 -3 17 5 17 62 l0 66 430 0 429 0 3 -62 c2 -50 6 -63 21
-66 15 -3 17 5 17 62 l0 66 435 0 435 0 0 -65 c0 -51 3 -65 15 -65 12 0 15 14
15 65 l0 65 435 0 435 0 0 -66 c0 -57 2 -65 18 -62 14 3 18 16 20 66 l3 62
429 0 430 0 0 -66 c0 -57 2 -65 18 -62 16 3 17 98 20 1801 l2 1797 -5430 0
-5430 0 0 -130z m10820 -199 l0 -288 -89 -184 c-118 -245 -265 -625 -372 -964
-17 -55 -34 -103 -38 -107 -4 -5 -40 74 -80 175 -98 244 -242 537 -332 672
-84 127 -184 229 -266 270 -48 25 -69 29 -128 29 -147 -2 -266 -103 -400 -339
-59 -103 -134 -263 -187 -395 -16 -41 -37 -93 -47 -115 -10 -22 -60 -167 -111
-322 -51 -155 -96 -287 -100 -293 -5 -9 -41 6 -119 49 -120 67 -235 121 -255
121 -7 0 -17 -10 -23 -22 -9 -21 -4 -25 71 -58 92 -42 264 -135 286 -156 17
-16 15 -23 -117 -403 -138 -401 -211 -580 -248 -611 -20 -17 -23 -13 -124 145
-88 138 -243 335 -264 335 -5 0 -26 15 -47 33 -63 53 -142 96 -323 174 -95 41
-174 76 -176 78 -6 7 91 121 195 227 230 235 397 298 650 243 26 -6 32 -3 42
19 11 24 9 26 -26 36 -71 22 -237 24 -310 5 -161 -43 -304 -146 -479 -347 -48
-56 -99 -115 -113 -130 l-25 -29 -200 91 c-335 153 -452 190 -608 190 -235 0
-412 -94 -692 -368 -77 -76 -156 -152 -176 -171 l-37 -33 -80 26 c-189 59
-405 57 -482 -6 -43 -34 -62 -65 -33 -53 115 47 324 54 461 16 45 -13 82 -27
82 -31 0 -8 -121 -118 -216 -197 -141 -115 -603 -373 -670 -373 -18 0 -68 18
-111 39 -43 22 -143 67 -224 100 -155 64 -214 75 -369 72 -110 -2 -161 -14
-410 -99 -179 -60 -236 -76 -280 -75 -42 0 -114 21 -301 86 -208 73 -364 120
-587 177 l-43 11 38 45 c48 60 165 150 228 179 89 39 149 48 269 42 127 -7
166 -16 511 -120 138 -42 306 -87 373 -101 142 -30 262 -43 262 -29 0 24 -48
51 -100 58 -108 13 -289 58 -549 136 -146 44 -308 88 -362 99 -277 57 -476 -9
-672 -220 -61 -66 -90 -82 -112 -61 -6 5 -28 11 -51 14 -47 7 -228 51 -264 65
-22 9 -48 71 -219 523 -388 1025 -456 1194 -586 1464 -258 538 -482 757 -707
691 -93 -27 -174 -96 -285 -242 l-22 -29 0 263 -1 262 5390 0 5390 0 0 -289z
m-10272 -47 c212 -123 440 -527 741 -1309 223 -583 472 -1247 468 -1251 -10
-10 -187 64 -431 182 -296 143 -389 174 -516 175 -98 0 -153 -14 -243 -65
-139 -77 -287 -274 -443 -589 -32 -64 -63 -116 -69 -114 -7 3 -11 443 -13
1334 l-2 1330 51 79 c93 142 171 218 258 251 54 20 142 10 199 -23z m10270
-2236 l-3 -623 -47 120 c-66 171 -238 644 -238 656 0 6 -9 29 -19 52 -11 23
-51 129 -90 236 l-71 195 56 170 c153 460 282 796 382 994 l27 54 3 -615 c1
-339 1 -896 0 -1239z m-1229 1813 c85 -32 206 -153 292 -291 43 -68 153 -279
194 -371 79 -176 205 -498 205 -522 0 -25 -246 -765 -328 -987 -27 -74 -71
-185 -97 -247 -35 -85 -44 -116 -37 -129 9 -16 12 -14 25 16 8 19 52 114 98
210 68 143 111 256 230 610 l147 435 15 -35 c30 -71 117 -317 117 -331 0 -8 7
-27 16 -44 9 -16 58 -147 111 -290 52 -143 128 -344 169 -446 41 -103 74 -192
74 -198 0 -8 -805 -11 -3057 -11 l-3058 1 140 72 c281 146 443 255 623 418 53
49 102 89 109 89 6 0 116 -52 245 -116 367 -183 490 -223 658 -211 133 10 233
49 360 143 65 47 230 208 230 224 0 4 -12 11 -26 14 -22 6 -39 -6 -133 -96
-112 -107 -177 -152 -283 -197 -58 -24 -74 -26 -193 -25 -113 1 -140 4 -210
28 -75 25 -603 275 -604 286 -1 6 306 297 373 354 62 53 100 78 182 119 183
94 373 90 621 -11 151 -62 423 -187 423 -196 0 -7 -80 -108 -147 -187 -12 -15
-11 -18 16 -27 29 -10 31 -9 111 89 45 54 85 99 90 99 26 0 369 -155 427 -193
75 -49 198 -164 260 -244 22 -28 82 -114 132 -191 73 -110 99 -143 123 -151
17 -6 35 -11 39 -11 13 0 59 52 79 90 38 74 151 376 245 655 54 160 101 294
105 298 11 13 288 -163 435 -276 89 -68 245 -229 322 -332 77 -103 152 -224
233 -376 25 -49 59 -98 75 -111 17 -12 25 -16 19 -8 -7 8 -41 86 -77 173 -101
244 -266 473 -463 640 -96 81 -284 213 -427 300 l-96 57 98 288 c54 158 104
303 111 322 141 377 256 602 371 725 112 119 184 146 288 106z m-8719 -1841
c101 -16 149 -35 400 -155 265 -127 331 -156 444 -195 l80 -27 54 -124 c30
-68 55 -125 56 -126 2 -2 12 7 23 20 l21 22 -39 89 c-21 49 -38 91 -36 92 5 5
161 -36 180 -47 10 -5 41 -13 68 -16 27 -3 51 -9 54 -12 2 -4 -20 -43 -49 -87
-29 -45 -62 -97 -74 -117 -12 -21 -25 -37 -30 -37 -5 0 -17 18 -27 40 l-18 40
-23 -21 -24 -22 29 -54 29 -53 -950 0 -949 0 92 178 c51 97 115 213 144 257
128 199 263 317 400 351 64 16 67 16 145 4z m1760 -594 c25 -7 153 -51 285
-96 322 -110 303 -110 634 6 348 122 439 120 776 -14 22 -9 47 -21 55 -28 8
-6 38 -19 65 -28 28 -9 57 -21 65 -26 10 -6 -424 -10 -1235 -9 -905 0 -1244 3
-1228 11 13 6 50 54 82 107 33 53 73 115 90 138 l30 42 168 -44 c92 -24 188
-51 213 -59z"/>
<path d="M19090 6170 c-234 -96 -379 -136 -527 -148 l-91 -7 22 -28 22 -27 95
10 c133 13 262 49 456 126 135 54 176 75 211 107 39 38 52 59 35 56 -5 -1
-105 -41 -223 -89z"/>
<path d="M13460 8901 c-16 -4 -26 -15 -28 -30 -3 -22 -1 -23 32 -17 l36 7 0
-110 0 -110 -32 -3 c-22 -2 -34 -9 -36 -20 -3 -16 7 -18 93 -18 86 0 96 2 93
18 -2 11 -14 18 -35 20 l-32 3 -3 132 -3 132 -30 2 c-16 1 -41 -2 -55 -6z"/>
<path d="M13698 8903 c-12 -3 -18 -14 -18 -33 l0 -29 35 15 c51 21 82 18 100
-10 21 -32 12 -49 -72 -140 -34 -38 -63 -77 -63 -87 0 -17 9 -19 101 -19 90 0
100 2 97 18 -3 14 -16 18 -66 20 -34 2 -62 6 -62 10 0 4 25 32 55 62 81 80 93
142 33 184 -21 15 -98 20 -140 9z"/>
<path d="M13991 8894 c-33 -24 -51 -74 -51 -146 0 -73 22 -126 60 -145 100
-50 182 63 150 206 -16 69 -46 101 -97 101 -21 0 -49 -7 -62 -16z m93 -46 c31
-51 27 -171 -7 -205 -25 -26 -63 -9 -77 33 -15 44 -9 156 9 178 19 23 58 20
75 -6z"/>
<path d="M1005 8765 c-31 -30 -33 -75 -5 -100 20 -18 20 -19 1 -39 -27 -31
-34 -63 -20 -97 15 -37 55 -59 109 -59 85 0 133 96 75 150 -24 23 -24 23 -5
37 31 22 27 86 -6 112 -39 31 -117 29 -149 -4z m113 -24 c18 -11 11 -61 -9
-74 -9 -5 -28 -7 -42 -3 -31 7 -46 48 -27 71 14 16 57 20 78 6z m6 -137 c34
-33 9 -94 -38 -94 -34 0 -58 23 -58 55 0 49 62 74 96 39z"/>
<path d="M1291 8774 c-33 -24 -51 -74 -51 -146 0 -73 22 -126 60 -145 100 -50
182 63 150 206 -16 69 -46 101 -97 101 -21 0 -49 -7 -62 -16z m93 -46 c31 -51
27 -171 -7 -205 -25 -26 -63 -9 -77 33 -15 44 -9 156 9 178 19 23 58 20 75 -6z"/>
<path d="M1557 8779 c-68 -40 -72 -228 -6 -284 52 -43 120 -27 151 35 21 43
23 148 4 194 -8 18 -24 41 -37 50 -26 18 -85 21 -112 5z m93 -44 c18 -22 25
-135 10 -179 -13 -42 -52 -59 -77 -34 -35 36 -39 155 -7 206 17 25 55 29 74 7z"/>
<path d="M13717 8109 c-23 -13 -47 -62 -47 -94 0 -34 25 -82 49 -95 25 -13 77
-13 100 0 15 8 17 6 13 -15 -9 -47 -61 -70 -122 -54 -9 2 -16 -4 -18 -17 -5
-36 65 -46 124 -18 84 40 101 226 26 285 -27 21 -95 25 -125 8z m97 -45 c9 -8
16 -31 16 -49 0 -61 -62 -89 -94 -43 -44 63 26 145 78 92z"/>
<path d="M13991 8104 c-33 -24 -51 -74 -51 -146 0 -73 22 -126 60 -145 100
-50 182 63 150 206 -16 69 -46 101 -97 101 -21 0 -49 -7 -62 -16z m93 -46 c31
-51 27 -171 -7 -205 -25 -26 -63 -9 -77 33 -15 44 -9 156 9 178 19 23 58 20
75 -6z"/>
<path d="M1037 8010 c-43 -34 -60 -77 -60 -147 1 -104 48 -159 128 -149 53 6
85 43 85 96 0 87 -59 133 -137 106 -32 -10 -30 18 3 51 22 22 31 25 70 19 43
-5 45 -4 42 17 -3 19 -10 22 -54 25 -39 2 -56 -2 -77 -18z m93 -149 c15 -29
12 -77 -6 -95 -49 -50 -119 29 -80 89 21 31 70 34 86 6z"/>
<path d="M1291 8014 c-33 -24 -51 -74 -51 -146 0 -73 22 -126 60 -145 100 -50
182 63 150 206 -16 69 -46 101 -97 101 -21 0 -49 -7 -62 -16z m93 -46 c31 -51
27 -171 -7 -205 -25 -26 -63 -9 -77 33 -15 44 -9 156 9 178 19 23 58 20 75 -6z"/>
<path d="M1557 8019 c-68 -40 -72 -228 -6 -284 52 -43 120 -27 151 35 21 43
23 148 4 194 -8 18 -24 41 -37 50 -26 18 -85 21 -112 5z m93 -44 c18 -22 25
-135 10 -179 -13 -42 -52 -59 -77 -34 -35 36 -39 155 -7 206 17 25 55 29 74 7z"/>
<path d="M13737 7310 c-43 -34 -60 -77 -60 -147 1 -104 48 -159 128 -149 53 6
85 43 85 96 0 87 -59 133 -137 106 -32 -10 -30 18 3 51 22 22 31 25 70 19 43
-5 45 -4 42 17 -3 19 -10 22 -54 25 -39 2 -56 -2 -77 -18z m93 -149 c15 -29
12 -77 -6 -95 -49 -50 -119 29 -80 89 21 31 70 34 86 6z"/>
<path d="M13991 7314 c-33 -24 -51 -74 -51 -146 0 -73 22 -126 60 -145 100
-50 182 63 150 206 -16 69 -46 101 -97 101 -21 0 -49 -7 -62 -16z m93 -46 c31
-51 27 -171 -7 -205 -25 -26 -63 -9 -77 33 -15 44 -9 156 9 178 19 23 58 20
75 -6z"/>
<path d="M1033 7175 c-35 -53 -63 -106 -63 -120 0 -24 2 -25 65 -25 l65 0 0
-35 c0 -31 3 -35 25 -35 22 0 25 4 25 35 0 31 3 35 25 35 18 0 25 5 25 20 0
15 -7 20 -25 20 l-25 0 0 100 0 100 -27 0 c-24 0 -37 -14 -90 -95z m67 -40 l0
-65 -45 0 -45 0 42 65 c24 35 44 65 46 65 1 0 2 -29 2 -65z"/>
<path d="M1291 7254 c-33 -24 -51 -74 -51 -146 0 -73 22 -126 60 -145 100 -50
182 63 150 206 -16 69 -46 101 -97 101 -21 0 -49 -7 -62 -16z m93 -46 c31 -51
27 -171 -7 -205 -25 -26 -63 -9 -77 33 -15 44 -9 156 9 178 19 23 58 20 75 -6z"/>
<path d="M1557 7259 c-68 -40 -72 -228 -6 -284 52 -43 120 -27 151 35 21 43
23 148 4 194 -8 18 -24 41 -37 50 -26 18 -85 21 -112 5z m93 -44 c18 -22 25
-135 10 -179 -13 -42 -52 -59 -77 -34 -35 36 -39 155 -7 206 17 25 55 29 74 7z"/>
<path d="M13703 6533 c-7 -2 -13 -14 -13 -24 0 -18 5 -20 44 -14 53 8 83 0 91
-24 10 -33 -5 -50 -51 -57 -34 -5 -44 -10 -44 -25 0 -15 7 -19 35 -19 40 0 80
-32 71 -57 -3 -8 -6 -18 -6 -23 0 -13 -67 -32 -90 -26 -11 3 -29 9 -40 12 -16
4 -20 1 -20 -19 0 -19 6 -26 31 -31 55 -11 93 -7 127 14 54 33 64 97 21 136
-18 16 -18 17 1 42 33 41 22 84 -27 110 -21 12 -106 15 -130 5z"/>
<path d="M13991 6524 c-33 -24 -51 -74 -51 -146 0 -73 22 -126 60 -145 100
-50 182 63 150 206 -16 69 -46 101 -97 101 -21 0 -49 -7 -62 -16z m93 -46 c31
-51 27 -171 -7 -205 -25 -26 -63 -9 -77 33 -15 44 -9 156 9 178 19 23 58 20
75 -6z"/>
<path d="M998 6503 c-12 -3 -18 -14 -18 -33 l0 -29 35 15 c51 21 82 18 100
-10 21 -32 12 -49 -72 -140 -34 -38 -63 -77 -63 -87 0 -17 9 -19 101 -19 90 0
100 2 97 18 -3 14 -16 18 -66 20 -34 2 -62 6 -62 10 0 4 25 32 55 62 81 80 93
142 33 184 -21 15 -98 20 -140 9z"/>
<path d="M1291 6494 c-33 -24 -51 -74 -51 -146 0 -73 22 -126 60 -145 100 -50
182 63 150 206 -16 69 -46 101 -97 101 -21 0 -49 -7 -62 -16z m93 -46 c31 -51
27 -171 -7 -205 -25 -26 -63 -9 -77 33 -15 44 -9 156 9 178 19 23 58 20 75 -6z"/>
<path d="M1557 6499 c-68 -40 -72 -228 -6 -284 52 -43 120 -27 151 35 21 43
23 148 4 194 -8 18 -24 41 -37 50 -26 18 -85 21 -112 5z m93 -44 c18 -22 25
-135 10 -179 -13 -42 -52 -59 -77 -34 -35 36 -39 155 -7 206 17 25 55 29 74 7z"/>
<path d="M1557 5729 c-68 -40 -72 -228 -6 -284 52 -43 120 -27 151 35 21 43
23 148 4 194 -8 18 -24 41 -37 50 -26 18 -85 21 -112 5z m93 -44 c18 -22 25
-135 10 -179 -13 -42 -52 -59 -77 -34 -35 36 -39 155 -7 206 17 25 55 29 74 7z"/>
<path d="M13991 5724 c-33 -24 -51 -74 -51 -146 0 -73 22 -126 60 -145 100
-50 182 63 150 206 -16 69 -46 101 -97 101 -21 0 -49 -7 -62 -16z m93 -46 c31
-51 27 -171 -7 -205 -25 -26 -63 -9 -77 33 -15 44 -9 156 9 178 19 23 58 20
75 -6z"/>
<path d="M1987 5093 c-46 -5 -45 -27 1 -31 l32 -3 0 -170 0 -169 -65 0 c-58 0
-65 -2 -65 -20 0 -18 7 -20 65 -20 l65 0 0 -175 0 -175 -35 0 c-24 0 -35 -5
-35 -15 0 -10 11 -15 35 -15 l35 0 0 -175 0 -175 -65 0 c-58 0 -65 -2 -65 -20
0 -18 7 -20 65 -20 l65 0 0 -169 0 -170 -32 -3 c-46 -4 -49 -28 -4 -28 l36 0
0 -175 0 -175 -65 0 c-58 0 -65 -2 -65 -20 0 -18 7 -20 65 -20 l65 0 0 -175 0
-175 -36 0 c-45 0 -42 -24 4 -28 l32 -3 0 -170 0 -169 -65 0 c-58 0 -65 -2
-65 -20 0 -18 7 -20 65 -20 l65 0 0 -175 0 -175 -35 0 c-24 0 -35 -5 -35 -15
0 -10 11 -15 35 -15 l35 0 0 -175 0 -175 -65 0 c-51 0 -65 -3 -65 -15 0 -12
14 -15 65 -15 l65 0 0 -65 c0 -58 2 -65 20 -65 18 0 20 7 20 65 l0 65 430 0
430 0 0 -65 c0 -58 2 -65 20 -65 18 0 20 7 20 65 l0 65 430 0 430 0 0 -65 c0
-58 2 -65 20 -65 18 0 20 7 20 65 l0 65 430 0 430 0 0 -65 c0 -58 2 -65 20
-65 18 0 20 7 20 65 l0 65 430 0 430 0 0 -65 c0 -58 2 -65 20 -65 18 0 20 7
20 65 l0 65 430 0 430 0 0 -65 c0 -58 2 -65 20 -65 18 0 20 7 20 65 l0 65 435
0 435 0 0 -65 c0 -51 3 -65 15 -65 12 0 15 14 15 65 l0 65 435 0 435 0 0 -65
c0 -51 3 -65 15 -65 12 0 15 14 15 65 l0 65 435 0 435 0 0 -65 c0 -58 2 -65
20 -65 18 0 20 7 20 65 l0 65 430 0 430 0 0 -65 c0 -58 2 -65 20 -65 18 0 20
7 20 65 l0 65 430 0 430 0 0 -65 c0 -58 2 -65 20 -65 18 0 20 7 20 65 l0 65
430 0 430 0 0 -65 c0 -58 2 -65 20 -65 18 0 20 7 20 65 l0 65 430 0 430 0 0
-65 c0 -58 2 -65 20 -65 20 0 20 7 20 1800 l0 1800 -5422 -2 c-2983 -1 -5440
-3 -5461 -5z m10843 -1087 l0 -1054 -32 -7 c-166 -33 -330 -158 -509 -390 -44
-58 -84 -105 -89 -105 -4 0 -41 18 -81 41 -133 75 -537 257 -691 310 -86 30
-103 33 -223 33 -127 1 -132 0 -199 -32 -70 -33 -190 -123 -227 -171 -11 -14
-40 -46 -63 -71 -23 -25 -82 -107 -131 -183 -48 -75 -91 -140 -96 -142 -4 -3
-79 8 -166 24 -87 16 -194 32 -238 36 l-80 7 -29 -31 -30 -31 70 0 c96 0 434
-54 434 -69 0 -4 -48 -82 -107 -174 -111 -171 -176 -257 -195 -257 -5 0 -58
46 -117 103 -94 91 -257 214 -293 221 -7 1 -50 15 -96 29 -46 15 -94 27 -107
27 -51 0 -31 19 53 48 86 31 173 54 243 66 21 4 47 19 64 36 26 28 27 30 8 30
-91 0 -309 -60 -453 -125 l-75 -34 -255 24 c-551 51 -666 52 -864 10 -120 -25
-293 -82 -341 -111 -29 -18 -437 -169 -525 -195 l-75 -22 -112 37 c-110 35
-113 36 -148 19 -19 -9 -35 -20 -35 -23 0 -3 30 -13 68 -22 148 -36 150 -33
-63 -104 -129 -44 -199 -62 -217 -59 -14 4 -51 21 -82 40 -30 18 -66 37 -78
42 -63 23 -189 97 -176 103 27 15 269 32 353 25 72 -6 93 -5 126 11 35 15 38
19 22 27 -33 19 -308 20 -469 3 l-150 -17 -90 42 c-142 66 -250 89 -415 89
-150 0 -169 -4 -372 -78 l-99 -35 -200 18 c-362 33 -576 1 -795 -120 l-64 -35
-97 19 c-53 10 -140 27 -192 36 l-96 17 -139 135 c-393 379 -567 503 -972 693
-352 164 -512 222 -669 242 l-94 12 0 1048 0 1048 5385 0 5385 0 0 -1054z
m-10534 -1142 c109 -31 258 -93 499 -205 386 -181 577 -313 880 -612 115 -113
153 -156 135 -152 -79 16 -628 87 -735 95 -181 14 -391 -12 -480 -58 -111 -57
-181 -100 -265 -162 -52 -39 -98 -70 -102 -70 -5 0 -44 34 -88 76 l-80 77 0
525 0 525 75 -7 c42 -4 114 -18 161 -32z m10534 -470 l0 -496 -118 119 c-146
148 -288 273 -380 338 -39 28 -71 53 -72 57 -1 15 129 178 208 260 93 97 186
164 272 196 100 38 90 89 90 -474z m-1405 343 c177 -62 672 -290 722 -333 l22
-19 -180 -270 -179 -270 22 -16 c21 -16 23 -16 52 25 16 22 99 146 184 274
109 166 157 231 165 224 7 -5 41 -30 77 -57 94 -71 194 -160 367 -331 l153
-151 0 -77 0 -77 -540 2 c-297 1 -540 4 -540 7 0 2 14 21 30 42 35 44 36 51
12 73 -18 16 -20 15 -51 -28 -18 -25 -37 -45 -43 -45 -6 0 -57 44 -112 98
-223 215 -360 277 -806 362 -118 23 -216 43 -219 45 -5 6 107 181 148 231 20
24 56 69 81 100 61 78 165 166 236 199 107 50 240 48 399 -8z m-661 -622 c362
-72 470 -108 612 -206 80 -55 237 -198 255 -231 9 -17 -58 -18 -2333 -18
-1289 0 -2336 4 -2328 9 8 5 90 32 182 61 l168 53 102 -32 c161 -49 237 -61
465 -68 242 -7 323 1 537 54 270 66 611 174 639 202 5 5 -7 14 -27 21 -32 10
-46 7 -148 -29 -186 -66 -484 -146 -652 -176 -104 -18 -382 -20 -535 -5 -103
11 -248 43 -264 59 -5 5 21 18 60 31 37 13 176 64 308 115 132 51 276 102 320
115 44 13 85 27 90 31 18 14 175 39 283 45 78 5 188 -1 412 -20 168 -15 316
-29 330 -32 20 -5 11 -11 -55 -41 -44 -20 -83 -38 -87 -42 -4 -3 6 -14 22 -23
28 -16 30 -15 146 38 64 30 129 54 143 54 56 0 214 -40 276 -69 36 -17 69 -31
73 -31 20 0 139 -93 247 -192 77 -71 125 -108 139 -108 57 0 114 69 309 374
37 58 70 106 74 106 4 0 111 -20 237 -45z m-4734 -127 c25 -6 78 -22 119 -36
84 -29 78 -40 -24 -42 -33 -1 -68 -5 -78 -9 -15 -6 -12 -10 22 -29 38 -22 44
-22 150 -12 l111 10 97 -49 c54 -27 116 -61 137 -76 22 -15 64 -37 93 -50 29
-13 53 -26 53 -28 0 -2 -408 -4 -907 -5 -771 -2 -904 0 -883 12 14 7 126 57
249 112 l225 98 175 -17 c97 -10 230 -17 296 -17 l120 0 -40 24 c-36 22 -61
26 -200 36 -88 6 -176 13 -195 17 l-35 6 40 14 c80 28 152 44 225 49 41 3 77
8 80 11 6 6 112 -5 170 -19z m-2867 -63 c111 -13 256 -34 708 -103 39 -6 58
-18 128 -83 l83 -77 -893 -1 c-883 -1 -894 -1 -874 18 46 44 186 137 261 172
47 22 116 45 165 54 46 9 98 20 114 24 48 14 166 12 308 -4z m2062 -23 l40 -8
-35 -16 c-136 -61 -364 -158 -408 -173 -49 -18 -56 -18 -110 -3 -88 24 -275
78 -292 84 -37 13 201 105 320 123 73 11 423 6 485 -7z m-1080 -118 c49 -8 93
-18 98 -21 14 -9 -92 -75 -107 -66 -7 4 -37 29 -67 56 -62 54 -60 55 76 31z
m-1976 -121 c2 -2 -21 -3 -52 -3 l-57 0 0 51 0 52 53 -48 c28 -27 54 -50 56
-52z m2304 46 c61 -17 119 -35 127 -40 9 -5 -67 -9 -184 -9 -110 0 -197 2
-194 5 23 23 106 75 121 75 9 0 68 -14 130 -31z"/>
<path d="M6662 4860 c-68 -16 -102 -74 -82 -136 13 -39 45 -59 120 -75 78 -17
103 -56 60 -99 -25 -25 -94 -27 -147 -5 -45 19 -43 20 -43 -11 0 -32 48 -54
120 -54 71 0 116 21 137 64 35 75 -15 147 -113 162 -61 9 -89 33 -80 67 9 38
66 52 132 32 27 -8 50 -15 52 -15 1 0 2 11 2 25 0 17 -7 28 -22 34 -39 15
-102 20 -136 11z"/>
<path d="M7700 4680 l0 -190 25 0 25 0 0 190 0 190 -25 0 -25 0 0 -190z"/>
<path d="M7840 4680 l0 -190 25 0 25 0 0 190 0 190 -25 0 -25 0 0 -190z"/>
<path d="M8277 4803 c-4 -3 -7 -35 -7 -70 l0 -63 -65 0 c-63 0 -65 -1 -65 -25
0 -24 2 -25 65 -25 l65 0 0 -65 c0 -63 1 -65 25 -65 24 0 25 2 25 65 l0 65 70
0 c68 0 70 1 70 25 0 24 -2 25 -70 25 l-70 0 0 70 c0 61 -2 70 -18 70 -10 0
-22 -3 -25 -7z"/>
<path d="M6907 4763 c-4 -3 -7 -66 -7 -140 l0 -133 30 0 30 0 0 98 c0 53 4
102 8 108 13 20 52 35 73 29 29 -10 39 -45 39 -146 0 -87 0 -89 24 -89 24 0
24 2 28 100 2 77 7 103 20 116 21 21 76 23 89 3 5 -8 9 -60 9 -116 l0 -103 31
0 31 0 -4 109 c-2 92 -6 114 -24 138 -28 38 -94 44 -137 13 l-29 -22 -22 21
c-27 26 -97 29 -117 5 -11 -14 -13 -14 -21 0 -9 16 -39 22 -51 9z"/>
<path d="M7418 4763 c-11 -3 -18 -14 -18 -30 0 -22 3 -24 23 -19 73 22 128 11
135 -27 3 -14 -4 -17 -35 -17 -57 0 -110 -18 -128 -43 -24 -34 -19 -94 10
-122 28 -29 84 -33 128 -11 15 8 27 11 27 5 0 -5 14 -9 30 -9 l30 0 0 78 c-1
157 -30 203 -128 201 -31 -1 -65 -3 -74 -6z m142 -159 c0 -19 -19 -56 -34 -66
-17 -12 -71 -9 -84 4 -18 18 -15 55 6 67 9 6 38 11 65 11 36 0 47 -4 47 -16z"/>
<path d="M8230 4244 l0 -65 -22 15 c-12 9 -40 16 -61 16 -73 0 -117 -54 -117
-145 0 -109 85 -174 170 -130 17 9 30 11 30 5 0 -5 11 -10 25 -10 l25 0 0 190
0 190 -25 0 c-24 0 -25 -2 -25 -66z m-45 -86 c46 -21 57 -126 17 -170 -8 -10
-29 -18 -47 -18 -18 0 -39 8 -47 18 -37 42 -28 149 14 170 30 14 33 14 63 0z"/>
<path d="M8840 4120 l0 -190 30 0 30 0 0 190 0 190 -30 0 -30 0 0 -190z"/>
<path d="M6622 4194 c-33 -23 -52 -67 -52 -124 0 -57 19 -101 52 -124 29 -21
97 -20 127 1 24 16 24 16 17 -13 -13 -57 -66 -76 -146 -53 -10 3 -15 -3 -15
-20 0 -20 7 -27 35 -34 74 -19 148 11 171 70 5 13 9 89 9 169 l0 144 -25 0
c-16 0 -25 -6 -25 -16 0 -14 -2 -14 -22 0 -29 20 -97 20 -126 0z m117 -43 c46
-46 33 -155 -20 -173 -66 -22 -112 46 -89 133 16 57 72 77 109 40z"/>
<path d="M6907 4203 c-4 -3 -7 -66 -7 -140 l0 -133 30 0 30 0 0 98 c0 114 12
136 75 134 31 -1 35 2 35 23 0 22 -4 25 -38 25 -21 0 -43 -5 -50 -12 -9 -9
-15 -9 -24 0 -13 13 -41 16 -51 5z"/>
<path d="M7138 4187 c-34 -28 -48 -64 -48 -126 0 -153 192 -197 245 -57 25 65
14 129 -30 173 -29 29 -39 33 -86 33 -41 0 -61 -5 -81 -23z m122 -35 c37 -30
40 -131 4 -166 -24 -24 -81 -21 -98 7 -28 43 -24 120 9 152 29 29 55 32 85 7z"/>
<path d="M7412 4089 c3 -118 4 -121 31 -145 33 -28 91 -32 125 -8 12 8 22 10
22 5 0 -6 14 -11 30 -11 l31 0 -3 138 -3 137 -25 0 c-25 0 -25 -1 -30 -103 -5
-113 -16 -132 -69 -132 -51 0 -56 11 -59 130 -4 110 -4 110 -29 110 l-25 0 4
-121z"/>
<path d="M7737 4203 c-4 -3 -7 -66 -7 -140 l0 -133 30 0 30 0 0 98 c0 53 4
102 8 109 4 6 20 17 36 23 23 8 34 7 52 -5 23 -15 24 -21 24 -120 l0 -105 30
0 30 0 0 95 c0 104 -15 156 -48 174 -31 16 -97 14 -113 -5 -11 -14 -13 -14
-21 0 -9 16 -39 22 -51 9z"/>
<path d="M8530 4015 l0 -195 25 0 c24 0 25 2 25 66 l0 65 22 -15 c32 -23 90
-20 123 6 71 55 72 190 3 248 -30 25 -104 27 -130 3 -17 -15 -18 -15 -18 0 0
11 -8 17 -25 17 l-25 0 0 -195z m165 130 c20 -19 25 -34 25 -77 0 -68 -19 -98
-63 -98 -18 0 -37 4 -43 8 -35 23 -45 102 -19 152 24 46 63 53 100 15z"/>
<path d="M9008 4203 c-11 -3 -18 -14 -18 -30 0 -22 3 -24 23 -19 73 22 128 11
135 -27 3 -14 -4 -17 -35 -17 -57 0 -110 -18 -128 -43 -24 -34 -19 -94 10
-122 28 -29 84 -33 128 -11 15 8 27 11 27 5 0 -5 14 -9 30 -9 l30 0 0 78 c-1
157 -30 203 -128 201 -31 -1 -65 -3 -74 -6z m142 -159 c0 -19 -19 -56 -34 -66
-17 -12 -71 -9 -84 4 -18 18 -15 55 6 67 9 6 38 11 65 11 36 0 47 -4 47 -16z"/>
<path d="M9290 4070 l0 -140 25 0 c25 0 25 0 25 94 0 110 14 139 70 139 50 0
60 -21 60 -135 0 -98 0 -98 25 -98 l25 0 0 105 c0 110 -12 156 -45 169 -30 11
-90 6 -113 -10 -20 -14 -22 -14 -22 0 0 10 -9 16 -25 16 l-25 0 0 -140z"/>
<path d="M9647 4189 c-39 -29 -57 -70 -57 -126 0 -86 59 -143 148 -143 63 0
102 18 102 47 0 20 -3 24 -17 17 -10 -4 -43 -10 -75 -12 -47 -3 -60 0 -77 17
-12 12 -21 30 -21 41 0 19 7 20 100 20 l100 0 0 30 c0 44 -23 93 -53 113 -37
24 -115 22 -150 -4z m131 -46 c26 -35 15 -43 -58 -43 -74 0 -88 11 -52 42 36
32 86 32 110 1z"/>
<path d="M14457 5093 c-4 -3 -7 -64 -7 -135 l0 -128 -60 0 c-53 0 -60 -2 -60
-20 0 -18 7 -20 60 -20 l60 0 0 -180 0 -180 -30 0 c-20 0 -30 -5 -30 -15 0
-10 10 -15 30 -15 l30 0 0 -180 0 -180 -60 0 c-53 0 -60 -2 -60 -20 0 -18 7
-20 60 -20 l60 0 0 -180 0 -180 -30 0 c-20 0 -30 -5 -30 -15 0 -10 10 -15 30
-15 l30 0 0 -180 0 -180 -60 0 c-53 0 -60 -2 -60 -20 0 -18 7 -20 60 -20 l60
0 0 -180 0 -180 -30 0 c-20 0 -30 -5 -30 -15 0 -10 10 -15 30 -15 l30 0 0
-180 0 -180 -60 0 c-53 0 -60 -2 -60 -20 0 -18 7 -20 60 -20 l60 0 0 -180 0
-180 -30 0 c-20 0 -30 -5 -30 -15 0 -10 10 -15 30 -15 l30 0 0 -185 0 -185
-60 0 c-47 0 -60 -3 -60 -15 0 -12 13 -15 60 -15 l60 0 0 -65 c0 -58 2 -65 20
-65 18 0 20 7 20 65 l0 65 435 0 435 0 0 -65 c0 -51 3 -65 15 -65 12 0 15 14
15 65 l0 65 435 0 435 0 0 -65 c0 -58 2 -65 20 -65 18 0 20 7 20 65 l0 65 430
0 430 0 0 -65 c0 -58 2 -65 20 -65 18 0 20 7 20 65 l0 65 430 0 430 0 0 -65
c0 -58 2 -65 20 -65 18 0 20 7 20 65 l0 65 430 0 430 0 0 -65 c0 -58 2 -65 20
-65 18 0 20 7 20 65 l0 65 430 0 430 0 0 -65 c0 -58 2 -65 20 -65 18 0 20 7
20 65 l0 65 430 0 430 0 0 -65 c0 -58 2 -65 20 -65 18 0 20 7 20 65 l0 65 430
0 430 0 0 -65 c0 -58 2 -65 20 -65 18 0 20 7 20 65 l0 65 430 0 430 0 0 -65
c0 -58 2 -65 20 -65 18 0 20 7 20 65 l0 65 435 0 435 0 0 -65 c0 -51 3 -65 15
-65 12 0 15 14 15 65 l0 65 435 0 435 0 0 -65 c0 -58 2 -65 20 -65 18 0 20 7
20 65 l0 65 430 0 430 0 0 -65 c0 -58 2 -65 20 -65 20 0 20 5 18 1798 l-3
1797 -5421 3 c-2981 1 -5424 -1 -5427 -5z m10813 -1297 l0 -1263 -104 -51
c-114 -55 -212 -118 -349 -224 l-89 -68 -36 20 c-66 35 -355 138 -437 155
-163 34 -331 30 -510 -11 l-70 -16 -95 97 c-104 106 -190 172 -278 213 -50 24
-69 27 -157 27 -95 0 -104 -2 -175 -37 -97 -47 -215 -143 -324 -262 -76 -83
-92 -95 -129 -101 -46 -8 -157 -48 -197 -71 -61 -36 -279 -142 -313 -153 -34
-12 -47 -9 -160 28 -125 42 -248 70 -395 91 -75 11 -87 11 -123 -5 -21 -10
-39 -21 -39 -25 0 -4 44 -12 98 -19 146 -19 296 -49 386 -79 l81 -26 -45 -7
c-66 -11 -341 -10 -450 1 -102 11 -193 31 -244 55 -17 8 -74 26 -126 39 -52
14 -129 35 -170 46 -96 26 -234 42 -307 35 -121 -12 -317 -50 -338 -66 -15
-11 -275 -85 -380 -108 -49 -10 -200 -36 -335 -56 -313 -46 -400 -60 -535 -90
-60 -13 -130 -26 -155 -29 l-45 -6 41 13 c71 24 155 75 332 201 183 131 302
199 417 238 62 20 89 23 230 23 138 0 190 -6 375 -37 226 -38 310 -48 635 -73
110 -9 247 -22 305 -29 102 -13 106 -12 149 9 l44 22 -34 6 c-75 14 -295 37
-489 52 -301 23 -382 32 -620 73 -258 43 -466 50 -580 19 -120 -33 -275 -118
-470 -257 -215 -154 -301 -200 -375 -200 -76 0 -102 10 -319 129 -254 139
-349 183 -460 215 -250 73 -454 50 -755 -85 -74 -33 -137 -57 -141 -52 -4 4
-101 130 -215 278 -436 566 -541 676 -734 769 -76 36 -94 41 -176 44 -138 6
-208 -18 -365 -126 -78 -54 -149 -126 -337 -338 l-142 -162 -48 11 c-77 16
-318 13 -398 -6 -38 -8 -78 -19 -87 -22 -16 -6 -17 74 -18 1254 l0 1261 5390
0 5390 0 0 -1264z m-9273 -688 c156 -58 328 -228 642 -633 124 -160 246 -318
273 -351 l48 -62 -98 -43 c-53 -23 -135 -53 -182 -65 -136 -37 -67 -28 130 17
l181 40 115 -113 c63 -62 144 -133 180 -158 90 -62 147 -65 335 -16 176 45
262 50 644 37 374 -12 434 -8 767 58 139 27 361 66 493 86 269 41 314 51 593
129 291 81 342 91 462 90 101 -1 267 -32 296 -55 6 -5 51 -19 100 -33 49 -13
133 -35 187 -50 175 -46 577 -60 748 -25 47 9 68 8 124 -6 101 -25 182 -22
247 8 53 25 188 130 188 146 0 5 -11 12 -25 15 -21 5 -39 -4 -96 -49 -83 -64
-156 -91 -225 -80 -24 3 -44 9 -43 13 0 7 380 192 394 192 2 0 2 -6 -1 -14 -3
-9 4 -15 23 -19 23 -4 35 1 65 30 36 35 37 36 100 29 69 -8 177 -33 193 -45 6
-5 42 -16 80 -25 39 -10 86 -22 106 -27 93 -24 345 8 404 51 9 7 201 80 209
80 2 0 49 -53 104 -118 88 -104 107 -121 160 -144 l60 -26 -127 150 c-69 82
-127 153 -129 157 -5 15 155 44 273 48 96 4 140 1 221 -16 101 -21 340 -105
388 -136 14 -9 32 -18 41 -19 22 -3 16 -17 -20 -46 -16 -13 -63 -54 -102 -91
-40 -37 -96 -82 -125 -101 -59 -39 -177 -88 -209 -88 -12 0 -67 18 -122 40
-55 22 -102 39 -104 36 -8 -8 94 -87 145 -113 98 -48 169 -21 407 160 81 62
164 124 184 139 l36 28 106 -45 c154 -65 255 -89 352 -81 l77 5 0 -169 0 -170
-5390 0 -5390 0 0 175 0 175 54 24 c119 53 241 154 420 348 l107 116 72 -20
c195 -53 391 -147 804 -382 131 -74 263 -144 293 -155 46 -18 51 -18 30 -3
-14 9 -52 40 -85 69 -64 56 -328 213 -565 336 -148 77 -325 151 -437 184 -35
10 -63 21 -63 24 0 13 290 338 326 365 20 16 44 37 53 47 21 24 126 99 171
123 107 55 219 63 327 22z m7299 -521 c101 -51 329 -257 308 -276 -25 -23
-271 -101 -364 -116 l-105 -18 -110 26 c-60 15 -153 38 -205 52 -52 14 -109
25 -126 25 -17 0 -34 3 -37 6 -14 15 165 189 263 257 86 60 145 78 240 74 67
-3 96 -9 136 -30z m-8314 -75 c17 -17 -204 -247 -327 -339 -53 -40 -144 -93
-160 -93 -3 0 -5 90 -5 199 l0 199 36 12 c85 28 182 39 312 36 74 -2 138 -8
144 -14z m10288 -251 l0 -200 -57 -7 c-79 -10 -175 8 -297 56 -55 22 -106 44
-113 48 -12 7 85 86 212 173 59 40 225 128 243 129 9 0 12 -46 12 -199z
m-7500 -55 c159 -26 244 -61 579 -244 107 -58 222 -114 255 -123 60 -18 56
-18 -332 -14 -222 2 -430 0 -475 -6 -45 -5 -148 -26 -228 -46 l-145 -36 -55
25 c-51 23 -249 188 -249 207 0 5 -14 23 -30 41 -17 18 -29 34 -28 35 11 9
263 116 303 129 70 22 199 44 265 45 30 1 93 -5 140 -13z"/>
<path d="M16435 1930 c30 -8 152 -13 144 -6 -2 2 -42 6 -89 8 -47 3 -72 2 -55
-2z"/>
<path d="M13460 4961 c-16 -4 -26 -15 -28 -30 -3 -22 -1 -23 32 -17 l36 7 0
-110 0 -110 -32 -3 c-22 -2 -34 -9 -36 -20 -3 -16 7 -18 93 -18 86 0 96 2 93
18 -2 11 -14 18 -35 20 l-32 3 -3 132 -3 132 -30 2 c-16 1 -41 -2 -55 -6z"/>
<path d="M13698 4963 c-12 -3 -18 -14 -18 -33 l0 -29 35 15 c51 21 82 18 100
-10 21 -32 12 -49 -72 -140 -34 -38 -63 -77 -63 -87 0 -17 9 -19 101 -19 90 0
100 2 97 18 -3 14 -16 18 -66 20 -34 2 -62 6 -62 10 0 4 25 32 55 62 81 80 93
142 33 184 -21 15 -98 20 -140 9z"/>
<path d="M13991 4954 c-33 -24 -51 -74 -51 -146 0 -73 22 -126 60 -145 100
-50 182 63 150 206 -16 69 -46 101 -97 101 -21 0 -49 -7 -62 -16z m93 -46 c31
-51 27 -171 -7 -205 -25 -26 -63 -9 -77 33 -15 44 -9 156 9 178 19 23 58 20
75 -6z"/>
<path d="M1005 4825 c-31 -30 -33 -75 -5 -100 20 -18 20 -19 1 -39 -27 -31
-34 -63 -20 -97 15 -37 55 -59 109 -59 85 0 133 96 75 150 -24 23 -24 23 -5
37 31 22 27 86 -6 112 -39 31 -117 29 -149 -4z m113 -24 c18 -11 11 -61 -9
-74 -9 -5 -28 -7 -42 -3 -31 7 -46 48 -27 71 14 16 57 20 78 6z m6 -137 c34
-33 9 -94 -38 -94 -34 0 -58 23 -58 55 0 49 62 74 96 39z"/>
<path d="M1291 4834 c-33 -24 -51 -74 -51 -146 0 -73 22 -126 60 -145 100 -50
182 63 150 206 -16 69 -46 101 -97 101 -21 0 -49 -7 -62 -16z m93 -46 c31 -51
27 -171 -7 -205 -25 -26 -63 -9 -77 33 -15 44 -9 156 9 178 19 23 58 20 75 -6z"/>
<path d="M1557 4839 c-68 -40 -72 -228 -6 -284 52 -43 120 -27 151 35 21 43
23 148 4 194 -8 18 -24 41 -37 50 -26 18 -85 21 -112 5z m93 -44 c18 -22 25
-135 10 -179 -13 -42 -52 -59 -77 -34 -35 36 -39 155 -7 206 17 25 55 29 74 7z"/>
<path d="M300 4499 c0 -52 2 -60 18 -57 10 2 18 14 20 31 l3 27 185 0 184 0 0
-30 c0 -23 4 -30 20 -30 18 0 20 7 20 60 l0 60 -225 0 -225 0 0 -61z"/>
<path d="M580 4315 l-95 -96 -87 93 -87 93 -1 -36 c0 -31 10 -47 76 -117 l76
-82 -77 0 -76 0 3 -27 3 -28 183 -3 182 -2 0 30 0 30 -82 0 -83 0 83 83 c78
78 83 86 80 121 l-3 37 -95 -96z"/>
<path d="M13717 4159 c-23 -13 -47 -62 -47 -94 0 -34 25 -82 49 -95 25 -13 77
-13 100 0 15 8 17 6 13 -15 -9 -47 -61 -70 -122 -54 -9 2 -16 -4 -18 -17 -5
-36 65 -46 124 -18 84 40 101 226 26 285 -27 21 -95 25 -125 8z m97 -45 c9 -8
16 -31 16 -49 0 -61 -62 -89 -94 -43 -44 63 26 145 78 92z"/>
<path d="M13991 4154 c-33 -24 -51 -74 -51 -146 0 -73 22 -126 60 -145 100
-50 182 63 150 206 -16 69 -46 101 -97 101 -21 0 -49 -7 -62 -16z m93 -46 c31
-51 27 -171 -7 -205 -25 -26 -63 -9 -77 33 -15 44 -9 156 9 178 19 23 58 20
75 -6z"/>
<path d="M1037 4070 c-43 -34 -60 -77 -60 -147 1 -104 48 -159 128 -149 53 6
85 43 85 96 0 87 -59 133 -137 106 -32 -10 -30 18 3 51 22 22 31 25 70 19 43
-5 45 -4 42 17 -3 19 -10 22 -54 25 -39 2 -56 -2 -77 -18z m93 -149 c15 -29
12 -77 -6 -95 -49 -50 -119 29 -80 89 21 31 70 34 86 6z"/>
<path d="M1291 4074 c-33 -24 -51 -74 -51 -146 0 -73 22 -126 60 -145 100 -50
182 63 150 206 -16 69 -46 101 -97 101 -21 0 -49 -7 -62 -16z m93 -46 c31 -51
27 -171 -7 -205 -25 -26 -63 -9 -77 33 -15 44 -9 156 9 178 19 23 58 20 75 -6z"/>
<path d="M1557 4079 c-68 -40 -72 -228 -6 -284 52 -43 120 -27 151 35 21 43
23 148 4 194 -8 18 -24 41 -37 50 -26 18 -85 21 -112 5z m93 -44 c18 -22 25
-135 10 -179 -13 -42 -52 -59 -77 -34 -35 36 -39 155 -7 206 17 25 55 29 74 7z"/>
<path d="M460 4019 c-45 -18 -60 -40 -60 -84 0 -28 7 -51 21 -69 l21 -27 -21
-23 c-25 -27 -29 -97 -6 -116 14 -11 13 -14 -1 -24 -9 -7 -15 -21 -12 -32 3
-17 14 -19 141 -22 l137 -3 0 31 0 30 -97 0 c-54 0 -103 4 -109 8 -20 13 -35
52 -29 73 10 29 45 39 146 39 87 0 89 0 89 24 0 24 -2 24 -100 28 -77 2 -103
7 -116 20 -21 21 -23 76 -3 89 8 5 60 9 117 9 l102 0 0 30 0 30 -97 -1 c-54 0
-109 -5 -123 -10z"/>
<path d="M300 3485 l0 -55 225 0 225 0 0 55 c0 48 -2 55 -20 55 -16 0 -20 -7
-20 -30 l0 -30 -185 0 -185 0 0 30 c0 23 -4 30 -20 30 -18 0 -20 -7 -20 -55z"/>
<path d="M13737 3360 c-43 -34 -60 -77 -60 -147 1 -104 48 -159 128 -149 53 6
85 43 85 96 0 87 -59 133 -137 106 -32 -10 -30 18 3 51 22 22 31 25 70 19 43
-5 45 -4 42 17 -3 19 -10 22 -54 25 -39 2 -56 -2 -77 -18z m93 -149 c15 -29
12 -77 -6 -95 -49 -50 -119 29 -80 89 21 31 70 34 86 6z"/>
<path d="M13991 3364 c-33 -24 -51 -74 -51 -146 0 -73 22 -126 60 -145 100
-50 182 63 150 206 -16 69 -46 101 -97 101 -21 0 -49 -7 -62 -16z m93 -46 c31
-51 27 -171 -7 -205 -25 -26 -63 -9 -77 33 -15 44 -9 156 9 178 19 23 58 20
75 -6z"/>
<path d="M1033 3225 c-35 -53 -63 -106 -63 -120 0 -24 2 -25 65 -25 l65 0 0
-35 c0 -31 3 -35 25 -35 22 0 25 4 25 35 0 31 3 35 25 35 18 0 25 5 25 20 0
15 -7 20 -25 20 l-25 0 0 100 0 100 -27 0 c-24 0 -37 -14 -90 -95z m67 -40 l0
-65 -45 0 -45 0 42 65 c24 35 44 65 46 65 1 0 2 -29 2 -65z"/>
<path d="M1291 3304 c-33 -24 -51 -74 -51 -146 0 -73 22 -126 60 -145 100 -50
182 63 150 206 -16 69 -46 101 -97 101 -21 0 -49 -7 -62 -16z m93 -46 c31 -51
27 -171 -7 -205 -25 -26 -63 -9 -77 33 -15 44 -9 156 9 178 19 23 58 20 75 -6z"/>
<path d="M1557 3309 c-68 -40 -72 -228 -6 -284 52 -43 120 -27 151 35 21 43
23 148 4 194 -8 18 -24 41 -37 50 -26 18 -85 21 -112 5z m93 -44 c18 -22 25
-135 10 -179 -13 -42 -52 -59 -77 -34 -35 36 -39 155 -7 206 17 25 55 29 74 7z"/>
<path d="M508 3173 c-16 -17 -33 -55 -45 -98 -17 -64 -20 -70 -46 -73 -16 -2
-34 1 -41 8 -27 21 -27 90 -1 153 6 14 2 17 -24 17 -17 0 -31 -2 -31 -4 0 -2
-5 -27 -10 -56 -19 -102 25 -180 102 -180 49 0 92 41 103 97 14 74 31 103 62
103 15 0 34 -4 42 -9 21 -14 26 -100 7 -145 -20 -49 -21 -46 14 -46 25 0 30 5
39 38 14 49 14 128 0 155 -26 50 -51 67 -99 67 -38 0 -51 -5 -72 -27z"/>
<path d="M314 2856 c-3 -8 -4 -27 -2 -43 3 -26 11 -31 121 -73 l118 -44 -88
-33 c-155 -58 -155 -58 -151 -101 l3 -37 183 -3 182 -2 0 30 0 30 -147 1 -148
0 112 42 c109 41 113 43 113 72 0 29 -4 32 -108 72 l-107 42 143 0 142 1 0 30
0 30 -180 0 c-147 0 -182 -3 -186 -14z"/>
<path d="M13703 2583 c-7 -2 -13 -14 -13 -24 0 -18 5 -20 44 -14 53 8 83 0 91
-24 10 -33 -5 -50 -51 -57 -34 -5 -44 -10 -44 -25 0 -15 7 -19 35 -19 40 0 80
-32 71 -57 -3 -8 -6 -18 -6 -23 0 -13 -67 -32 -90 -26 -11 3 -29 9 -40 12 -16
4 -20 1 -20 -19 0 -19 6 -26 31 -31 55 -11 93 -7 127 14 54 33 64 97 21 136
-18 16 -18 17 1 42 33 41 22 84 -27 110 -21 12 -106 15 -130 5z"/>
<path d="M13991 2574 c-33 -24 -51 -74 -51 -146 0 -73 22 -126 60 -145 100
-50 182 63 150 206 -16 69 -46 101 -97 101 -21 0 -49 -7 -62 -16z m93 -46 c31
-51 27 -171 -7 -205 -25 -26 -63 -9 -77 33 -15 44 -9 156 9 178 19 23 58 20
75 -6z"/>
<path d="M998 2553 c-12 -3 -18 -14 -18 -33 l0 -29 35 15 c51 21 82 18 100
-10 21 -32 12 -49 -72 -140 -34 -38 -63 -77 -63 -87 0 -17 9 -19 101 -19 90 0
100 2 97 18 -3 14 -16 18 -66 20 -34 2 -62 6 -62 10 0 4 25 32 55 62 81 80 93
142 33 184 -21 15 -98 20 -140 9z"/>
<path d="M1291 2544 c-33 -24 -51 -74 -51 -146 0 -73 22 -126 60 -145 100 -50
182 63 150 206 -16 69 -46 101 -97 101 -21 0 -49 -7 -62 -16z m93 -46 c31 -51
27 -171 -7 -205 -25 -26 -63 -9 -77 33 -15 44 -9 156 9 178 19 23 58 20 75 -6z"/>
<path d="M1557 2549 c-68 -40 -72 -228 -6 -284 52 -43 120 -27 151 35 21 43
23 148 4 194 -8 18 -24 41 -37 50 -26 18 -85 21 -112 5z m93 -44 c18 -22 25
-135 10 -179 -13 -42 -52 -59 -77 -34 -35 36 -39 155 -7 206 17 25 55 29 74 7z"/>
<path d="M611 2435 c-35 -19 -72 -42 -82 -51 -17 -16 -20 -15 -36 5 -22 27
-88 37 -123 19 -42 -22 -61 -73 -58 -158 l3 -75 183 -3 182 -2 0 30 0 30 -75
0 -75 0 0 38 c0 51 17 72 89 106 57 28 61 32 61 63 0 18 -1 33 -2 33 -2 0 -32
-16 -67 -35z m-151 -95 c14 -14 20 -33 20 -65 l0 -45 -60 0 -60 0 0 45 c0 50
25 85 60 85 11 0 29 -9 40 -20z"/>
<path d="M1557 1789 c-68 -40 -72 -228 -6 -284 52 -43 120 -27 151 35 21 43
23 148 4 194 -8 18 -24 41 -37 50 -26 18 -85 21 -112 5z m93 -44 c18 -22 25
-135 10 -179 -13 -42 -52 -59 -77 -34 -35 36 -39 155 -7 206 17 25 55 29 74 7z"/>
<path d="M13991 1784 c-33 -24 -51 -74 -51 -146 0 -73 22 -126 60 -145 100
-50 182 63 150 206 -16 69 -46 101 -97 101 -21 0 -49 -7 -62 -16z m93 -46 c31
-51 27 -171 -7 -205 -25 -26 -63 -9 -77 33 -15 44 -9 156 9 178 19 23 58 20
75 -6z"/>
<path d="M1981 1334 c-33 -24 -51 -74 -51 -146 0 -73 22 -126 60 -145 100 -50
182 63 150 206 -16 69 -46 101 -97 101 -21 0 -49 -7 -62 -16z m93 -46 c31 -51
27 -171 -7 -205 -25 -26 -63 -9 -77 33 -15 44 -9 156 9 178 19 23 58 20 75 -6z"/>
<path d="M2853 1340 c-13 -6 -23 -18 -23 -30 0 -23 1 -24 50 -9 50 15 88 5 96
-25 8 -34 -15 -72 -85 -141 -88 -86 -85 -95 39 -95 93 0 100 1 100 20 0 18 -7
20 -67 20 l-67 0 50 53 c28 28 58 63 68 77 44 67 -4 141 -92 139 -26 0 -57 -4
-69 -9z"/>
<path d="M3786 1250 c-36 -55 -66 -110 -66 -120 0 -18 7 -20 70 -20 l70 0 0
-35 c0 -31 3 -35 25 -35 22 0 25 4 25 35 0 28 4 35 20 35 13 0 20 7 20 20 0
13 -7 20 -20 20 -18 0 -20 8 -22 98 l-3 97 -27 3 c-24 3 -33 -7 -92 -98z m71
-97 c-3 -2 -23 -3 -46 -1 l-40 3 42 68 42 68 3 -67 c2 -36 1 -68 -1 -71z"/>
<path d="M4697 1330 c-43 -34 -60 -77 -60 -147 1 -104 48 -159 128 -149 53 6
85 43 85 96 0 87 -59 133 -137 106 -32 -10 -30 18 3 51 22 22 31 25 70 19 43
-5 45 -4 42 17 -3 19 -10 22 -54 25 -39 2 -56 -2 -77 -18z m93 -149 c15 -29
12 -77 -6 -95 -49 -50 -119 29 -80 89 21 31 70 34 86 6z"/>
<path d="M5565 1325 c-31 -30 -33 -75 -5 -100 20 -18 20 -19 1 -39 -27 -31
-34 -63 -20 -97 15 -37 55 -59 109 -59 85 0 133 96 75 150 -24 23 -24 23 -5
37 31 22 27 86 -6 112 -39 31 -117 29 -149 -4z m113 -24 c18 -11 11 -61 -9
-74 -9 -5 -28 -7 -42 -3 -31 7 -46 48 -27 71 14 16 57 20 78 6z m6 -137 c34
-33 9 -94 -38 -94 -34 0 -58 23 -58 55 0 49 62 74 96 39z"/>
<path d="M6355 1341 c-22 -4 -31 -13 -33 -30 -4 -22 -1 -24 32 -18 l36 6 0
-110 0 -109 -30 0 c-23 0 -30 -4 -30 -20 0 -19 7 -20 90 -20 83 0 90 1 90 20
0 16 -7 20 -35 20 l-35 0 0 135 0 135 -27 -1 c-16 -1 -41 -4 -58 -8z"/>
<path d="M6621 1334 c-33 -24 -51 -74 -51 -146 0 -73 22 -126 60 -145 100 -50
182 63 150 206 -16 69 -46 101 -97 101 -21 0 -49 -7 -62 -16z m93 -46 c31 -51
27 -171 -7 -205 -25 -26 -63 -9 -77 33 -15 44 -9 156 9 178 19 23 58 20 75 -6z"/>
<path d="M7255 1341 c-22 -4 -31 -13 -33 -30 -4 -22 -1 -24 32 -18 l36 6 0
-110 0 -109 -30 0 c-23 0 -30 -4 -30 -20 0 -19 7 -20 90 -20 83 0 90 1 90 20
0 16 -7 20 -35 20 l-35 0 0 135 0 135 -27 -1 c-16 -1 -41 -4 -58 -8z"/>
<path d="M7493 1340 c-13 -6 -23 -18 -23 -30 0 -23 1 -24 50 -9 50 15 88 5 96
-25 8 -34 -15 -72 -85 -141 -88 -86 -85 -95 39 -95 93 0 100 1 100 20 0 18 -7
20 -67 20 l-67 0 50 53 c28 28 58 63 68 77 44 67 -4 141 -92 139 -26 0 -57 -4
-69 -9z"/>
<path d="M8155 1341 c-22 -4 -31 -13 -33 -30 -4 -22 -1 -24 32 -18 l36 6 0
-110 0 -109 -30 0 c-23 0 -30 -4 -30 -20 0 -19 7 -20 90 -20 83 0 90 1 90 20
0 16 -7 20 -35 20 l-35 0 0 135 0 135 -27 -1 c-16 -1 -41 -4 -58 -8z"/>
<path d="M8426 1250 c-36 -55 -66 -110 -66 -120 0 -18 7 -20 70 -20 l70 0 0
-35 c0 -31 3 -35 25 -35 22 0 25 4 25 35 0 28 4 35 20 35 13 0 20 7 20 20 0
13 -7 20 -20 20 -18 0 -20 8 -22 98 l-3 97 -27 3 c-24 3 -33 -7 -92 -98z m71
-97 c-3 -2 -23 -3 -46 -1 l-40 3 42 68 42 68 3 -67 c2 -36 1 -68 -1 -71z"/>
<path d="M9055 1341 c-22 -4 -31 -13 -33 -30 -4 -22 -1 -24 32 -18 l36 6 0
-110 0 -109 -30 0 c-23 0 -30 -4 -30 -20 0 -19 7 -20 90 -20 83 0 90 1 90 20
0 16 -7 20 -35 20 l-35 0 0 135 0 135 -27 -1 c-16 -1 -41 -4 -58 -8z"/>
<path d="M9328 1327 c-35 -28 -58 -84 -58 -142 0 -125 99 -196 179 -129 27 23
31 32 31 78 0 62 -17 90 -65 106 -28 9 -41 9 -65 -3 -35 -18 -35 -18 -16 28
17 39 46 51 101 41 30 -6 35 -4 35 12 0 39 -98 46 -142 9z m98 -152 c39 -60
-31 -139 -80 -89 -18 18 -21 66 -6 95 16 28 65 25 86 -6z"/>
<path d="M9960 1341 c-16 -4 -26 -15 -28 -30 -3 -22 -1 -23 32 -17 l36 7 0
-110 0 -110 -32 -3 c-22 -2 -34 -9 -36 -20 -3 -16 7 -18 93 -18 86 0 96 2 93
18 -2 11 -14 18 -35 20 l-32 3 -3 132 -3 132 -30 2 c-16 1 -41 -2 -55 -6z"/>
<path d="M10205 1325 c-31 -30 -33 -75 -5 -100 20 -18 20 -19 1 -39 -27 -31
-34 -63 -20 -97 15 -37 55 -59 109 -59 85 0 133 96 75 150 -24 23 -24 23 -5
37 31 22 27 86 -6 112 -39 31 -117 29 -149 -4z m113 -24 c18 -11 11 -61 -9
-74 -9 -5 -28 -7 -42 -3 -31 7 -46 48 -27 71 14 16 57 20 78 6z m6 -137 c34
-33 9 -94 -38 -94 -34 0 -58 23 -58 55 0 49 62 74 96 39z"/>
<path d="M10833 1340 c-13 -6 -23 -18 -23 -30 0 -23 1 -24 50 -9 50 15 88 5
96 -25 8 -34 -15 -72 -85 -141 -88 -86 -85 -95 39 -95 93 0 100 1 100 20 0 18
-7 20 -67 20 l-67 0 50 53 c28 28 58 63 68 77 44 67 -4 141 -92 139 -26 0 -57
-4 -69 -9z"/>
<path d="M11127 1339 c-68 -40 -72 -228 -6 -284 52 -43 120 -27 151 35 21 43
23 148 4 194 -8 18 -24 41 -37 50 -26 18 -85 21 -112 5z m93 -44 c18 -22 25
-135 10 -179 -13 -42 -52 -59 -77 -34 -35 36 -39 155 -7 206 17 25 55 29 74 7z"/>
<path d="M11733 1340 c-13 -6 -23 -18 -23 -30 0 -23 1 -24 50 -9 50 15 88 5
96 -25 8 -34 -15 -72 -85 -141 -88 -86 -85 -95 39 -95 93 0 100 1 100 20 0 18
-7 20 -67 20 l-67 0 50 53 c28 28 58 63 68 77 44 67 -4 141 -92 139 -26 0 -57
-4 -69 -9z"/>
<path d="M11998 1343 c-12 -3 -18 -14 -18 -33 l0 -29 35 15 c51 21 82 18 100
-10 21 -32 12 -49 -72 -140 -34 -38 -63 -77 -63 -87 0 -17 9 -19 101 -19 90 0
100 2 97 18 -3 14 -16 18 -66 20 -34 2 -62 6 -62 10 0 4 25 32 55 62 81 80 93
142 33 184 -21 15 -98 20 -140 9z"/>
<path d="M12633 1340 c-13 -6 -23 -18 -23 -30 0 -23 1 -24 50 -9 50 15 88 5
96 -25 8 -34 -15 -72 -85 -141 -88 -86 -85 -95 39 -95 93 0 100 1 100 20 0 18
-7 20 -67 20 l-67 0 50 53 c28 28 58 63 68 77 44 67 -4 141 -92 139 -26 0 -57
-4 -69 -9z"/>
<path d="M12933 1255 c-35 -53 -63 -106 -63 -120 0 -24 2 -25 65 -25 l65 0 0
-35 c0 -31 3 -35 25 -35 22 0 25 4 25 35 0 31 3 35 25 35 18 0 25 5 25 20 0
15 -7 20 -25 20 l-25 0 0 100 0 100 -27 0 c-24 0 -37 -14 -90 -95z m67 -40 l0
-65 -45 0 -45 0 42 65 c24 35 44 65 46 65 1 0 2 -29 2 -65z"/>
<path d="M14417 1339 c-68 -40 -72 -228 -6 -284 52 -43 120 -27 151 35 21 43
23 148 4 194 -8 18 -24 41 -37 50 -26 18 -85 21 -112 5z m93 -44 c18 -22 25
-135 10 -179 -13 -42 -52 -59 -77 -34 -35 36 -39 155 -7 206 17 25 55 29 74 7z"/>
<path d="M15288 1343 c-12 -3 -18 -14 -18 -33 l0 -29 35 15 c51 21 82 18 100
-10 21 -32 12 -49 -72 -140 -34 -38 -63 -77 -63 -87 0 -17 9 -19 101 -19 90 0
100 2 97 18 -3 14 -16 18 -66 20 -34 2 -62 6 -62 10 0 4 25 32 55 62 81 80 93
142 33 184 -21 15 -98 20 -140 9z"/>
<path d="M16226 1250 c-36 -55 -66 -110 -66 -120 0 -18 7 -20 70 -20 l70 0 0
-35 c0 -31 3 -35 25 -35 22 0 25 4 25 35 0 28 4 35 20 35 13 0 20 7 20 20 0
13 -7 20 -20 20 -18 0 -20 8 -22 98 l-3 97 -27 3 c-24 3 -33 -7 -92 -98z m71
-97 c-3 -2 -23 -3 -46 -1 l-40 3 42 68 42 68 3 -67 c2 -36 1 -68 -1 -71z"/>
<path d="M17128 1327 c-35 -28 -58 -84 -58 -142 0 -125 99 -196 179 -129 27
23 31 32 31 78 0 62 -17 90 -65 106 -28 9 -41 9 -65 -3 -35 -18 -35 -18 -16
28 17 39 46 51 101 41 30 -6 35 -4 35 12 0 39 -98 46 -142 9z m98 -152 c39
-60 -31 -139 -80 -89 -18 18 -21 66 -6 95 16 28 65 25 86 -6z"/>
<path d="M18006 1329 c-33 -26 -37 -90 -6 -112 19 -14 19 -14 -5 -37 -58 -54
-10 -150 75 -150 46 0 94 21 104 45 13 35 6 92 -14 110 l-20 18 20 22 c27 29
25 71 -5 100 -32 33 -110 35 -149 4z m114 -34 c19 -23 4 -64 -27 -71 -14 -4
-33 -2 -42 3 -20 13 -27 63 -9 74 21 14 64 10 78 -6z m-6 -128 c41 -30 13 -97
-40 -97 -29 0 -54 25 -54 55 0 47 54 71 94 42z"/>
<path d="M18790 1341 c-16 -4 -26 -15 -28 -30 -3 -22 -1 -23 32 -17 l36 7 0
-110 0 -110 -32 -3 c-22 -2 -34 -9 -36 -20 -3 -16 7 -18 93 -18 86 0 96 2 93
18 -2 11 -14 18 -35 20 l-32 3 -3 132 -3 132 -30 2 c-16 1 -41 -2 -55 -6z"/>
<path d="M19057 1339 c-68 -40 -72 -228 -6 -284 52 -43 120 -27 151 35 21 43
23 148 4 194 -8 18 -24 41 -37 50 -26 18 -85 21 -112 5z m93 -44 c18 -22 25
-135 10 -179 -13 -42 -52 -59 -77 -34 -35 36 -39 155 -7 206 17 25 55 29 74 7z"/>
<path d="M19690 1341 c-16 -4 -26 -15 -28 -30 -3 -22 -1 -23 32 -17 l36 7 0
-110 0 -110 -32 -3 c-22 -2 -34 -9 -36 -20 -3 -16 7 -18 93 -18 86 0 96 2 93
18 -2 11 -14 18 -35 20 l-32 3 -3 132 -3 132 -30 2 c-16 1 -41 -2 -55 -6z"/>
<path d="M19928 1343 c-12 -3 -18 -14 -18 -33 l0 -29 35 15 c51 21 82 18 100
-10 21 -32 12 -49 -72 -140 -34 -38 -63 -77 -63 -87 0 -17 9 -19 101 -19 90 0
100 2 97 18 -3 14 -16 18 -66 20 -34 2 -62 6 -62 10 0 4 25 32 55 62 81 80 93
142 33 184 -21 15 -98 20 -140 9z"/>
<path d="M20590 1341 c-16 -4 -26 -15 -28 -30 -3 -22 -1 -23 32 -17 l36 7 0
-110 0 -110 -32 -3 c-22 -2 -34 -9 -36 -20 -3 -16 7 -18 93 -18 86 0 96 2 93
18 -2 11 -14 18 -35 20 l-32 3 -3 132 -3 132 -30 2 c-16 1 -41 -2 -55 -6z"/>
<path d="M20863 1255 c-35 -53 -63 -106 -63 -120 0 -24 2 -25 65 -25 l65 0 0
-35 c0 -31 3 -35 25 -35 22 0 25 4 25 35 0 31 3 35 25 35 18 0 25 5 25 20 0
15 -7 20 -25 20 l-25 0 0 100 0 100 -27 0 c-24 0 -37 -14 -90 -95z m67 -40 l0
-65 -45 0 -45 0 42 65 c24 35 44 65 46 65 1 0 2 -29 2 -65z"/>
<path d="M21495 1341 c-22 -4 -31 -13 -33 -30 -4 -22 -1 -24 32 -18 l36 6 0
-110 0 -109 -30 0 c-23 0 -30 -4 -30 -20 0 -19 7 -20 90 -20 83 0 90 1 90 20
0 16 -7 20 -35 20 l-35 0 0 135 0 135 -27 -1 c-16 -1 -41 -4 -58 -8z"/>
<path d="M21768 1327 c-35 -28 -58 -84 -58 -142 0 -125 99 -196 179 -129 27
23 31 32 31 78 0 62 -17 90 -65 106 -28 9 -41 9 -65 -3 -35 -18 -35 -18 -16
28 17 39 46 51 101 41 30 -6 35 -4 35 12 0 39 -98 46 -142 9z m98 -152 c39
-60 -31 -139 -80 -89 -18 18 -21 66 -6 95 16 28 65 25 86 -6z"/>
<path d="M22395 1341 c-22 -4 -31 -13 -33 -30 -4 -22 -1 -24 32 -18 l36 6 0
-110 0 -109 -30 0 c-23 0 -30 -4 -30 -20 0 -19 7 -20 90 -20 83 0 90 1 90 20
0 16 -7 20 -35 20 l-35 0 0 135 0 135 -27 -1 c-16 -1 -41 -4 -58 -8z"/>
<path d="M22646 1329 c-33 -26 -37 -90 -6 -112 19 -14 19 -14 -5 -37 -58 -54
-10 -150 75 -150 46 0 94 21 104 45 13 35 6 92 -14 110 l-20 18 20 22 c27 29
25 71 -5 100 -32 33 -110 35 -149 4z m114 -34 c19 -23 4 -64 -27 -71 -14 -4
-33 -2 -42 3 -20 13 -27 63 -9 74 21 14 64 10 78 -6z m-6 -128 c41 -30 13 -97
-40 -97 -29 0 -54 25 -54 55 0 47 54 71 94 42z"/>
<path d="M23268 1343 c-12 -3 -18 -14 -18 -33 l0 -29 35 15 c51 21 82 18 100
-10 21 -32 12 -49 -72 -140 -34 -38 -63 -77 -63 -87 0 -17 9 -19 101 -19 90 0
100 2 97 18 -3 14 -16 18 -66 20 -34 2 -62 6 -62 10 0 4 25 32 55 62 81 80 93
142 33 184 -21 15 -98 20 -140 9z"/>
<path d="M23561 1334 c-33 -24 -51 -74 -51 -146 0 -73 22 -126 60 -145 100
-50 182 63 150 206 -16 69 -46 101 -97 101 -21 0 -49 -7 -62 -16z m93 -46 c31
-51 27 -171 -7 -205 -25 -26 -63 -9 -77 33 -15 44 -9 156 9 178 19 23 58 20
75 -6z"/>
<path d="M24168 1343 c-12 -3 -18 -14 -18 -33 l0 -29 35 15 c51 21 82 18 100
-10 21 -32 12 -49 -72 -140 -34 -38 -63 -77 -63 -87 0 -17 9 -19 101 -19 90 0
100 2 97 18 -3 14 -16 18 -66 20 -34 2 -62 6 -62 10 0 4 25 32 55 62 81 80 93
142 33 184 -21 15 -98 20 -140 9z"/>
<path d="M24433 1340 c-13 -6 -23 -18 -23 -30 0 -23 1 -24 50 -9 50 15 88 5
96 -25 8 -34 -15 -72 -85 -141 -88 -86 -85 -95 39 -95 93 0 100 1 100 20 0 18
-7 20 -67 20 l-67 0 50 53 c28 28 58 63 68 77 44 67 -4 141 -92 139 -26 0 -57
-4 -69 -9z"/>
<path d="M25073 1340 c-13 -6 -23 -18 -23 -30 0 -23 1 -24 50 -9 50 15 88 5
96 -25 8 -34 -15 -72 -85 -141 -88 -86 -85 -95 39 -95 93 0 100 1 100 20 0 18
-7 20 -67 20 l-67 0 50 53 c28 28 58 63 68 77 44 67 -4 141 -92 139 -26 0 -57
-4 -69 -9z"/>
<path d="M25373 1255 c-35 -53 -63 -106 -63 -120 0 -24 2 -25 65 -25 l65 0 0
-35 c0 -31 3 -35 25 -35 22 0 25 4 25 35 0 31 3 35 25 35 18 0 25 5 25 20 0
15 -7 20 -25 20 l-25 0 0 100 0 100 -27 0 c-24 0 -37 -14 -90 -95z m67 -40 l0
-65 -45 0 -45 0 42 65 c24 35 44 65 46 65 1 0 2 -29 2 -65z"/>
<path d="M6945 765 c-50 -18 -74 -50 -75 -98 0 -48 41 -91 97 -102 74 -14 103
-31 103 -62 0 -15 -4 -34 -9 -42 -14 -21 -100 -26 -145 -7 -49 20 -46 21 -46
-14 0 -25 5 -30 38 -39 49 -14 128 -14 155 0 50 26 67 51 67 99 0 62 -32 92
-125 117 -64 17 -70 20 -73 46 -2 16 1 34 8 41 21 27 90 27 153 1 14 -6 17 -2
17 23 0 25 -5 31 -27 36 -74 14 -101 15 -138 1z"/>
<path d="M7660 555 l0 -225 55 0 c48 0 55 2 55 20 0 16 -7 20 -30 20 l-30 0 0
185 0 185 30 0 c23 0 30 4 30 20 0 18 -7 20 -55 20 l-55 0 0 -225z"/>
<path d="M7860 590 l0 -190 25 0 c25 0 25 0 25 94 0 110 14 139 70 139 50 0
60 -21 60 -135 0 -98 0 -98 25 -98 l25 0 0 105 c0 110 -12 156 -45 169 -30 11
-90 6 -113 -10 l-22 -15 0 65 c0 64 -1 66 -25 66 l-25 0 0 -190z"/>
<path d="M8180 760 c0 -16 7 -20 30 -20 l30 0 0 -185 0 -185 -30 0 c-23 0 -30
-4 -30 -20 0 -18 7 -20 55 -20 l55 0 0 225 0 225 -55 0 c-48 0 -55 -2 -55 -20z"/>
<path d="M6607 763 c-4 -3 -7 -87 -7 -185 l0 -178 120 0 120 0 0 25 c0 25 -1
25 -90 25 l-90 0 0 160 0 160 -23 0 c-13 0 -27 -3 -30 -7z"/>
<path d="M7150 745 c0 -24 2 -25 65 -25 l65 0 0 -160 0 -160 30 0 30 0 0 160
0 160 60 0 c57 0 60 1 60 25 l0 25 -155 0 -155 0 0 -25z"/>
</g>
</svg>
