<?xml version="1.0" encoding="utf-8" standalone="no"?>
<!DOCTYPE svg PUBLIC "-//W3C//DTD SVG 1.1//EN"
  "http://www.w3.org/Graphics/SVG/1.1/DTD/svg11.dtd">
<!-- Created with matplotlib (https://matplotlib.org/) -->
<svg height="345.6pt" version="1.1" viewBox="0 0 460.8 345.6" width="460.8pt" xmlns="http://www.w3.org/2000/svg" xmlns:xlink="http://www.w3.org/1999/xlink">
 <metadata>
  <rdf:RDF xmlns:cc="http://creativecommons.org/ns#" xmlns:dc="http://purl.org/dc/elements/1.1/" xmlns:rdf="http://www.w3.org/1999/02/22-rdf-syntax-ns#">
   <cc:Work>
    <dc:type rdf:resource="http://purl.org/dc/dcmitype/StillImage"/>
    <dc:date>2021-04-23T15:21:43.525342</dc:date>
    <dc:format>image/svg+xml</dc:format>
    <dc:creator>
     <cc:Agent>
      <dc:title>Matplotlib v3.3.3, https://matplotlib.org/</dc:title>
     </cc:Agent>
    </dc:creator>
   </cc:Work>
  </rdf:RDF>
 </metadata>
 <defs>
  <style type="text/css">*{stroke-linecap:butt;stroke-linejoin:round;}</style>
 </defs>
 <g id="figure_1">
  <g id="patch_1">
   <path d="M 0 345.6 
L 460.8 345.6 
L 460.8 0 
L 0 0 
z
" style="fill:#ffffff;"/>
  </g>
  <g id="axes_1">
   <g id="patch_2">
    <path d="M 57.6 307.584 
L 414.72 307.584 
L 414.72 41.472 
L 57.6 41.472 
z
" style="fill:#ffffff;"/>
   </g>
   <g id="matplotlib.axis_1">
    <g id="xtick_1">
     <g id="line2d_1">
      <defs>
       <path d="M 0 0 
L 0 3.5 
" id="me6a5436590" style="stroke:#000000;stroke-width:0.8;"/>
      </defs>
      <g>
       <use style="stroke:#000000;stroke-width:0.8;" x="73.829029" xlink:href="#me6a5436590" y="307.584"/>
      </g>
     </g>
     <g id="text_1">
      <!-- 0 -->
      <g transform="translate(70.647779 322.182437)scale(0.1 -0.1)">
       <defs>
        <path d="M 31.78125 66.40625 
Q 24.171875 66.40625 20.328125 58.90625 
Q 16.5 51.421875 16.5 36.375 
Q 16.5 21.390625 20.328125 13.890625 
Q 24.171875 6.390625 31.78125 6.390625 
Q 39.453125 6.390625 43.28125 13.890625 
Q 47.125 21.390625 47.125 36.375 
Q 47.125 51.421875 43.28125 58.90625 
Q 39.453125 66.40625 31.78125 66.40625 
z
M 31.78125 74.21875 
Q 44.046875 74.21875 50.515625 64.515625 
Q 56.984375 54.828125 56.984375 36.375 
Q 56.984375 17.96875 50.515625 8.265625 
Q 44.046875 -1.421875 31.78125 -1.421875 
Q 19.53125 -1.421875 13.0625 8.265625 
Q 6.59375 17.96875 6.59375 36.375 
Q 6.59375 54.828125 13.0625 64.515625 
Q 19.53125 74.21875 31.78125 74.21875 
z
" id="DejaVuSans-48"/>
       </defs>
       <use xlink:href="#DejaVuSans-48"/>
      </g>
     </g>
    </g>
    <g id="xtick_2">
     <g id="line2d_2">
      <g>
       <use style="stroke:#000000;stroke-width:0.8;" x="141.468597" xlink:href="#me6a5436590" y="307.584"/>
      </g>
     </g>
     <g id="text_2">
      <!-- 5 -->
      <g transform="translate(138.287347 322.182437)scale(0.1 -0.1)">
       <defs>
        <path d="M 10.796875 72.90625 
L 49.515625 72.90625 
L 49.515625 64.59375 
L 19.828125 64.59375 
L 19.828125 46.734375 
Q 21.96875 47.46875 24.109375 47.828125 
Q 26.265625 48.1875 28.421875 48.1875 
Q 40.625 48.1875 47.75 41.5 
Q 54.890625 34.8125 54.890625 23.390625 
Q 54.890625 11.625 47.5625 5.09375 
Q 40.234375 -1.421875 26.90625 -1.421875 
Q 22.3125 -1.421875 17.546875 -0.640625 
Q 12.796875 0.140625 7.71875 1.703125 
L 7.71875 11.625 
Q 12.109375 9.234375 16.796875 8.0625 
Q 21.484375 6.890625 26.703125 6.890625 
Q 35.15625 6.890625 40.078125 11.328125 
Q 45.015625 15.765625 45.015625 23.390625 
Q 45.015625 31 40.078125 35.4375 
Q 35.15625 39.890625 26.703125 39.890625 
Q 22.75 39.890625 18.8125 39.015625 
Q 14.890625 38.140625 10.796875 36.28125 
z
" id="DejaVuSans-53"/>
       </defs>
       <use xlink:href="#DejaVuSans-53"/>
      </g>
     </g>
    </g>
    <g id="xtick_3">
     <g id="line2d_3">
      <g>
       <use style="stroke:#000000;stroke-width:0.8;" x="209.108166" xlink:href="#me6a5436590" y="307.584"/>
      </g>
     </g>
     <g id="text_3">
      <!-- 10 -->
      <g transform="translate(202.745666 322.182437)scale(0.1 -0.1)">
       <defs>
        <path d="M 12.40625 8.296875 
L 28.515625 8.296875 
L 28.515625 63.921875 
L 10.984375 60.40625 
L 10.984375 69.390625 
L 28.421875 72.90625 
L 38.28125 72.90625 
L 38.28125 8.296875 
L 54.390625 8.296875 
L 54.390625 0 
L 12.40625 0 
z
" id="DejaVuSans-49"/>
       </defs>
       <use xlink:href="#DejaVuSans-49"/>
       <use x="63.623047" xlink:href="#DejaVuSans-48"/>
      </g>
     </g>
    </g>
    <g id="xtick_4">
     <g id="line2d_4">
      <g>
       <use style="stroke:#000000;stroke-width:0.8;" x="276.747734" xlink:href="#me6a5436590" y="307.584"/>
      </g>
     </g>
     <g id="text_4">
      <!-- 15 -->
      <g transform="translate(270.385234 322.182437)scale(0.1 -0.1)">
       <use xlink:href="#DejaVuSans-49"/>
       <use x="63.623047" xlink:href="#DejaVuSans-53"/>
      </g>
     </g>
    </g>
    <g id="xtick_5">
     <g id="line2d_5">
      <g>
       <use style="stroke:#000000;stroke-width:0.8;" x="344.387302" xlink:href="#me6a5436590" y="307.584"/>
      </g>
     </g>
     <g id="text_5">
      <!-- 20 -->
      <g transform="translate(338.024802 322.182437)scale(0.1 -0.1)">
       <defs>
        <path d="M 19.1875 8.296875 
L 53.609375 8.296875 
L 53.609375 0 
L 7.328125 0 
L 7.328125 8.296875 
Q 12.9375 14.109375 22.625 23.890625 
Q 32.328125 33.6875 34.8125 36.53125 
Q 39.546875 41.84375 41.421875 45.53125 
Q 43.3125 49.21875 43.3125 52.78125 
Q 43.3125 58.59375 39.234375 62.25 
Q 35.15625 65.921875 28.609375 65.921875 
Q 23.96875 65.921875 18.8125 64.3125 
Q 13.671875 62.703125 7.8125 59.421875 
L 7.8125 69.390625 
Q 13.765625 71.78125 18.9375 73 
Q 24.125 74.21875 28.421875 74.21875 
Q 39.75 74.21875 46.484375 68.546875 
Q 53.21875 62.890625 53.21875 53.421875 
Q 53.21875 48.921875 51.53125 44.890625 
Q 49.859375 40.875 45.40625 35.40625 
Q 44.1875 33.984375 37.640625 27.21875 
Q 31.109375 20.453125 19.1875 8.296875 
z
" id="DejaVuSans-50"/>
       </defs>
       <use xlink:href="#DejaVuSans-50"/>
       <use x="63.623047" xlink:href="#DejaVuSans-48"/>
      </g>
     </g>
    </g>
    <g id="xtick_6">
     <g id="line2d_6">
      <g>
       <use style="stroke:#000000;stroke-width:0.8;" x="412.02687" xlink:href="#me6a5436590" y="307.584"/>
      </g>
     </g>
     <g id="text_6">
      <!-- 25 -->
      <g transform="translate(405.66437 322.182437)scale(0.1 -0.1)">
       <use xlink:href="#DejaVuSans-50"/>
       <use x="63.623047" xlink:href="#DejaVuSans-53"/>
      </g>
     </g>
    </g>
    <g id="text_7">
     <!-- LST -->
     <g transform="translate(227.145938 335.860562)scale(0.1 -0.1)">
      <defs>
       <path d="M 9.8125 72.90625 
L 19.671875 72.90625 
L 19.671875 8.296875 
L 55.171875 8.296875 
L 55.171875 0 
L 9.8125 0 
z
" id="DejaVuSans-76"/>
       <path d="M 53.515625 70.515625 
L 53.515625 60.890625 
Q 47.90625 63.578125 42.921875 64.890625 
Q 37.9375 66.21875 33.296875 66.21875 
Q 25.25 66.21875 20.875 63.09375 
Q 16.5 59.96875 16.5 54.203125 
Q 16.5 49.359375 19.40625 46.890625 
Q 22.3125 44.4375 30.421875 42.921875 
L 36.375 41.703125 
Q 47.40625 39.59375 52.65625 34.296875 
Q 57.90625 29 57.90625 20.125 
Q 57.90625 9.515625 50.796875 4.046875 
Q 43.703125 -1.421875 29.984375 -1.421875 
Q 24.8125 -1.421875 18.96875 -0.25 
Q 13.140625 0.921875 6.890625 3.21875 
L 6.890625 13.375 
Q 12.890625 10.015625 18.65625 8.296875 
Q 24.421875 6.59375 29.984375 6.59375 
Q 38.421875 6.59375 43.015625 9.90625 
Q 47.609375 13.234375 47.609375 19.390625 
Q 47.609375 24.75 44.3125 27.78125 
Q 41.015625 30.8125 33.5 32.328125 
L 27.484375 33.5 
Q 16.453125 35.6875 11.515625 40.375 
Q 6.59375 45.0625 6.59375 53.421875 
Q 6.59375 63.09375 13.40625 68.65625 
Q 20.21875 74.21875 32.171875 74.21875 
Q 37.3125 74.21875 42.625 73.28125 
Q 47.953125 72.359375 53.515625 70.515625 
z
" id="DejaVuSans-83"/>
       <path d="M -0.296875 72.90625 
L 61.375 72.90625 
L 61.375 64.59375 
L 35.5 64.59375 
L 35.5 0 
L 25.59375 0 
L 25.59375 64.59375 
L -0.296875 64.59375 
z
" id="DejaVuSans-84"/>
      </defs>
      <use xlink:href="#DejaVuSans-76"/>
      <use x="55.712891" xlink:href="#DejaVuSans-83"/>
      <use x="119.189453" xlink:href="#DejaVuSans-84"/>
     </g>
    </g>
   </g>
   <g id="matplotlib.axis_2">
    <g id="ytick_1">
     <g id="line2d_7">
      <defs>
       <path d="M 0 0 
L -3.5 0 
" id="m1b525f0b5d" style="stroke:#000000;stroke-width:0.8;"/>
      </defs>
      <g>
       <use style="stroke:#000000;stroke-width:0.8;" x="57.6" xlink:href="#m1b525f0b5d" y="307.584"/>
      </g>
     </g>
     <g id="text_8">
      <!-- 0.00 -->
      <g transform="translate(28.334375 311.383219)scale(0.1 -0.1)">
       <defs>
        <path d="M 10.6875 12.40625 
L 21 12.40625 
L 21 0 
L 10.6875 0 
z
" id="DejaVuSans-46"/>
       </defs>
       <use xlink:href="#DejaVuSans-48"/>
       <use x="63.623047" xlink:href="#DejaVuSans-46"/>
       <use x="95.410156" xlink:href="#DejaVuSans-48"/>
       <use x="159.033203" xlink:href="#DejaVuSans-48"/>
      </g>
     </g>
    </g>
    <g id="ytick_2">
     <g id="line2d_8">
      <g>
       <use style="stroke:#000000;stroke-width:0.8;" x="57.6" xlink:href="#m1b525f0b5d" y="263.232"/>
      </g>
     </g>
     <g id="text_9">
      <!-- 0.01 -->
      <g transform="translate(28.334375 267.031219)scale(0.1 -0.1)">
       <use xlink:href="#DejaVuSans-48"/>
       <use x="63.623047" xlink:href="#DejaVuSans-46"/>
       <use x="95.410156" xlink:href="#DejaVuSans-48"/>
       <use x="159.033203" xlink:href="#DejaVuSans-49"/>
      </g>
     </g>
    </g>
    <g id="ytick_3">
     <g id="line2d_9">
      <g>
       <use style="stroke:#000000;stroke-width:0.8;" x="57.6" xlink:href="#m1b525f0b5d" y="218.88"/>
      </g>
     </g>
     <g id="text_10">
      <!-- 0.02 -->
      <g transform="translate(28.334375 222.679219)scale(0.1 -0.1)">
       <use xlink:href="#DejaVuSans-48"/>
       <use x="63.623047" xlink:href="#DejaVuSans-46"/>
       <use x="95.410156" xlink:href="#DejaVuSans-48"/>
       <use x="159.033203" xlink:href="#DejaVuSans-50"/>
      </g>
     </g>
    </g>
    <g id="ytick_4">
     <g id="line2d_10">
      <g>
       <use style="stroke:#000000;stroke-width:0.8;" x="57.6" xlink:href="#m1b525f0b5d" y="174.528"/>
      </g>
     </g>
     <g id="text_11">
      <!-- 0.03 -->
      <g transform="translate(28.334375 178.327219)scale(0.1 -0.1)">
       <defs>
        <path d="M 40.578125 39.3125 
Q 47.65625 37.796875 51.625 33 
Q 55.609375 28.21875 55.609375 21.1875 
Q 55.609375 10.40625 48.1875 4.484375 
Q 40.765625 -1.421875 27.09375 -1.421875 
Q 22.515625 -1.421875 17.65625 -0.515625 
Q 12.796875 0.390625 7.625 2.203125 
L 7.625 11.71875 
Q 11.71875 9.328125 16.59375 8.109375 
Q 21.484375 6.890625 26.8125 6.890625 
Q 36.078125 6.890625 40.9375 10.546875 
Q 45.796875 14.203125 45.796875 21.1875 
Q 45.796875 27.640625 41.28125 31.265625 
Q 36.765625 34.90625 28.71875 34.90625 
L 20.21875 34.90625 
L 20.21875 43.015625 
L 29.109375 43.015625 
Q 36.375 43.015625 40.234375 45.921875 
Q 44.09375 48.828125 44.09375 54.296875 
Q 44.09375 59.90625 40.109375 62.90625 
Q 36.140625 65.921875 28.71875 65.921875 
Q 24.65625 65.921875 20.015625 65.03125 
Q 15.375 64.15625 9.8125 62.3125 
L 9.8125 71.09375 
Q 15.4375 72.65625 20.34375 73.4375 
Q 25.25 74.21875 29.59375 74.21875 
Q 40.828125 74.21875 47.359375 69.109375 
Q 53.90625 64.015625 53.90625 55.328125 
Q 53.90625 49.265625 50.4375 45.09375 
Q 46.96875 40.921875 40.578125 39.3125 
z
" id="DejaVuSans-51"/>
       </defs>
       <use xlink:href="#DejaVuSans-48"/>
       <use x="63.623047" xlink:href="#DejaVuSans-46"/>
       <use x="95.410156" xlink:href="#DejaVuSans-48"/>
       <use x="159.033203" xlink:href="#DejaVuSans-51"/>
      </g>
     </g>
    </g>
    <g id="ytick_5">
     <g id="line2d_11">
      <g>
       <use style="stroke:#000000;stroke-width:0.8;" x="57.6" xlink:href="#m1b525f0b5d" y="130.176"/>
      </g>
     </g>
     <g id="text_12">
      <!-- 0.04 -->
      <g transform="translate(28.334375 133.975219)scale(0.1 -0.1)">
       <defs>
        <path d="M 37.796875 64.3125 
L 12.890625 25.390625 
L 37.796875 25.390625 
z
M 35.203125 72.90625 
L 47.609375 72.90625 
L 47.609375 25.390625 
L 58.015625 25.390625 
L 58.015625 17.1875 
L 47.609375 17.1875 
L 47.609375 0 
L 37.796875 0 
L 37.796875 17.1875 
L 4.890625 17.1875 
L 4.890625 26.703125 
z
" id="DejaVuSans-52"/>
       </defs>
       <use xlink:href="#DejaVuSans-48"/>
       <use x="63.623047" xlink:href="#DejaVuSans-46"/>
       <use x="95.410156" xlink:href="#DejaVuSans-48"/>
       <use x="159.033203" xlink:href="#DejaVuSans-52"/>
      </g>
     </g>
    </g>
    <g id="ytick_6">
     <g id="line2d_12">
      <g>
       <use style="stroke:#000000;stroke-width:0.8;" x="57.6" xlink:href="#m1b525f0b5d" y="85.824"/>
      </g>
     </g>
     <g id="text_13">
      <!-- 0.05 -->
      <g transform="translate(28.334375 89.623219)scale(0.1 -0.1)">
       <use xlink:href="#DejaVuSans-48"/>
       <use x="63.623047" xlink:href="#DejaVuSans-46"/>
       <use x="95.410156" xlink:href="#DejaVuSans-48"/>
       <use x="159.033203" xlink:href="#DejaVuSans-53"/>
      </g>
     </g>
    </g>
    <g id="ytick_7">
     <g id="line2d_13">
      <g>
       <use style="stroke:#000000;stroke-width:0.8;" x="57.6" xlink:href="#m1b525f0b5d" y="41.472"/>
      </g>
     </g>
     <g id="text_14">
      <!-- 0.06 -->
      <g transform="translate(28.334375 45.271219)scale(0.1 -0.1)">
       <defs>
        <path d="M 33.015625 40.375 
Q 26.375 40.375 22.484375 35.828125 
Q 18.609375 31.296875 18.609375 23.390625 
Q 18.609375 15.53125 22.484375 10.953125 
Q 26.375 6.390625 33.015625 6.390625 
Q 39.65625 6.390625 43.53125 10.953125 
Q 47.40625 15.53125 47.40625 23.390625 
Q 47.40625 31.296875 43.53125 35.828125 
Q 39.65625 40.375 33.015625 40.375 
z
M 52.59375 71.296875 
L 52.59375 62.3125 
Q 48.875 64.0625 45.09375 64.984375 
Q 41.3125 65.921875 37.59375 65.921875 
Q 27.828125 65.921875 22.671875 59.328125 
Q 17.53125 52.734375 16.796875 39.40625 
Q 19.671875 43.65625 24.015625 45.921875 
Q 28.375 48.1875 33.59375 48.1875 
Q 44.578125 48.1875 50.953125 41.515625 
Q 57.328125 34.859375 57.328125 23.390625 
Q 57.328125 12.15625 50.6875 5.359375 
Q 44.046875 -1.421875 33.015625 -1.421875 
Q 20.359375 -1.421875 13.671875 8.265625 
Q 6.984375 17.96875 6.984375 36.375 
Q 6.984375 53.65625 15.1875 63.9375 
Q 23.390625 74.21875 37.203125 74.21875 
Q 40.921875 74.21875 44.703125 73.484375 
Q 48.484375 72.75 52.59375 71.296875 
z
" id="DejaVuSans-54"/>
       </defs>
       <use xlink:href="#DejaVuSans-48"/>
       <use x="63.623047" xlink:href="#DejaVuSans-46"/>
       <use x="95.410156" xlink:href="#DejaVuSans-48"/>
       <use x="159.033203" xlink:href="#DejaVuSans-54"/>
      </g>
     </g>
    </g>
    <g id="text_15">
     <!-- RMS -->
     <g transform="translate(22.254688 185.4905)rotate(-90)scale(0.1 -0.1)">
      <defs>
       <path d="M 44.390625 34.1875 
Q 47.5625 33.109375 50.5625 29.59375 
Q 53.5625 26.078125 56.59375 19.921875 
L 66.609375 0 
L 56 0 
L 46.6875 18.703125 
Q 43.0625 26.03125 39.671875 28.421875 
Q 36.28125 30.8125 30.421875 30.8125 
L 19.671875 30.8125 
L 19.671875 0 
L 9.8125 0 
L 9.8125 72.90625 
L 32.078125 72.90625 
Q 44.578125 72.90625 50.734375 67.671875 
Q 56.890625 62.453125 56.890625 51.90625 
Q 56.890625 45.015625 53.6875 40.46875 
Q 50.484375 35.9375 44.390625 34.1875 
z
M 19.671875 64.796875 
L 19.671875 38.921875 
L 32.078125 38.921875 
Q 39.203125 38.921875 42.84375 42.21875 
Q 46.484375 45.515625 46.484375 51.90625 
Q 46.484375 58.296875 42.84375 61.546875 
Q 39.203125 64.796875 32.078125 64.796875 
z
" id="DejaVuSans-82"/>
       <path d="M 9.8125 72.90625 
L 24.515625 72.90625 
L 43.109375 23.296875 
L 61.8125 72.90625 
L 76.515625 72.90625 
L 76.515625 0 
L 66.890625 0 
L 66.890625 64.015625 
L 48.09375 14.015625 
L 38.1875 14.015625 
L 19.390625 64.015625 
L 19.390625 0 
L 9.8125 0 
z
" id="DejaVuSans-77"/>
      </defs>
      <use xlink:href="#DejaVuSans-82"/>
      <use x="69.482422" xlink:href="#DejaVuSans-77"/>
      <use x="155.761719" xlink:href="#DejaVuSans-83"/>
     </g>
    </g>
   </g>
   <g id="line2d_14">
    <path clip-path="url(#pa1195406aa)" d="M 73.832727 72.173777 
L 75.185455 68.228531 
L 76.538182 64.963495 
L 77.890909 62.385476 
L 79.243636 60.503174 
L 80.596364 59.331014 
L 81.949091 58.85107 
L 83.301818 59.104899 
L 84.654546 60.011274 
L 86.007273 61.595851 
L 87.36 63.883608 
L 88.712727 66.8275 
L 90.065455 70.432287 
L 91.418182 74.682545 
L 92.770909 79.529058 
L 94.123637 84.952113 
L 95.476364 90.937708 
L 98.181818 104.475915 
L 100.887273 119.899295 
L 103.592728 136.834499 
L 107.650909 164.345738 
L 118.472728 240.254961 
L 121.178182 257.524854 
L 123.883637 273.356213 
L 126.589092 287.356079 
L 127.941819 293.432259 
L 129.294546 298.517768 
L 130.647273 301.537034 
L 132.000001 300.66259 
L 133.352728 297.54308 
L 136.058183 290.920901 
L 137.41091 288.115059 
L 138.763637 285.737715 
L 140.116364 283.801453 
L 141.469092 282.30625 
L 142.821819 281.201293 
L 144.174546 280.522523 
L 145.527273 280.223134 
L 146.880001 280.268443 
L 148.232728 280.621072 
L 149.585455 281.28683 
L 150.938183 282.210688 
L 152.29091 283.348991 
L 154.996364 286.137318 
L 157.701819 289.432618 
L 163.112728 296.309809 
L 165.818183 299.303702 
L 167.17091 300.545223 
L 168.523637 301.554729 
L 169.876365 302.290031 
L 171.229092 302.752458 
L 172.581819 302.980559 
L 175.287274 303.028372 
L 177.992728 303.135973 
L 180.698183 303.578527 
L 182.05091 303.838845 
L 183.403637 303.93606 
L 184.756365 303.679625 
L 186.109092 302.919686 
L 187.461819 301.665038 
L 188.814547 300.011658 
L 190.167274 298.046372 
L 191.520001 295.805762 
L 194.225456 290.650015 
L 196.93091 284.787143 
L 200.989092 275.182985 
L 207.752728 258.849904 
L 210.458183 252.874917 
L 213.163638 247.546066 
L 215.869092 243.025625 
L 217.221819 241.107303 
L 218.574547 239.429801 
L 219.927274 238.011182 
L 221.280001 236.853016 
L 222.632728 235.975413 
L 223.985456 235.349857 
L 225.338183 234.983516 
L 226.69091 234.875978 
L 228.043638 235.028246 
L 229.396365 235.425378 
L 230.749092 236.056153 
L 232.101819 236.911031 
L 233.454547 237.959004 
L 234.807274 239.194454 
L 236.160001 240.59841 
L 238.865456 243.86181 
L 241.57091 247.496852 
L 249.687274 258.971376 
L 252.392728 262.300792 
L 253.745456 263.763449 
L 255.098183 265.053566 
L 256.45091 266.160515 
L 257.803638 267.051022 
L 259.156365 267.706705 
L 260.509092 268.126128 
L 261.861819 268.274605 
L 263.214547 268.158357 
L 264.567274 267.747739 
L 265.920001 267.046194 
L 267.272728 266.04819 
L 268.625456 264.750187 
L 269.978183 263.134663 
L 271.33091 261.220432 
L 272.683638 259.028532 
L 274.036365 256.549772 
L 276.741819 250.863277 
L 279.447274 244.390831 
L 287.563637 223.964197 
L 288.916365 220.997614 
L 290.269092 218.313688 
L 291.621819 215.977408 
L 292.974547 214.026299 
L 294.327274 212.524158 
L 295.680001 211.508769 
L 297.032728 211.010392 
L 298.385456 211.023806 
L 299.738183 211.603604 
L 301.09091 212.705657 
L 302.443637 214.364131 
L 303.796365 216.567833 
L 305.149092 219.252113 
L 306.501819 222.359967 
L 307.854546 225.881557 
L 310.560001 233.901089 
L 314.618183 247.171714 
L 317.323637 255.951251 
L 320.029092 263.93919 
L 321.381819 267.462493 
L 322.734546 270.60084 
L 324.087274 273.307727 
L 325.440001 275.562101 
L 326.792728 277.334028 
L 328.145455 278.630365 
L 329.498183 279.443531 
L 330.85091 279.781264 
L 332.203637 279.682831 
L 333.556364 279.208729 
L 334.909092 278.375212 
L 336.261819 277.237768 
L 338.967273 274.410885 
L 343.025455 269.945235 
L 344.378183 268.727197 
L 345.73091 267.787985 
L 347.083637 267.230304 
L 348.436364 267.111924 
L 349.789092 267.499736 
L 351.141819 268.456568 
L 352.494546 270.020444 
L 353.847273 272.262412 
L 355.200001 275.178783 
L 356.552728 278.766798 
L 357.905455 283.046602 
L 359.258182 287.951597 
L 361.963637 298.442381 
L 363.316364 300.457204 
L 364.669091 295.954876 
L 366.021819 288.478083 
L 368.727273 270.670412 
L 371.432728 250.785477 
L 375.490909 218.900218 
L 382.254546 165.156731 
L 384.96 145.03908 
L 386.312727 135.471487 
L 389.018182 118.919125 
L 391.723636 104.087984 
L 394.429091 91.243572 
L 395.781818 85.608557 
L 397.134545 80.534877 
L 398.487273 76.05408 
L 398.487273 76.05408 
" style="fill:none;stroke:#1f77b4;stroke-linecap:square;stroke-width:1.5;"/>
   </g>
   <g id="line2d_15">
    <path clip-path="url(#pa1195406aa)" d="M 73.832727 68.035185 
L 75.185455 67.534408 
L 76.538182 67.704269 
L 77.890909 68.540555 
L 79.243636 70.022734 
L 80.596364 72.148104 
L 81.949091 74.901017 
L 83.301818 78.276537 
L 84.654546 82.250574 
L 86.007273 86.792309 
L 87.36 91.899407 
L 88.712727 97.524876 
L 91.418182 110.232475 
L 94.123637 124.661631 
L 96.829091 140.497704 
L 100.887273 166.1829 
L 111.709091 237.075797 
L 114.414546 253.362344 
L 117.120001 268.407897 
L 119.825455 281.89972 
L 121.178182 287.955047 
L 122.53091 293.436466 
L 123.883637 298.129444 
L 125.236364 301.347853 
L 126.589092 301.636105 
L 127.941819 299.433937 
L 130.647273 293.826514 
L 132.000001 291.371551 
L 133.352728 289.272379 
L 134.705455 287.540337 
L 136.058183 286.197859 
L 137.41091 285.220984 
L 138.763637 284.585746 
L 140.116364 284.274037 
L 141.469092 284.260377 
L 142.821819 284.519738 
L 144.174546 285.03756 
L 145.527273 285.772943 
L 146.880001 286.693394 
L 149.585455 288.981429 
L 152.29091 291.655019 
L 157.701819 297.181529 
L 160.407274 299.566815 
L 161.760001 300.562387 
L 163.112728 301.402476 
L 164.465455 302.0802 
L 165.818183 302.597747 
L 168.523637 303.247612 
L 171.229092 303.554849 
L 172.581819 303.594093 
L 173.934546 303.50052 
L 175.287274 303.207352 
L 176.640001 302.661725 
L 177.992728 301.826374 
L 179.345456 300.695106 
L 180.698183 299.281314 
L 182.05091 297.60749 
L 183.403637 295.703023 
L 186.109092 291.297475 
L 188.814547 286.219826 
L 191.520001 280.67819 
L 202.341819 257.479704 
L 205.047274 252.368161 
L 207.752728 247.872506 
L 210.458183 244.131626 
L 211.81091 242.568026 
L 213.163638 241.229464 
L 214.516365 240.123615 
L 215.869092 239.244373 
L 217.221819 238.601369 
L 218.574547 238.191203 
L 219.927274 238.007439 
L 221.280001 238.047906 
L 222.632728 238.313174 
L 223.985456 238.789266 
L 225.338183 239.455183 
L 226.69091 240.294156 
L 228.043638 241.303538 
L 230.749092 243.769917 
L 233.454547 246.676408 
L 237.512728 251.521403 
L 241.57091 256.388901 
L 244.276365 259.33815 
L 246.981819 261.814653 
L 248.334547 262.828662 
L 249.687274 263.665751 
L 251.040001 264.306376 
L 252.392728 264.743842 
L 253.745456 264.959273 
L 255.098183 264.939703 
L 256.45091 264.671065 
L 257.803638 264.149024 
L 259.156365 263.375436 
L 260.509092 262.345264 
L 261.861819 261.061045 
L 263.214547 259.528201 
L 264.567274 257.750504 
L 265.920001 255.754314 
L 268.625456 251.160426 
L 271.33091 245.924508 
L 279.447274 229.255167 
L 282.152728 224.52023 
L 283.505456 222.504982 
L 284.858183 220.786612 
L 286.21091 219.389426 
L 287.563637 218.349621 
L 288.916365 217.691888 
L 290.269092 217.448682 
L 291.621819 217.620486 
L 292.974547 218.197321 
L 294.327274 219.206095 
L 295.680001 220.637125 
L 297.032728 222.459031 
L 298.385456 224.62804 
L 299.738183 227.143694 
L 301.09091 229.947525 
L 303.796365 236.277235 
L 309.207274 250.227628 
L 311.912728 256.957467 
L 314.618183 262.976364 
L 315.97091 265.610251 
L 317.323637 267.939841 
L 318.676365 269.951773 
L 320.029092 271.633065 
L 321.381819 272.967456 
L 322.734546 273.95695 
L 324.087274 274.629627 
L 325.440001 275.009888 
L 326.792728 275.123292 
L 328.145455 275.010597 
L 329.498183 274.718223 
L 332.203637 273.764676 
L 334.909092 272.770954 
L 336.261819 272.392165 
L 337.614546 272.19548 
L 338.967273 272.233833 
L 340.320001 272.583676 
L 341.672728 273.284812 
L 343.025455 274.390587 
L 344.378183 275.952935 
L 345.73091 278.010741 
L 347.083637 280.58979 
L 348.436364 283.699159 
L 349.789092 287.330102 
L 353.847273 299.65219 
L 355.200001 300.326635 
L 356.552728 296.185793 
L 357.905455 289.781776 
L 359.258182 282.373027 
L 361.963637 265.753108 
L 364.669091 247.434749 
L 368.727273 218.075004 
L 374.138182 178.400128 
L 378.196364 150.628854 
L 380.901818 133.449009 
L 383.607273 117.749821 
L 386.312727 103.830875 
L 387.665455 97.622665 
L 389.018182 91.94851 
L 390.370909 86.833238 
L 391.723636 82.302161 
L 393.076364 78.376527 
L 394.429091 75.053776 
L 395.781818 72.363157 
L 397.134545 70.279538 
L 398.487273 68.831445 
L 398.487273 68.831445 
" style="fill:none;stroke:#ff7f0e;stroke-linecap:square;stroke-width:1.5;"/>
   </g>
   <g id="line2d_16">
    <path clip-path="url(#pa1195406aa)" d="M 73.832727 85.336438 
L 75.185455 87.771873 
L 76.538182 90.762525 
L 77.890909 94.296723 
L 79.243636 98.352563 
L 80.596364 102.898872 
L 81.949091 107.918667 
L 84.654546 119.252917 
L 87.36 132.103109 
L 90.065455 146.196148 
L 94.123637 169.023455 
L 106.298182 239.837807 
L 109.003637 254.154455 
L 111.709091 267.392089 
L 114.414546 279.325123 
L 117.120001 289.732647 
L 118.472728 294.235379 
L 119.825455 298.117182 
L 121.178182 301.038735 
L 122.53091 302.210312 
L 123.883637 301.330774 
L 129.294546 293.850713 
L 130.647273 292.472489 
L 132.000001 291.381329 
L 133.352728 290.564065 
L 134.705455 290.010884 
L 136.058183 289.706022 
L 137.41091 289.630316 
L 138.763637 289.75836 
L 140.116364 290.07135 
L 141.469092 290.541827 
L 144.174546 291.857092 
L 146.880001 293.516903 
L 153.643637 297.859659 
L 156.349092 299.241299 
L 159.054546 300.244582 
L 160.407274 300.57283 
L 161.760001 300.781643 
L 163.112728 300.854688 
L 164.465455 300.779744 
L 165.818183 300.54282 
L 167.17091 300.133229 
L 168.523637 299.539495 
L 169.876365 298.750175 
L 171.229092 297.771289 
L 172.581819 296.601883 
L 173.934546 295.246113 
L 176.640001 292.029054 
L 179.345456 288.217502 
L 182.05091 283.912342 
L 186.109092 276.838532 
L 194.225456 262.227789 
L 196.93091 257.752372 
L 199.636365 253.691745 
L 202.341819 250.165098 
L 205.047274 247.253153 
L 206.400001 246.048199 
L 207.752728 245.020137 
L 209.105456 244.178256 
L 210.458183 243.523324 
L 211.81091 243.048502 
L 213.163638 242.753037 
L 214.516365 242.640144 
L 215.869092 242.703549 
L 217.221819 242.932871 
L 218.574547 243.318474 
L 219.927274 243.848527 
L 222.632728 245.310258 
L 225.338183 247.20625 
L 228.043638 249.381575 
L 234.807274 255.121229 
L 237.512728 257.112711 
L 240.218183 258.705311 
L 241.57091 259.305902 
L 242.923638 259.759373 
L 244.276365 260.048253 
L 245.629092 260.166054 
L 246.981819 260.101709 
L 248.334547 259.855251 
L 249.687274 259.415802 
L 251.040001 258.783944 
L 252.392728 257.972478 
L 253.745456 256.979946 
L 255.098183 255.80652 
L 257.803638 252.980698 
L 260.509092 249.619093 
L 263.214547 245.869606 
L 269.978183 236.135941 
L 272.683638 232.685203 
L 274.036365 231.160359 
L 275.389092 229.807301 
L 276.741819 228.650156 
L 278.094547 227.70242 
L 279.447274 226.975338 
L 280.800001 226.498806 
L 282.152728 226.276633 
L 283.505456 226.31085 
L 284.858183 226.604518 
L 286.21091 227.155214 
L 287.563637 227.962662 
L 288.916365 229.011208 
L 290.269092 230.294618 
L 291.621819 231.792167 
L 292.974547 233.468409 
L 295.680001 237.332177 
L 298.385456 241.666787 
L 306.501819 255.28148 
L 309.207274 259.308538 
L 311.912728 262.835995 
L 314.618183 265.812244 
L 317.323637 268.238785 
L 320.029092 270.198683 
L 322.734546 271.837855 
L 326.792728 274.204155 
L 329.498183 276.112071 
L 330.85091 277.26673 
L 332.203637 278.60708 
L 333.556364 280.172949 
L 334.909092 281.981916 
L 336.261819 284.061682 
L 337.614546 286.446734 
L 338.967273 289.132041 
L 341.672728 295.280199 
L 343.025455 298.409116 
L 344.378183 300.655099 
L 345.73091 300.214132 
L 347.083637 296.813172 
L 348.436364 291.876107 
L 349.789092 286.108825 
L 352.494546 272.961495 
L 355.200001 258.187441 
L 357.905455 242.171262 
L 364.669091 199.752811 
L 370.08 165.580034 
L 372.785455 149.403554 
L 375.490909 134.306255 
L 378.196364 120.604727 
L 380.901818 108.598393 
L 382.254546 103.313122 
L 383.607273 98.517319 
L 384.96 94.249001 
L 386.312727 90.527681 
L 387.665455 87.369748 
L 389.018182 84.788327 
L 390.370909 82.794849 
L 391.723636 81.389609 
L 393.076364 80.580098 
L 394.429091 80.360179 
L 395.781818 80.732179 
L 397.134545 81.690484 
L 398.487273 83.22487 
L 398.487273 83.22487 
" style="fill:none;stroke:#2ca02c;stroke-linecap:square;stroke-width:1.5;"/>
   </g>
   <g id="patch_3">
    <path d="M 57.6 307.584 
L 57.6 41.472 
" style="fill:none;stroke:#000000;stroke-linecap:square;stroke-linejoin:miter;stroke-width:0.8;"/>
   </g>
   <g id="patch_4">
    <path d="M 414.72 307.584 
L 414.72 41.472 
" style="fill:none;stroke:#000000;stroke-linecap:square;stroke-linejoin:miter;stroke-width:0.8;"/>
   </g>
   <g id="patch_5">
    <path d="M 57.6 307.584 
L 414.72 307.584 
" style="fill:none;stroke:#000000;stroke-linecap:square;stroke-linejoin:miter;stroke-width:0.8;"/>
   </g>
   <g id="patch_6">
    <path d="M 57.6 41.472 
L 414.72 41.472 
" style="fill:none;stroke:#000000;stroke-linecap:square;stroke-linejoin:miter;stroke-width:0.8;"/>
   </g>
   <g id="legend_1">
    <g id="patch_7">
     <path d="M 176.834219 93.506375 
L 295.485781 93.506375 
Q 297.485781 93.506375 297.485781 91.506375 
L 297.485781 48.472 
Q 297.485781 46.472 295.485781 46.472 
L 176.834219 46.472 
Q 174.834219 46.472 174.834219 48.472 
L 174.834219 91.506375 
Q 174.834219 93.506375 176.834219 93.506375 
z
" style="fill:#ffffff;opacity:0.8;stroke:#cccccc;stroke-linejoin:miter;"/>
    </g>
    <g id="line2d_17">
     <path d="M 178.834219 54.570438 
L 198.834219 54.570438 
" style="fill:none;stroke:#1f77b4;stroke-linecap:square;stroke-width:1.5;"/>
    </g>
    <g id="line2d_18"/>
    <g id="text_16">
     <!-- Bin width = 1 hrs -->
     <g transform="translate(206.834219 58.070438)scale(0.1 -0.1)">
      <defs>
       <path d="M 19.671875 34.8125 
L 19.671875 8.109375 
L 35.5 8.109375 
Q 43.453125 8.109375 47.28125 11.40625 
Q 51.125 14.703125 51.125 21.484375 
Q 51.125 28.328125 47.28125 31.5625 
Q 43.453125 34.8125 35.5 34.8125 
z
M 19.671875 64.796875 
L 19.671875 42.828125 
L 34.28125 42.828125 
Q 41.5 42.828125 45.03125 45.53125 
Q 48.578125 48.25 48.578125 53.8125 
Q 48.578125 59.328125 45.03125 62.0625 
Q 41.5 64.796875 34.28125 64.796875 
z
M 9.8125 72.90625 
L 35.015625 72.90625 
Q 46.296875 72.90625 52.390625 68.21875 
Q 58.5 63.53125 58.5 54.890625 
Q 58.5 48.1875 55.375 44.234375 
Q 52.25 40.28125 46.1875 39.3125 
Q 53.46875 37.75 57.5 32.78125 
Q 61.53125 27.828125 61.53125 20.40625 
Q 61.53125 10.640625 54.890625 5.3125 
Q 48.25 0 35.984375 0 
L 9.8125 0 
z
" id="DejaVuSans-66"/>
       <path d="M 9.421875 54.6875 
L 18.40625 54.6875 
L 18.40625 0 
L 9.421875 0 
z
M 9.421875 75.984375 
L 18.40625 75.984375 
L 18.40625 64.59375 
L 9.421875 64.59375 
z
" id="DejaVuSans-105"/>
       <path d="M 54.890625 33.015625 
L 54.890625 0 
L 45.90625 0 
L 45.90625 32.71875 
Q 45.90625 40.484375 42.875 44.328125 
Q 39.84375 48.1875 33.796875 48.1875 
Q 26.515625 48.1875 22.3125 43.546875 
Q 18.109375 38.921875 18.109375 30.90625 
L 18.109375 0 
L 9.078125 0 
L 9.078125 54.6875 
L 18.109375 54.6875 
L 18.109375 46.1875 
Q 21.34375 51.125 25.703125 53.5625 
Q 30.078125 56 35.796875 56 
Q 45.21875 56 50.046875 50.171875 
Q 54.890625 44.34375 54.890625 33.015625 
z
" id="DejaVuSans-110"/>
       <path id="DejaVuSans-32"/>
       <path d="M 4.203125 54.6875 
L 13.1875 54.6875 
L 24.421875 12.015625 
L 35.59375 54.6875 
L 46.1875 54.6875 
L 57.421875 12.015625 
L 68.609375 54.6875 
L 77.59375 54.6875 
L 63.28125 0 
L 52.6875 0 
L 40.921875 44.828125 
L 29.109375 0 
L 18.5 0 
z
" id="DejaVuSans-119"/>
       <path d="M 45.40625 46.390625 
L 45.40625 75.984375 
L 54.390625 75.984375 
L 54.390625 0 
L 45.40625 0 
L 45.40625 8.203125 
Q 42.578125 3.328125 38.25 0.953125 
Q 33.9375 -1.421875 27.875 -1.421875 
Q 17.96875 -1.421875 11.734375 6.484375 
Q 5.515625 14.40625 5.515625 27.296875 
Q 5.515625 40.1875 11.734375 48.09375 
Q 17.96875 56 27.875 56 
Q 33.9375 56 38.25 53.625 
Q 42.578125 51.265625 45.40625 46.390625 
z
M 14.796875 27.296875 
Q 14.796875 17.390625 18.875 11.75 
Q 22.953125 6.109375 30.078125 6.109375 
Q 37.203125 6.109375 41.296875 11.75 
Q 45.40625 17.390625 45.40625 27.296875 
Q 45.40625 37.203125 41.296875 42.84375 
Q 37.203125 48.484375 30.078125 48.484375 
Q 22.953125 48.484375 18.875 42.84375 
Q 14.796875 37.203125 14.796875 27.296875 
z
" id="DejaVuSans-100"/>
       <path d="M 18.3125 70.21875 
L 18.3125 54.6875 
L 36.8125 54.6875 
L 36.8125 47.703125 
L 18.3125 47.703125 
L 18.3125 18.015625 
Q 18.3125 11.328125 20.140625 9.421875 
Q 21.96875 7.515625 27.59375 7.515625 
L 36.8125 7.515625 
L 36.8125 0 
L 27.59375 0 
Q 17.1875 0 13.234375 3.875 
Q 9.28125 7.765625 9.28125 18.015625 
L 9.28125 47.703125 
L 2.6875 47.703125 
L 2.6875 54.6875 
L 9.28125 54.6875 
L 9.28125 70.21875 
z
" id="DejaVuSans-116"/>
       <path d="M 54.890625 33.015625 
L 54.890625 0 
L 45.90625 0 
L 45.90625 32.71875 
Q 45.90625 40.484375 42.875 44.328125 
Q 39.84375 48.1875 33.796875 48.1875 
Q 26.515625 48.1875 22.3125 43.546875 
Q 18.109375 38.921875 18.109375 30.90625 
L 18.109375 0 
L 9.078125 0 
L 9.078125 75.984375 
L 18.109375 75.984375 
L 18.109375 46.1875 
Q 21.34375 51.125 25.703125 53.5625 
Q 30.078125 56 35.796875 56 
Q 45.21875 56 50.046875 50.171875 
Q 54.890625 44.34375 54.890625 33.015625 
z
" id="DejaVuSans-104"/>
       <path d="M 10.59375 45.40625 
L 73.1875 45.40625 
L 73.1875 37.203125 
L 10.59375 37.203125 
z
M 10.59375 25.484375 
L 73.1875 25.484375 
L 73.1875 17.1875 
L 10.59375 17.1875 
z
" id="DejaVuSans-61"/>
       <path d="M 41.109375 46.296875 
Q 39.59375 47.171875 37.8125 47.578125 
Q 36.03125 48 33.890625 48 
Q 26.265625 48 22.1875 43.046875 
Q 18.109375 38.09375 18.109375 28.8125 
L 18.109375 0 
L 9.078125 0 
L 9.078125 54.6875 
L 18.109375 54.6875 
L 18.109375 46.1875 
Q 20.953125 51.171875 25.484375 53.578125 
Q 30.03125 56 36.53125 56 
Q 37.453125 56 38.578125 55.875 
Q 39.703125 55.765625 41.0625 55.515625 
z
" id="DejaVuSans-114"/>
       <path d="M 44.28125 53.078125 
L 44.28125 44.578125 
Q 40.484375 46.53125 36.375 47.5 
Q 32.28125 48.484375 27.875 48.484375 
Q 21.1875 48.484375 17.84375 46.4375 
Q 14.5 44.390625 14.5 40.28125 
Q 14.5 37.15625 16.890625 35.375 
Q 19.28125 33.59375 26.515625 31.984375 
L 29.59375 31.296875 
Q 39.15625 29.25 43.1875 25.515625 
Q 47.21875 21.78125 47.21875 15.09375 
Q 47.21875 7.46875 41.1875 3.015625 
Q 35.15625 -1.421875 24.609375 -1.421875 
Q 20.21875 -1.421875 15.453125 -0.5625 
Q 10.6875 0.296875 5.421875 2 
L 5.421875 11.28125 
Q 10.40625 8.6875 15.234375 7.390625 
Q 20.0625 6.109375 24.8125 6.109375 
Q 31.15625 6.109375 34.5625 8.28125 
Q 37.984375 10.453125 37.984375 14.40625 
Q 37.984375 18.0625 35.515625 20.015625 
Q 33.0625 21.96875 24.703125 23.78125 
L 21.578125 24.515625 
Q 13.234375 26.265625 9.515625 29.90625 
Q 5.8125 33.546875 5.8125 39.890625 
Q 5.8125 47.609375 11.28125 51.796875 
Q 16.75 56 26.8125 56 
Q 31.78125 56 36.171875 55.265625 
Q 40.578125 54.546875 44.28125 53.078125 
z
" id="DejaVuSans-115"/>
      </defs>
      <use xlink:href="#DejaVuSans-66"/>
      <use x="68.603516" xlink:href="#DejaVuSans-105"/>
      <use x="96.386719" xlink:href="#DejaVuSans-110"/>
      <use x="159.765625" xlink:href="#DejaVuSans-32"/>
      <use x="191.552734" xlink:href="#DejaVuSans-119"/>
      <use x="273.339844" xlink:href="#DejaVuSans-105"/>
      <use x="301.123047" xlink:href="#DejaVuSans-100"/>
      <use x="364.599609" xlink:href="#DejaVuSans-116"/>
      <use x="403.808594" xlink:href="#DejaVuSans-104"/>
      <use x="467.1875" xlink:href="#DejaVuSans-32"/>
      <use x="498.974609" xlink:href="#DejaVuSans-61"/>
      <use x="582.763672" xlink:href="#DejaVuSans-32"/>
      <use x="614.550781" xlink:href="#DejaVuSans-49"/>
      <use x="678.173828" xlink:href="#DejaVuSans-32"/>
      <use x="709.960938" xlink:href="#DejaVuSans-104"/>
      <use x="773.339844" xlink:href="#DejaVuSans-114"/>
      <use x="814.453125" xlink:href="#DejaVuSans-115"/>
     </g>
    </g>
    <g id="line2d_19">
     <path d="M 178.834219 69.248563 
L 198.834219 69.248563 
" style="fill:none;stroke:#ff7f0e;stroke-linecap:square;stroke-width:1.5;"/>
    </g>
    <g id="line2d_20"/>
    <g id="text_17">
     <!-- Bin width = 2 hrs -->
     <g transform="translate(206.834219 72.748563)scale(0.1 -0.1)">
      <use xlink:href="#DejaVuSans-66"/>
      <use x="68.603516" xlink:href="#DejaVuSans-105"/>
      <use x="96.386719" xlink:href="#DejaVuSans-110"/>
      <use x="159.765625" xlink:href="#DejaVuSans-32"/>
      <use x="191.552734" xlink:href="#DejaVuSans-119"/>
      <use x="273.339844" xlink:href="#DejaVuSans-105"/>
      <use x="301.123047" xlink:href="#DejaVuSans-100"/>
      <use x="364.599609" xlink:href="#DejaVuSans-116"/>
      <use x="403.808594" xlink:href="#DejaVuSans-104"/>
      <use x="467.1875" xlink:href="#DejaVuSans-32"/>
      <use x="498.974609" xlink:href="#DejaVuSans-61"/>
      <use x="582.763672" xlink:href="#DejaVuSans-32"/>
      <use x="614.550781" xlink:href="#DejaVuSans-50"/>
      <use x="678.173828" xlink:href="#DejaVuSans-32"/>
      <use x="709.960938" xlink:href="#DejaVuSans-104"/>
      <use x="773.339844" xlink:href="#DejaVuSans-114"/>
      <use x="814.453125" xlink:href="#DejaVuSans-115"/>
     </g>
    </g>
    <g id="line2d_21">
     <path d="M 178.834219 83.926688 
L 198.834219 83.926688 
" style="fill:none;stroke:#2ca02c;stroke-linecap:square;stroke-width:1.5;"/>
    </g>
    <g id="line2d_22"/>
    <g id="text_18">
     <!-- Bin width = 3 hrs -->
     <g transform="translate(206.834219 87.426688)scale(0.1 -0.1)">
      <use xlink:href="#DejaVuSans-66"/>
      <use x="68.603516" xlink:href="#DejaVuSans-105"/>
      <use x="96.386719" xlink:href="#DejaVuSans-110"/>
      <use x="159.765625" xlink:href="#DejaVuSans-32"/>
      <use x="191.552734" xlink:href="#DejaVuSans-119"/>
      <use x="273.339844" xlink:href="#DejaVuSans-105"/>
      <use x="301.123047" xlink:href="#DejaVuSans-100"/>
      <use x="364.599609" xlink:href="#DejaVuSans-116"/>
      <use x="403.808594" xlink:href="#DejaVuSans-104"/>
      <use x="467.1875" xlink:href="#DejaVuSans-32"/>
      <use x="498.974609" xlink:href="#DejaVuSans-61"/>
      <use x="582.763672" xlink:href="#DejaVuSans-32"/>
      <use x="614.550781" xlink:href="#DejaVuSans-51"/>
      <use x="678.173828" xlink:href="#DejaVuSans-32"/>
      <use x="709.960938" xlink:href="#DejaVuSans-104"/>
      <use x="773.339844" xlink:href="#DejaVuSans-114"/>
      <use x="814.453125" xlink:href="#DejaVuSans-115"/>
     </g>
    </g>
   </g>
  </g>
 </g>
 <defs>
  <clipPath id="pa1195406aa">
   <rect height="266.112" width="357.12" x="57.6" y="41.472"/>
  </clipPath>
 </defs>
</svg>
