<?xml version="1.0" encoding="utf-8" standalone="no"?>
<!DOCTYPE svg PUBLIC "-//W3C//DTD SVG 1.1//EN"
  "http://www.w3.org/Graphics/SVG/1.1/DTD/svg11.dtd">
<!-- Created with matplotlib (https://matplotlib.org/) -->
<svg height="345.6pt" version="1.1" viewBox="0 0 460.8 345.6" width="460.8pt" xmlns="http://www.w3.org/2000/svg" xmlns:xlink="http://www.w3.org/1999/xlink">
 <metadata>
  <rdf:RDF xmlns:cc="http://creativecommons.org/ns#" xmlns:dc="http://purl.org/dc/elements/1.1/" xmlns:rdf="http://www.w3.org/1999/02/22-rdf-syntax-ns#">
   <cc:Work>
    <dc:type rdf:resource="http://purl.org/dc/dcmitype/StillImage"/>
    <dc:date>2021-04-23T15:17:12.701915</dc:date>
    <dc:format>image/svg+xml</dc:format>
    <dc:creator>
     <cc:Agent>
      <dc:title>Matplotlib v3.3.3, https://matplotlib.org/</dc:title>
     </cc:Agent>
    </dc:creator>
   </cc:Work>
  </rdf:RDF>
 </metadata>
 <defs>
  <style type="text/css">*{stroke-linecap:butt;stroke-linejoin:round;}</style>
 </defs>
 <g id="figure_1">
  <g id="patch_1">
   <path d="M 0 345.6 
L 460.8 345.6 
L 460.8 0 
L 0 0 
z
" style="fill:#ffffff;"/>
  </g>
  <g id="axes_1">
   <g id="patch_2">
    <path d="M 57.6 307.584 
L 414.72 307.584 
L 414.72 41.472 
L 57.6 41.472 
z
" style="fill:#ffffff;"/>
   </g>
   <g id="matplotlib.axis_1">
    <g id="xtick_1">
     <g id="line2d_1">
      <defs>
       <path d="M 0 0 
L 0 3.5 
" id="m6fa081edf1" style="stroke:#000000;stroke-width:0.8;"/>
      </defs>
      <g>
       <use style="stroke:#000000;stroke-width:0.8;" x="73.829029" xlink:href="#m6fa081edf1" y="307.584"/>
      </g>
     </g>
     <g id="text_1">
      <!-- 0 -->
      <g transform="translate(70.647779 322.182437)scale(0.1 -0.1)">
       <defs>
        <path d="M 31.78125 66.40625 
Q 24.171875 66.40625 20.328125 58.90625 
Q 16.5 51.421875 16.5 36.375 
Q 16.5 21.390625 20.328125 13.890625 
Q 24.171875 6.390625 31.78125 6.390625 
Q 39.453125 6.390625 43.28125 13.890625 
Q 47.125 21.390625 47.125 36.375 
Q 47.125 51.421875 43.28125 58.90625 
Q 39.453125 66.40625 31.78125 66.40625 
z
M 31.78125 74.21875 
Q 44.046875 74.21875 50.515625 64.515625 
Q 56.984375 54.828125 56.984375 36.375 
Q 56.984375 17.96875 50.515625 8.265625 
Q 44.046875 -1.421875 31.78125 -1.421875 
Q 19.53125 -1.421875 13.0625 8.265625 
Q 6.59375 17.96875 6.59375 36.375 
Q 6.59375 54.828125 13.0625 64.515625 
Q 19.53125 74.21875 31.78125 74.21875 
z
" id="DejaVuSans-48"/>
       </defs>
       <use xlink:href="#DejaVuSans-48"/>
      </g>
     </g>
    </g>
    <g id="xtick_2">
     <g id="line2d_2">
      <g>
       <use style="stroke:#000000;stroke-width:0.8;" x="141.468597" xlink:href="#m6fa081edf1" y="307.584"/>
      </g>
     </g>
     <g id="text_2">
      <!-- 5 -->
      <g transform="translate(138.287347 322.182437)scale(0.1 -0.1)">
       <defs>
        <path d="M 10.796875 72.90625 
L 49.515625 72.90625 
L 49.515625 64.59375 
L 19.828125 64.59375 
L 19.828125 46.734375 
Q 21.96875 47.46875 24.109375 47.828125 
Q 26.265625 48.1875 28.421875 48.1875 
Q 40.625 48.1875 47.75 41.5 
Q 54.890625 34.8125 54.890625 23.390625 
Q 54.890625 11.625 47.5625 5.09375 
Q 40.234375 -1.421875 26.90625 -1.421875 
Q 22.3125 -1.421875 17.546875 -0.640625 
Q 12.796875 0.140625 7.71875 1.703125 
L 7.71875 11.625 
Q 12.109375 9.234375 16.796875 8.0625 
Q 21.484375 6.890625 26.703125 6.890625 
Q 35.15625 6.890625 40.078125 11.328125 
Q 45.015625 15.765625 45.015625 23.390625 
Q 45.015625 31 40.078125 35.4375 
Q 35.15625 39.890625 26.703125 39.890625 
Q 22.75 39.890625 18.8125 39.015625 
Q 14.890625 38.140625 10.796875 36.28125 
z
" id="DejaVuSans-53"/>
       </defs>
       <use xlink:href="#DejaVuSans-53"/>
      </g>
     </g>
    </g>
    <g id="xtick_3">
     <g id="line2d_3">
      <g>
       <use style="stroke:#000000;stroke-width:0.8;" x="209.108166" xlink:href="#m6fa081edf1" y="307.584"/>
      </g>
     </g>
     <g id="text_3">
      <!-- 10 -->
      <g transform="translate(202.745666 322.182437)scale(0.1 -0.1)">
       <defs>
        <path d="M 12.40625 8.296875 
L 28.515625 8.296875 
L 28.515625 63.921875 
L 10.984375 60.40625 
L 10.984375 69.390625 
L 28.421875 72.90625 
L 38.28125 72.90625 
L 38.28125 8.296875 
L 54.390625 8.296875 
L 54.390625 0 
L 12.40625 0 
z
" id="DejaVuSans-49"/>
       </defs>
       <use xlink:href="#DejaVuSans-49"/>
       <use x="63.623047" xlink:href="#DejaVuSans-48"/>
      </g>
     </g>
    </g>
    <g id="xtick_4">
     <g id="line2d_4">
      <g>
       <use style="stroke:#000000;stroke-width:0.8;" x="276.747734" xlink:href="#m6fa081edf1" y="307.584"/>
      </g>
     </g>
     <g id="text_4">
      <!-- 15 -->
      <g transform="translate(270.385234 322.182437)scale(0.1 -0.1)">
       <use xlink:href="#DejaVuSans-49"/>
       <use x="63.623047" xlink:href="#DejaVuSans-53"/>
      </g>
     </g>
    </g>
    <g id="xtick_5">
     <g id="line2d_5">
      <g>
       <use style="stroke:#000000;stroke-width:0.8;" x="344.387302" xlink:href="#m6fa081edf1" y="307.584"/>
      </g>
     </g>
     <g id="text_5">
      <!-- 20 -->
      <g transform="translate(338.024802 322.182437)scale(0.1 -0.1)">
       <defs>
        <path d="M 19.1875 8.296875 
L 53.609375 8.296875 
L 53.609375 0 
L 7.328125 0 
L 7.328125 8.296875 
Q 12.9375 14.109375 22.625 23.890625 
Q 32.328125 33.6875 34.8125 36.53125 
Q 39.546875 41.84375 41.421875 45.53125 
Q 43.3125 49.21875 43.3125 52.78125 
Q 43.3125 58.59375 39.234375 62.25 
Q 35.15625 65.921875 28.609375 65.921875 
Q 23.96875 65.921875 18.8125 64.3125 
Q 13.671875 62.703125 7.8125 59.421875 
L 7.8125 69.390625 
Q 13.765625 71.78125 18.9375 73 
Q 24.125 74.21875 28.421875 74.21875 
Q 39.75 74.21875 46.484375 68.546875 
Q 53.21875 62.890625 53.21875 53.421875 
Q 53.21875 48.921875 51.53125 44.890625 
Q 49.859375 40.875 45.40625 35.40625 
Q 44.1875 33.984375 37.640625 27.21875 
Q 31.109375 20.453125 19.1875 8.296875 
z
" id="DejaVuSans-50"/>
       </defs>
       <use xlink:href="#DejaVuSans-50"/>
       <use x="63.623047" xlink:href="#DejaVuSans-48"/>
      </g>
     </g>
    </g>
    <g id="xtick_6">
     <g id="line2d_6">
      <g>
       <use style="stroke:#000000;stroke-width:0.8;" x="412.02687" xlink:href="#m6fa081edf1" y="307.584"/>
      </g>
     </g>
     <g id="text_6">
      <!-- 25 -->
      <g transform="translate(405.66437 322.182437)scale(0.1 -0.1)">
       <use xlink:href="#DejaVuSans-50"/>
       <use x="63.623047" xlink:href="#DejaVuSans-53"/>
      </g>
     </g>
    </g>
    <g id="text_7">
     <!-- LST -->
     <g transform="translate(227.145938 335.860562)scale(0.1 -0.1)">
      <defs>
       <path d="M 9.8125 72.90625 
L 19.671875 72.90625 
L 19.671875 8.296875 
L 55.171875 8.296875 
L 55.171875 0 
L 9.8125 0 
z
" id="DejaVuSans-76"/>
       <path d="M 53.515625 70.515625 
L 53.515625 60.890625 
Q 47.90625 63.578125 42.921875 64.890625 
Q 37.9375 66.21875 33.296875 66.21875 
Q 25.25 66.21875 20.875 63.09375 
Q 16.5 59.96875 16.5 54.203125 
Q 16.5 49.359375 19.40625 46.890625 
Q 22.3125 44.4375 30.421875 42.921875 
L 36.375 41.703125 
Q 47.40625 39.59375 52.65625 34.296875 
Q 57.90625 29 57.90625 20.125 
Q 57.90625 9.515625 50.796875 4.046875 
Q 43.703125 -1.421875 29.984375 -1.421875 
Q 24.8125 -1.421875 18.96875 -0.25 
Q 13.140625 0.921875 6.890625 3.21875 
L 6.890625 13.375 
Q 12.890625 10.015625 18.65625 8.296875 
Q 24.421875 6.59375 29.984375 6.59375 
Q 38.421875 6.59375 43.015625 9.90625 
Q 47.609375 13.234375 47.609375 19.390625 
Q 47.609375 24.75 44.3125 27.78125 
Q 41.015625 30.8125 33.5 32.328125 
L 27.484375 33.5 
Q 16.453125 35.6875 11.515625 40.375 
Q 6.59375 45.0625 6.59375 53.421875 
Q 6.59375 63.09375 13.40625 68.65625 
Q 20.21875 74.21875 32.171875 74.21875 
Q 37.3125 74.21875 42.625 73.28125 
Q 47.953125 72.359375 53.515625 70.515625 
z
" id="DejaVuSans-83"/>
       <path d="M -0.296875 72.90625 
L 61.375 72.90625 
L 61.375 64.59375 
L 35.5 64.59375 
L 35.5 0 
L 25.59375 0 
L 25.59375 64.59375 
L -0.296875 64.59375 
z
" id="DejaVuSans-84"/>
      </defs>
      <use xlink:href="#DejaVuSans-76"/>
      <use x="55.712891" xlink:href="#DejaVuSans-83"/>
      <use x="119.189453" xlink:href="#DejaVuSans-84"/>
     </g>
    </g>
   </g>
   <g id="matplotlib.axis_2">
    <g id="ytick_1">
     <g id="line2d_7">
      <defs>
       <path d="M 0 0 
L -3.5 0 
" id="m2cf98aabe1" style="stroke:#000000;stroke-width:0.8;"/>
      </defs>
      <g>
       <use style="stroke:#000000;stroke-width:0.8;" x="57.6" xlink:href="#m2cf98aabe1" y="307.584"/>
      </g>
     </g>
     <g id="text_8">
      <!-- 0.00 -->
      <g transform="translate(28.334375 311.383219)scale(0.1 -0.1)">
       <defs>
        <path d="M 10.6875 12.40625 
L 21 12.40625 
L 21 0 
L 10.6875 0 
z
" id="DejaVuSans-46"/>
       </defs>
       <use xlink:href="#DejaVuSans-48"/>
       <use x="63.623047" xlink:href="#DejaVuSans-46"/>
       <use x="95.410156" xlink:href="#DejaVuSans-48"/>
       <use x="159.033203" xlink:href="#DejaVuSans-48"/>
      </g>
     </g>
    </g>
    <g id="ytick_2">
     <g id="line2d_8">
      <g>
       <use style="stroke:#000000;stroke-width:0.8;" x="57.6" xlink:href="#m2cf98aabe1" y="254.3616"/>
      </g>
     </g>
     <g id="text_9">
      <!-- 0.05 -->
      <g transform="translate(28.334375 258.160819)scale(0.1 -0.1)">
       <use xlink:href="#DejaVuSans-48"/>
       <use x="63.623047" xlink:href="#DejaVuSans-46"/>
       <use x="95.410156" xlink:href="#DejaVuSans-48"/>
       <use x="159.033203" xlink:href="#DejaVuSans-53"/>
      </g>
     </g>
    </g>
    <g id="ytick_3">
     <g id="line2d_9">
      <g>
       <use style="stroke:#000000;stroke-width:0.8;" x="57.6" xlink:href="#m2cf98aabe1" y="201.1392"/>
      </g>
     </g>
     <g id="text_10">
      <!-- 0.10 -->
      <g transform="translate(28.334375 204.938419)scale(0.1 -0.1)">
       <use xlink:href="#DejaVuSans-48"/>
       <use x="63.623047" xlink:href="#DejaVuSans-46"/>
       <use x="95.410156" xlink:href="#DejaVuSans-49"/>
       <use x="159.033203" xlink:href="#DejaVuSans-48"/>
      </g>
     </g>
    </g>
    <g id="ytick_4">
     <g id="line2d_10">
      <g>
       <use style="stroke:#000000;stroke-width:0.8;" x="57.6" xlink:href="#m2cf98aabe1" y="147.9168"/>
      </g>
     </g>
     <g id="text_11">
      <!-- 0.15 -->
      <g transform="translate(28.334375 151.716019)scale(0.1 -0.1)">
       <use xlink:href="#DejaVuSans-48"/>
       <use x="63.623047" xlink:href="#DejaVuSans-46"/>
       <use x="95.410156" xlink:href="#DejaVuSans-49"/>
       <use x="159.033203" xlink:href="#DejaVuSans-53"/>
      </g>
     </g>
    </g>
    <g id="ytick_5">
     <g id="line2d_11">
      <g>
       <use style="stroke:#000000;stroke-width:0.8;" x="57.6" xlink:href="#m2cf98aabe1" y="94.6944"/>
      </g>
     </g>
     <g id="text_12">
      <!-- 0.20 -->
      <g transform="translate(28.334375 98.493619)scale(0.1 -0.1)">
       <use xlink:href="#DejaVuSans-48"/>
       <use x="63.623047" xlink:href="#DejaVuSans-46"/>
       <use x="95.410156" xlink:href="#DejaVuSans-50"/>
       <use x="159.033203" xlink:href="#DejaVuSans-48"/>
      </g>
     </g>
    </g>
    <g id="ytick_6">
     <g id="line2d_12">
      <g>
       <use style="stroke:#000000;stroke-width:0.8;" x="57.6" xlink:href="#m2cf98aabe1" y="41.472"/>
      </g>
     </g>
     <g id="text_13">
      <!-- 0.25 -->
      <g transform="translate(28.334375 45.271219)scale(0.1 -0.1)">
       <use xlink:href="#DejaVuSans-48"/>
       <use x="63.623047" xlink:href="#DejaVuSans-46"/>
       <use x="95.410156" xlink:href="#DejaVuSans-50"/>
       <use x="159.033203" xlink:href="#DejaVuSans-53"/>
      </g>
     </g>
    </g>
    <g id="text_14">
     <!-- RMS -->
     <g transform="translate(22.254688 185.4905)rotate(-90)scale(0.1 -0.1)">
      <defs>
       <path d="M 44.390625 34.1875 
Q 47.5625 33.109375 50.5625 29.59375 
Q 53.5625 26.078125 56.59375 19.921875 
L 66.609375 0 
L 56 0 
L 46.6875 18.703125 
Q 43.0625 26.03125 39.671875 28.421875 
Q 36.28125 30.8125 30.421875 30.8125 
L 19.671875 30.8125 
L 19.671875 0 
L 9.8125 0 
L 9.8125 72.90625 
L 32.078125 72.90625 
Q 44.578125 72.90625 50.734375 67.671875 
Q 56.890625 62.453125 56.890625 51.90625 
Q 56.890625 45.015625 53.6875 40.46875 
Q 50.484375 35.9375 44.390625 34.1875 
z
M 19.671875 64.796875 
L 19.671875 38.921875 
L 32.078125 38.921875 
Q 39.203125 38.921875 42.84375 42.21875 
Q 46.484375 45.515625 46.484375 51.90625 
Q 46.484375 58.296875 42.84375 61.546875 
Q 39.203125 64.796875 32.078125 64.796875 
z
" id="DejaVuSans-82"/>
       <path d="M 9.8125 72.90625 
L 24.515625 72.90625 
L 43.109375 23.296875 
L 61.8125 72.90625 
L 76.515625 72.90625 
L 76.515625 0 
L 66.890625 0 
L 66.890625 64.015625 
L 48.09375 14.015625 
L 38.1875 14.015625 
L 19.390625 64.015625 
L 19.390625 0 
L 9.8125 0 
z
" id="DejaVuSans-77"/>
      </defs>
      <use xlink:href="#DejaVuSans-82"/>
      <use x="69.482422" xlink:href="#DejaVuSans-77"/>
      <use x="155.761719" xlink:href="#DejaVuSans-83"/>
     </g>
    </g>
   </g>
   <g id="line2d_13">
    <path clip-path="url(#p79dc7db901)" d="M 73.832727 57.083459 
L 75.185455 53.65934 
L 76.538182 50.897979 
L 77.890909 48.808002 
L 79.243636 47.398381 
L 80.596364 46.676173 
L 81.949091 46.633735 
L 83.301818 47.276696 
L 84.654546 48.585514 
L 86.007273 50.558525 
L 87.36 53.191218 
L 88.712727 56.464688 
L 90.065455 60.366516 
L 91.418182 64.876768 
L 92.770909 69.965607 
L 94.123637 75.606633 
L 96.829091 88.445708 
L 99.534546 103.156252 
L 102.24 119.423835 
L 104.945455 136.904815 
L 109.003637 164.63224 
L 117.120001 220.71879 
L 119.825455 238.24827 
L 122.53091 254.644871 
L 125.236364 269.651674 
L 127.941819 283.059095 
L 130.647273 294.718755 
L 132.000001 299.834993 
L 133.352728 304.340604 
L 134.705455 305.564402 
L 137.41091 298.894088 
L 138.763637 295.987536 
L 140.116364 293.485498 
L 141.469092 291.384396 
L 142.821819 289.657585 
L 144.174546 288.297631 
L 145.527273 287.278964 
L 146.880001 286.575215 
L 148.232728 286.1566 
L 149.585455 286.008029 
L 150.938183 286.095762 
L 152.29091 286.389461 
L 153.643637 286.860883 
L 154.996364 287.481164 
L 157.701819 289.07435 
L 161.760001 291.90734 
L 165.818183 294.665229 
L 168.523637 296.171062 
L 169.876365 296.758511 
L 171.229092 297.216686 
L 172.581819 297.5306 
L 173.934546 297.684788 
L 175.287274 297.66569 
L 176.640001 297.464586 
L 177.992728 297.075189 
L 179.345456 296.494057 
L 180.698183 295.704098 
L 182.05091 294.710057 
L 183.403637 293.517113 
L 184.756365 292.121253 
L 186.109092 290.522341 
L 187.461819 288.727672 
L 190.167274 284.592059 
L 192.872728 279.794021 
L 195.578183 274.456635 
L 199.636365 265.737881 
L 207.752728 247.928059 
L 210.458183 242.559524 
L 213.163638 237.769675 
L 215.869092 233.702719 
L 217.221819 231.978526 
L 218.574547 230.475663 
L 219.927274 229.204882 
L 221.280001 228.173459 
L 222.632728 227.389285 
L 223.985456 226.849163 
L 225.338183 226.554922 
L 226.69091 226.504951 
L 228.043638 226.697082 
L 229.396365 227.122499 
L 230.749092 227.772556 
L 232.101819 228.636743 
L 233.454547 229.698757 
L 234.807274 230.945654 
L 237.512728 233.925445 
L 240.218183 237.415565 
L 244.276365 243.211727 
L 248.334547 249.06811 
L 251.040001 252.649629 
L 253.745456 255.728797 
L 255.098183 257.010944 
L 256.45091 258.092348 
L 257.803638 258.947071 
L 259.156365 259.554388 
L 260.509092 259.895479 
L 261.861819 259.950767 
L 263.214547 259.712677 
L 264.567274 259.167754 
L 265.920001 258.306324 
L 267.272728 257.12703 
L 268.625456 255.631094 
L 269.978183 253.817692 
L 271.33091 251.701848 
L 272.683638 249.296985 
L 275.389092 243.699847 
L 278.094547 237.233307 
L 282.152728 226.561341 
L 286.21091 215.851445 
L 288.916365 209.401545 
L 290.269092 206.539172 
L 291.621819 203.995299 
L 292.974547 201.812891 
L 294.327274 200.03479 
L 295.680001 198.697416 
L 297.032728 197.834484 
L 298.385456 197.463266 
L 299.738183 197.604492 
L 301.09091 198.253847 
L 302.443637 199.41859 
L 303.796365 201.090487 
L 305.149092 203.236379 
L 306.501819 205.826407 
L 307.854546 208.834021 
L 309.207274 212.21155 
L 311.912728 219.835534 
L 315.97091 232.57009 
L 320.029092 245.312487 
L 322.734546 253.022628 
L 325.440001 259.694638 
L 326.792728 262.566407 
L 328.145455 265.111805 
L 329.498183 267.326763 
L 330.85091 269.219223 
L 332.203637 270.806304 
L 333.556364 272.114413 
L 334.909092 273.177138 
L 336.261819 274.034489 
L 338.967273 275.376363 
L 341.672728 276.605867 
L 343.025455 277.342834 
L 344.378183 278.243351 
L 345.73091 279.377082 
L 347.083637 280.811278 
L 348.436364 282.597996 
L 349.789092 284.788924 
L 351.141819 287.421485 
L 352.494546 290.528498 
L 353.847273 294.125549 
L 356.552728 302.25305 
L 357.905455 303.570204 
L 359.258182 299.165003 
L 360.61091 292.984241 
L 361.963637 286.02981 
L 364.669091 270.39564 
L 367.374546 252.872584 
L 370.08 233.879633 
L 374.138182 203.625119 
L 380.901818 152.42049 
L 383.607273 133.031211 
L 386.312727 114.884824 
L 389.018182 99.533857 
L 391.723636 85.858349 
L 394.429091 74.102491 
L 395.781818 69.005056 
L 397.134545 64.457526 
L 398.487273 60.479372 
L 398.487273 60.479372 
" style="fill:none;stroke:#1f77b4;stroke-linecap:square;stroke-width:1.5;"/>
   </g>
   <g id="line2d_14">
    <path clip-path="url(#p79dc7db901)" d="M 73.832727 55.138077 
L 75.185455 55.062697 
L 76.538182 55.632886 
L 77.890909 56.842993 
L 79.243636 58.682566 
L 80.596364 61.141929 
L 81.949091 64.206041 
L 83.301818 67.861666 
L 84.654546 72.086934 
L 86.007273 76.857816 
L 87.36 82.154536 
L 90.065455 94.200284 
L 92.770909 107.98047 
L 95.476364 123.205313 
L 98.181818 139.570262 
L 102.24 165.52615 
L 110.356364 218.213111 
L 114.414546 242.726568 
L 117.120001 257.746201 
L 119.825455 271.450816 
L 122.53091 283.678095 
L 125.236364 294.30623 
L 126.589092 298.982629 
L 127.941819 303.171554 
L 129.294546 306.126673 
L 130.647273 304.056005 
L 132.000001 301.101751 
L 133.352728 298.43648 
L 134.705455 296.116815 
L 136.058183 294.147275 
L 137.41091 292.514102 
L 138.763637 291.197371 
L 140.116364 290.177799 
L 141.469092 289.43547 
L 142.821819 288.945748 
L 144.174546 288.687503 
L 145.527273 288.632429 
L 146.880001 288.756451 
L 148.232728 289.034423 
L 150.938183 289.948865 
L 153.643637 291.169608 
L 159.054546 293.769375 
L 161.760001 294.80148 
L 164.465455 295.449092 
L 165.818183 295.592863 
L 167.17091 295.596269 
L 168.523637 295.450578 
L 169.876365 295.146194 
L 171.229092 294.67611 
L 172.581819 294.032926 
L 173.934546 293.212627 
L 175.287274 292.212783 
L 176.640001 291.036139 
L 177.992728 289.681632 
L 179.345456 288.15336 
L 182.05091 284.593571 
L 184.756365 280.425051 
L 187.461819 275.736719 
L 191.520001 267.993935 
L 200.989092 249.186526 
L 203.694547 244.335328 
L 206.400001 239.992522 
L 209.105456 236.286906 
L 210.458183 234.705918 
L 211.81091 233.319854 
L 213.163638 232.138701 
L 214.516365 231.169251 
L 215.869092 230.413907 
L 217.221819 229.876831 
L 218.574547 229.55751 
L 219.927274 229.453167 
L 221.280001 229.560958 
L 222.632728 229.875936 
L 223.985456 230.388867 
L 225.338183 231.088587 
L 226.69091 231.962091 
L 228.043638 232.998623 
L 230.749092 235.494531 
L 233.454547 238.428338 
L 237.512728 243.291132 
L 241.57091 248.15765 
L 244.276365 251.083506 
L 246.981819 253.527549 
L 248.334547 254.512724 
L 249.687274 255.314217 
L 251.040001 255.91093 
L 252.392728 256.287757 
L 253.745456 256.429084 
L 255.098183 256.321752 
L 256.45091 255.95541 
L 257.803638 255.324652 
L 259.156365 254.425836 
L 260.509092 253.257938 
L 261.861819 251.825759 
L 263.214547 250.136635 
L 264.567274 248.201563 
L 265.920001 246.036594 
L 268.625456 241.098129 
L 271.33091 235.523056 
L 280.800001 215.114875 
L 282.152728 212.630815 
L 283.505456 210.380748 
L 284.858183 208.402758 
L 286.21091 206.729037 
L 287.563637 205.389796 
L 288.916365 204.410985 
L 290.269092 203.815687 
L 291.621819 203.616681 
L 292.974547 203.820508 
L 294.327274 204.435284 
L 295.680001 205.455377 
L 297.032728 206.867317 
L 298.385456 208.650391 
L 299.738183 210.788336 
L 301.09091 213.246752 
L 303.796365 218.995598 
L 306.501819 225.570376 
L 315.97091 249.949405 
L 318.676365 255.989932 
L 321.381819 261.234022 
L 324.087274 265.63908 
L 326.792728 269.286578 
L 329.498183 272.356984 
L 336.261819 279.451168 
L 337.614546 281.135269 
L 338.967273 283.019272 
L 340.320001 285.152597 
L 341.672728 287.57323 
L 343.025455 290.315715 
L 344.378183 293.405002 
L 348.436364 303.800181 
L 349.789092 302.953713 
L 351.141819 298.359714 
L 352.494546 292.728514 
L 355.200001 279.747013 
L 357.905455 264.899641 
L 360.61091 248.476514 
L 363.316364 230.787334 
L 367.374546 202.673344 
L 374.138182 155.33012 
L 378.196364 129.26486 
L 380.901818 113.264646 
L 383.607273 98.746564 
L 386.312727 85.985711 
L 387.665455 80.340124 
L 389.018182 75.217184 
L 390.370909 70.639431 
L 391.723636 66.629413 
L 393.076364 63.20258 
L 394.429091 60.369035 
L 395.781818 58.141744 
L 397.134545 56.522342 
L 398.487273 55.519728 
L 398.487273 55.519728 
" style="fill:none;stroke:#ff7f0e;stroke-linecap:square;stroke-width:1.5;"/>
   </g>
   <g id="line2d_15">
    <path clip-path="url(#p79dc7db901)" d="M 73.832727 73.798619 
L 75.185455 76.517275 
L 76.538182 79.76716 
L 77.890909 83.531081 
L 79.243636 87.787321 
L 80.596364 92.512684 
L 83.301818 103.269193 
L 86.007273 115.572783 
L 88.712727 129.173154 
L 91.418182 143.798329 
L 95.476364 167.021613 
L 104.945455 222.157506 
L 109.003637 244.011685 
L 111.709091 257.422957 
L 114.414546 269.708845 
L 117.120001 280.747754 
L 119.825455 290.44559 
L 122.53091 298.745428 
L 123.883637 302.330935 
L 125.236364 305.365173 
L 126.589092 305.744685 
L 129.294546 301.184696 
L 130.647273 299.170708 
L 132.000001 297.428595 
L 133.352728 295.949836 
L 134.705455 294.721208 
L 136.058183 293.725681 
L 137.41091 292.945302 
L 138.763637 292.358458 
L 140.116364 291.946414 
L 141.469092 291.688274 
L 144.174546 291.542117 
L 146.880001 291.748244 
L 154.996364 292.811954 
L 157.701819 292.827721 
L 160.407274 292.470453 
L 161.760001 292.127258 
L 163.112728 291.661106 
L 164.465455 291.065303 
L 165.818183 290.335316 
L 167.17091 289.468424 
L 168.523637 288.461987 
L 171.229092 286.031175 
L 173.934546 283.062785 
L 176.640001 279.5984 
L 179.345456 275.705553 
L 182.05091 271.466246 
L 186.109092 264.691016 
L 192.872728 253.267608 
L 195.578183 249.016578 
L 198.283637 245.121537 
L 200.989092 241.693165 
L 203.694547 238.817233 
L 205.047274 237.609546 
L 206.400001 236.563984 
L 207.752728 235.686335 
L 209.105456 234.980553 
L 210.458183 234.448554 
L 211.81091 234.089097 
L 213.163638 233.900694 
L 214.516365 233.881431 
L 215.869092 234.025522 
L 217.221819 234.325452 
L 218.574547 234.772642 
L 219.927274 235.357087 
L 222.632728 236.892285 
L 225.338183 238.819995 
L 229.396365 242.159135 
L 234.807274 246.663375 
L 237.512728 248.588883 
L 240.218183 250.097309 
L 241.57091 250.652233 
L 242.923638 251.054917 
L 244.276365 251.291545 
L 245.629092 251.351451 
L 246.981819 251.225804 
L 248.334547 250.908908 
L 249.687274 250.39617 
L 251.040001 249.685358 
L 252.392728 248.780335 
L 253.745456 247.684031 
L 255.098183 246.402682 
L 257.803638 243.331607 
L 260.509092 239.682458 
L 263.214547 235.607135 
L 271.33091 222.839057 
L 274.036365 219.136204 
L 275.389092 217.510148 
L 276.741819 216.066205 
L 278.094547 214.824722 
L 279.447274 213.804026 
L 280.800001 213.022889 
L 282.152728 212.492626 
L 283.505456 212.221459 
L 284.858183 212.215215 
L 286.21091 212.477593 
L 287.563637 213.007236 
L 288.916365 213.798864 
L 290.269092 214.844815 
L 291.621819 216.135186 
L 292.974547 217.65253 
L 294.327274 219.384135 
L 297.032728 223.414063 
L 299.738183 228.048274 
L 303.796365 235.73775 
L 313.265456 254.185971 
L 317.323637 261.48341 
L 328.145455 280.155423 
L 330.85091 285.464405 
L 333.556364 291.41754 
L 336.261819 298.136837 
L 337.614546 301.691547 
L 338.967273 304.571569 
L 340.320001 303.162667 
L 341.672728 298.953373 
L 343.025455 294.047591 
L 345.73091 283.014496 
L 348.436364 270.564368 
L 351.141819 256.820387 
L 353.847273 241.932499 
L 357.905455 217.911244 
L 368.727273 151.734171 
L 371.432728 136.092905 
L 374.138182 121.444816 
L 376.843637 108.086128 
L 379.549091 96.294135 
L 380.901818 91.05699 
L 382.254546 86.295884 
L 383.607273 82.02836 
L 384.96 78.275761 
L 386.312727 75.055983 
L 387.665455 72.383261 
L 389.018182 70.26845 
L 390.370909 68.71993 
L 391.723636 67.742767 
L 393.076364 67.338457 
L 394.429091 67.506254 
L 395.781818 68.244104 
L 397.134545 69.545034 
L 398.487273 71.399502 
L 398.487273 71.399502 
" style="fill:none;stroke:#2ca02c;stroke-linecap:square;stroke-width:1.5;"/>
   </g>
   <g id="patch_3">
    <path d="M 57.6 307.584 
L 57.6 41.472 
" style="fill:none;stroke:#000000;stroke-linecap:square;stroke-linejoin:miter;stroke-width:0.8;"/>
   </g>
   <g id="patch_4">
    <path d="M 414.72 307.584 
L 414.72 41.472 
" style="fill:none;stroke:#000000;stroke-linecap:square;stroke-linejoin:miter;stroke-width:0.8;"/>
   </g>
   <g id="patch_5">
    <path d="M 57.6 307.584 
L 414.72 307.584 
" style="fill:none;stroke:#000000;stroke-linecap:square;stroke-linejoin:miter;stroke-width:0.8;"/>
   </g>
   <g id="patch_6">
    <path d="M 57.6 41.472 
L 414.72 41.472 
" style="fill:none;stroke:#000000;stroke-linecap:square;stroke-linejoin:miter;stroke-width:0.8;"/>
   </g>
   <g id="legend_1">
    <g id="patch_7">
     <path d="M 176.834219 93.506375 
L 295.485781 93.506375 
Q 297.485781 93.506375 297.485781 91.506375 
L 297.485781 48.472 
Q 297.485781 46.472 295.485781 46.472 
L 176.834219 46.472 
Q 174.834219 46.472 174.834219 48.472 
L 174.834219 91.506375 
Q 174.834219 93.506375 176.834219 93.506375 
z
" style="fill:#ffffff;opacity:0.8;stroke:#cccccc;stroke-linejoin:miter;"/>
    </g>
    <g id="line2d_16">
     <path d="M 178.834219 54.570438 
L 198.834219 54.570438 
" style="fill:none;stroke:#1f77b4;stroke-linecap:square;stroke-width:1.5;"/>
    </g>
    <g id="line2d_17"/>
    <g id="text_15">
     <!-- Bin width = 1 hrs -->
     <g transform="translate(206.834219 58.070438)scale(0.1 -0.1)">
      <defs>
       <path d="M 19.671875 34.8125 
L 19.671875 8.109375 
L 35.5 8.109375 
Q 43.453125 8.109375 47.28125 11.40625 
Q 51.125 14.703125 51.125 21.484375 
Q 51.125 28.328125 47.28125 31.5625 
Q 43.453125 34.8125 35.5 34.8125 
z
M 19.671875 64.796875 
L 19.671875 42.828125 
L 34.28125 42.828125 
Q 41.5 42.828125 45.03125 45.53125 
Q 48.578125 48.25 48.578125 53.8125 
Q 48.578125 59.328125 45.03125 62.0625 
Q 41.5 64.796875 34.28125 64.796875 
z
M 9.8125 72.90625 
L 35.015625 72.90625 
Q 46.296875 72.90625 52.390625 68.21875 
Q 58.5 63.53125 58.5 54.890625 
Q 58.5 48.1875 55.375 44.234375 
Q 52.25 40.28125 46.1875 39.3125 
Q 53.46875 37.75 57.5 32.78125 
Q 61.53125 27.828125 61.53125 20.40625 
Q 61.53125 10.640625 54.890625 5.3125 
Q 48.25 0 35.984375 0 
L 9.8125 0 
z
" id="DejaVuSans-66"/>
       <path d="M 9.421875 54.6875 
L 18.40625 54.6875 
L 18.40625 0 
L 9.421875 0 
z
M 9.421875 75.984375 
L 18.40625 75.984375 
L 18.40625 64.59375 
L 9.421875 64.59375 
z
" id="DejaVuSans-105"/>
       <path d="M 54.890625 33.015625 
L 54.890625 0 
L 45.90625 0 
L 45.90625 32.71875 
Q 45.90625 40.484375 42.875 44.328125 
Q 39.84375 48.1875 33.796875 48.1875 
Q 26.515625 48.1875 22.3125 43.546875 
Q 18.109375 38.921875 18.109375 30.90625 
L 18.109375 0 
L 9.078125 0 
L 9.078125 54.6875 
L 18.109375 54.6875 
L 18.109375 46.1875 
Q 21.34375 51.125 25.703125 53.5625 
Q 30.078125 56 35.796875 56 
Q 45.21875 56 50.046875 50.171875 
Q 54.890625 44.34375 54.890625 33.015625 
z
" id="DejaVuSans-110"/>
       <path id="DejaVuSans-32"/>
       <path d="M 4.203125 54.6875 
L 13.1875 54.6875 
L 24.421875 12.015625 
L 35.59375 54.6875 
L 46.1875 54.6875 
L 57.421875 12.015625 
L 68.609375 54.6875 
L 77.59375 54.6875 
L 63.28125 0 
L 52.6875 0 
L 40.921875 44.828125 
L 29.109375 0 
L 18.5 0 
z
" id="DejaVuSans-119"/>
       <path d="M 45.40625 46.390625 
L 45.40625 75.984375 
L 54.390625 75.984375 
L 54.390625 0 
L 45.40625 0 
L 45.40625 8.203125 
Q 42.578125 3.328125 38.25 0.953125 
Q 33.9375 -1.421875 27.875 -1.421875 
Q 17.96875 -1.421875 11.734375 6.484375 
Q 5.515625 14.40625 5.515625 27.296875 
Q 5.515625 40.1875 11.734375 48.09375 
Q 17.96875 56 27.875 56 
Q 33.9375 56 38.25 53.625 
Q 42.578125 51.265625 45.40625 46.390625 
z
M 14.796875 27.296875 
Q 14.796875 17.390625 18.875 11.75 
Q 22.953125 6.109375 30.078125 6.109375 
Q 37.203125 6.109375 41.296875 11.75 
Q 45.40625 17.390625 45.40625 27.296875 
Q 45.40625 37.203125 41.296875 42.84375 
Q 37.203125 48.484375 30.078125 48.484375 
Q 22.953125 48.484375 18.875 42.84375 
Q 14.796875 37.203125 14.796875 27.296875 
z
" id="DejaVuSans-100"/>
       <path d="M 18.3125 70.21875 
L 18.3125 54.6875 
L 36.8125 54.6875 
L 36.8125 47.703125 
L 18.3125 47.703125 
L 18.3125 18.015625 
Q 18.3125 11.328125 20.140625 9.421875 
Q 21.96875 7.515625 27.59375 7.515625 
L 36.8125 7.515625 
L 36.8125 0 
L 27.59375 0 
Q 17.1875 0 13.234375 3.875 
Q 9.28125 7.765625 9.28125 18.015625 
L 9.28125 47.703125 
L 2.6875 47.703125 
L 2.6875 54.6875 
L 9.28125 54.6875 
L 9.28125 70.21875 
z
" id="DejaVuSans-116"/>
       <path d="M 54.890625 33.015625 
L 54.890625 0 
L 45.90625 0 
L 45.90625 32.71875 
Q 45.90625 40.484375 42.875 44.328125 
Q 39.84375 48.1875 33.796875 48.1875 
Q 26.515625 48.1875 22.3125 43.546875 
Q 18.109375 38.921875 18.109375 30.90625 
L 18.109375 0 
L 9.078125 0 
L 9.078125 75.984375 
L 18.109375 75.984375 
L 18.109375 46.1875 
Q 21.34375 51.125 25.703125 53.5625 
Q 30.078125 56 35.796875 56 
Q 45.21875 56 50.046875 50.171875 
Q 54.890625 44.34375 54.890625 33.015625 
z
" id="DejaVuSans-104"/>
       <path d="M 10.59375 45.40625 
L 73.1875 45.40625 
L 73.1875 37.203125 
L 10.59375 37.203125 
z
M 10.59375 25.484375 
L 73.1875 25.484375 
L 73.1875 17.1875 
L 10.59375 17.1875 
z
" id="DejaVuSans-61"/>
       <path d="M 41.109375 46.296875 
Q 39.59375 47.171875 37.8125 47.578125 
Q 36.03125 48 33.890625 48 
Q 26.265625 48 22.1875 43.046875 
Q 18.109375 38.09375 18.109375 28.8125 
L 18.109375 0 
L 9.078125 0 
L 9.078125 54.6875 
L 18.109375 54.6875 
L 18.109375 46.1875 
Q 20.953125 51.171875 25.484375 53.578125 
Q 30.03125 56 36.53125 56 
Q 37.453125 56 38.578125 55.875 
Q 39.703125 55.765625 41.0625 55.515625 
z
" id="DejaVuSans-114"/>
       <path d="M 44.28125 53.078125 
L 44.28125 44.578125 
Q 40.484375 46.53125 36.375 47.5 
Q 32.28125 48.484375 27.875 48.484375 
Q 21.1875 48.484375 17.84375 46.4375 
Q 14.5 44.390625 14.5 40.28125 
Q 14.5 37.15625 16.890625 35.375 
Q 19.28125 33.59375 26.515625 31.984375 
L 29.59375 31.296875 
Q 39.15625 29.25 43.1875 25.515625 
Q 47.21875 21.78125 47.21875 15.09375 
Q 47.21875 7.46875 41.1875 3.015625 
Q 35.15625 -1.421875 24.609375 -1.421875 
Q 20.21875 -1.421875 15.453125 -0.5625 
Q 10.6875 0.296875 5.421875 2 
L 5.421875 11.28125 
Q 10.40625 8.6875 15.234375 7.390625 
Q 20.0625 6.109375 24.8125 6.109375 
Q 31.15625 6.109375 34.5625 8.28125 
Q 37.984375 10.453125 37.984375 14.40625 
Q 37.984375 18.0625 35.515625 20.015625 
Q 33.0625 21.96875 24.703125 23.78125 
L 21.578125 24.515625 
Q 13.234375 26.265625 9.515625 29.90625 
Q 5.8125 33.546875 5.8125 39.890625 
Q 5.8125 47.609375 11.28125 51.796875 
Q 16.75 56 26.8125 56 
Q 31.78125 56 36.171875 55.265625 
Q 40.578125 54.546875 44.28125 53.078125 
z
" id="DejaVuSans-115"/>
      </defs>
      <use xlink:href="#DejaVuSans-66"/>
      <use x="68.603516" xlink:href="#DejaVuSans-105"/>
      <use x="96.386719" xlink:href="#DejaVuSans-110"/>
      <use x="159.765625" xlink:href="#DejaVuSans-32"/>
      <use x="191.552734" xlink:href="#DejaVuSans-119"/>
      <use x="273.339844" xlink:href="#DejaVuSans-105"/>
      <use x="301.123047" xlink:href="#DejaVuSans-100"/>
      <use x="364.599609" xlink:href="#DejaVuSans-116"/>
      <use x="403.808594" xlink:href="#DejaVuSans-104"/>
      <use x="467.1875" xlink:href="#DejaVuSans-32"/>
      <use x="498.974609" xlink:href="#DejaVuSans-61"/>
      <use x="582.763672" xlink:href="#DejaVuSans-32"/>
      <use x="614.550781" xlink:href="#DejaVuSans-49"/>
      <use x="678.173828" xlink:href="#DejaVuSans-32"/>
      <use x="709.960938" xlink:href="#DejaVuSans-104"/>
      <use x="773.339844" xlink:href="#DejaVuSans-114"/>
      <use x="814.453125" xlink:href="#DejaVuSans-115"/>
     </g>
    </g>
    <g id="line2d_18">
     <path d="M 178.834219 69.248563 
L 198.834219 69.248563 
" style="fill:none;stroke:#ff7f0e;stroke-linecap:square;stroke-width:1.5;"/>
    </g>
    <g id="line2d_19"/>
    <g id="text_16">
     <!-- Bin width = 2 hrs -->
     <g transform="translate(206.834219 72.748563)scale(0.1 -0.1)">
      <use xlink:href="#DejaVuSans-66"/>
      <use x="68.603516" xlink:href="#DejaVuSans-105"/>
      <use x="96.386719" xlink:href="#DejaVuSans-110"/>
      <use x="159.765625" xlink:href="#DejaVuSans-32"/>
      <use x="191.552734" xlink:href="#DejaVuSans-119"/>
      <use x="273.339844" xlink:href="#DejaVuSans-105"/>
      <use x="301.123047" xlink:href="#DejaVuSans-100"/>
      <use x="364.599609" xlink:href="#DejaVuSans-116"/>
      <use x="403.808594" xlink:href="#DejaVuSans-104"/>
      <use x="467.1875" xlink:href="#DejaVuSans-32"/>
      <use x="498.974609" xlink:href="#DejaVuSans-61"/>
      <use x="582.763672" xlink:href="#DejaVuSans-32"/>
      <use x="614.550781" xlink:href="#DejaVuSans-50"/>
      <use x="678.173828" xlink:href="#DejaVuSans-32"/>
      <use x="709.960938" xlink:href="#DejaVuSans-104"/>
      <use x="773.339844" xlink:href="#DejaVuSans-114"/>
      <use x="814.453125" xlink:href="#DejaVuSans-115"/>
     </g>
    </g>
    <g id="line2d_20">
     <path d="M 178.834219 83.926688 
L 198.834219 83.926688 
" style="fill:none;stroke:#2ca02c;stroke-linecap:square;stroke-width:1.5;"/>
    </g>
    <g id="line2d_21"/>
    <g id="text_17">
     <!-- Bin width = 3 hrs -->
     <g transform="translate(206.834219 87.426688)scale(0.1 -0.1)">
      <defs>
       <path d="M 40.578125 39.3125 
Q 47.65625 37.796875 51.625 33 
Q 55.609375 28.21875 55.609375 21.1875 
Q 55.609375 10.40625 48.1875 4.484375 
Q 40.765625 -1.421875 27.09375 -1.421875 
Q 22.515625 -1.421875 17.65625 -0.515625 
Q 12.796875 0.390625 7.625 2.203125 
L 7.625 11.71875 
Q 11.71875 9.328125 16.59375 8.109375 
Q 21.484375 6.890625 26.8125 6.890625 
Q 36.078125 6.890625 40.9375 10.546875 
Q 45.796875 14.203125 45.796875 21.1875 
Q 45.796875 27.640625 41.28125 31.265625 
Q 36.765625 34.90625 28.71875 34.90625 
L 20.21875 34.90625 
L 20.21875 43.015625 
L 29.109375 43.015625 
Q 36.375 43.015625 40.234375 45.921875 
Q 44.09375 48.828125 44.09375 54.296875 
Q 44.09375 59.90625 40.109375 62.90625 
Q 36.140625 65.921875 28.71875 65.921875 
Q 24.65625 65.921875 20.015625 65.03125 
Q 15.375 64.15625 9.8125 62.3125 
L 9.8125 71.09375 
Q 15.4375 72.65625 20.34375 73.4375 
Q 25.25 74.21875 29.59375 74.21875 
Q 40.828125 74.21875 47.359375 69.109375 
Q 53.90625 64.015625 53.90625 55.328125 
Q 53.90625 49.265625 50.4375 45.09375 
Q 46.96875 40.921875 40.578125 39.3125 
z
" id="DejaVuSans-51"/>
      </defs>
      <use xlink:href="#DejaVuSans-66"/>
      <use x="68.603516" xlink:href="#DejaVuSans-105"/>
      <use x="96.386719" xlink:href="#DejaVuSans-110"/>
      <use x="159.765625" xlink:href="#DejaVuSans-32"/>
      <use x="191.552734" xlink:href="#DejaVuSans-119"/>
      <use x="273.339844" xlink:href="#DejaVuSans-105"/>
      <use x="301.123047" xlink:href="#DejaVuSans-100"/>
      <use x="364.599609" xlink:href="#DejaVuSans-116"/>
      <use x="403.808594" xlink:href="#DejaVuSans-104"/>
      <use x="467.1875" xlink:href="#DejaVuSans-32"/>
      <use x="498.974609" xlink:href="#DejaVuSans-61"/>
      <use x="582.763672" xlink:href="#DejaVuSans-32"/>
      <use x="614.550781" xlink:href="#DejaVuSans-51"/>
      <use x="678.173828" xlink:href="#DejaVuSans-32"/>
      <use x="709.960938" xlink:href="#DejaVuSans-104"/>
      <use x="773.339844" xlink:href="#DejaVuSans-114"/>
      <use x="814.453125" xlink:href="#DejaVuSans-115"/>
     </g>
    </g>
   </g>
  </g>
 </g>
 <defs>
  <clipPath id="p79dc7db901">
   <rect height="266.112" width="357.12" x="57.6" y="41.472"/>
  </clipPath>
 </defs>
</svg>
