<?xml version="1.0" encoding="utf-8" standalone="no"?>
<!DOCTYPE svg PUBLIC "-//W3C//DTD SVG 1.1//EN"
  "http://www.w3.org/Graphics/SVG/1.1/DTD/svg11.dtd">
<!-- Created with matplotlib (https://matplotlib.org/) -->
<svg height="345.6pt" version="1.1" viewBox="0 0 460.8 345.6" width="460.8pt" xmlns="http://www.w3.org/2000/svg" xmlns:xlink="http://www.w3.org/1999/xlink">
 <metadata>
  <rdf:RDF xmlns:cc="http://creativecommons.org/ns#" xmlns:dc="http://purl.org/dc/elements/1.1/" xmlns:rdf="http://www.w3.org/1999/02/22-rdf-syntax-ns#">
   <cc:Work>
    <dc:type rdf:resource="http://purl.org/dc/dcmitype/StillImage"/>
    <dc:date>2021-03-17T23:42:53.928591</dc:date>
    <dc:format>image/svg+xml</dc:format>
    <dc:creator>
     <cc:Agent>
      <dc:title>Matplotlib v3.3.3, https://matplotlib.org/</dc:title>
     </cc:Agent>
    </dc:creator>
   </cc:Work>
  </rdf:RDF>
 </metadata>
 <defs>
  <style type="text/css">*{stroke-linecap:butt;stroke-linejoin:round;}</style>
 </defs>
 <g id="figure_1">
  <g id="patch_1">
   <path d="M 0 345.6 
L 460.8 345.6 
L 460.8 0 
L 0 0 
z
" style="fill:#ffffff;"/>
  </g>
  <g id="axes_1">
   <g id="patch_2">
    <path d="M 57.6 307.584 
L 414.72 307.584 
L 414.72 41.472 
L 57.6 41.472 
z
" style="fill:#ffffff;"/>
   </g>
   <g id="matplotlib.axis_1">
    <g id="xtick_1">
     <g id="line2d_1">
      <defs>
       <path d="M 0 0 
L 0 3.5 
" id="m7e83d62413" style="stroke:#000000;stroke-width:0.8;"/>
      </defs>
      <g>
       <use style="stroke:#000000;stroke-width:0.8;" x="73.832727" xlink:href="#m7e83d62413" y="307.584"/>
      </g>
     </g>
     <g id="text_1">
      <!-- 50 -->
      <g transform="translate(67.470227 322.182437)scale(0.1 -0.1)">
       <defs>
        <path d="M 10.796875 72.90625 
L 49.515625 72.90625 
L 49.515625 64.59375 
L 19.828125 64.59375 
L 19.828125 46.734375 
Q 21.96875 47.46875 24.109375 47.828125 
Q 26.265625 48.1875 28.421875 48.1875 
Q 40.625 48.1875 47.75 41.5 
Q 54.890625 34.8125 54.890625 23.390625 
Q 54.890625 11.625 47.5625 5.09375 
Q 40.234375 -1.421875 26.90625 -1.421875 
Q 22.3125 -1.421875 17.546875 -0.640625 
Q 12.796875 0.140625 7.71875 1.703125 
L 7.71875 11.625 
Q 12.109375 9.234375 16.796875 8.0625 
Q 21.484375 6.890625 26.703125 6.890625 
Q 35.15625 6.890625 40.078125 11.328125 
Q 45.015625 15.765625 45.015625 23.390625 
Q 45.015625 31 40.078125 35.4375 
Q 35.15625 39.890625 26.703125 39.890625 
Q 22.75 39.890625 18.8125 39.015625 
Q 14.890625 38.140625 10.796875 36.28125 
z
" id="DejaVuSans-53"/>
        <path d="M 31.78125 66.40625 
Q 24.171875 66.40625 20.328125 58.90625 
Q 16.5 51.421875 16.5 36.375 
Q 16.5 21.390625 20.328125 13.890625 
Q 24.171875 6.390625 31.78125 6.390625 
Q 39.453125 6.390625 43.28125 13.890625 
Q 47.125 21.390625 47.125 36.375 
Q 47.125 51.421875 43.28125 58.90625 
Q 39.453125 66.40625 31.78125 66.40625 
z
M 31.78125 74.21875 
Q 44.046875 74.21875 50.515625 64.515625 
Q 56.984375 54.828125 56.984375 36.375 
Q 56.984375 17.96875 50.515625 8.265625 
Q 44.046875 -1.421875 31.78125 -1.421875 
Q 19.53125 -1.421875 13.0625 8.265625 
Q 6.59375 17.96875 6.59375 36.375 
Q 6.59375 54.828125 13.0625 64.515625 
Q 19.53125 74.21875 31.78125 74.21875 
z
" id="DejaVuSans-48"/>
       </defs>
       <use xlink:href="#DejaVuSans-53"/>
       <use x="63.623047" xlink:href="#DejaVuSans-48"/>
      </g>
     </g>
    </g>
    <g id="xtick_2">
     <g id="line2d_2">
      <g>
       <use style="stroke:#000000;stroke-width:0.8;" x="138.763636" xlink:href="#m7e83d62413" y="307.584"/>
      </g>
     </g>
     <g id="text_2">
      <!-- 60 -->
      <g transform="translate(132.401136 322.182437)scale(0.1 -0.1)">
       <defs>
        <path d="M 33.015625 40.375 
Q 26.375 40.375 22.484375 35.828125 
Q 18.609375 31.296875 18.609375 23.390625 
Q 18.609375 15.53125 22.484375 10.953125 
Q 26.375 6.390625 33.015625 6.390625 
Q 39.65625 6.390625 43.53125 10.953125 
Q 47.40625 15.53125 47.40625 23.390625 
Q 47.40625 31.296875 43.53125 35.828125 
Q 39.65625 40.375 33.015625 40.375 
z
M 52.59375 71.296875 
L 52.59375 62.3125 
Q 48.875 64.0625 45.09375 64.984375 
Q 41.3125 65.921875 37.59375 65.921875 
Q 27.828125 65.921875 22.671875 59.328125 
Q 17.53125 52.734375 16.796875 39.40625 
Q 19.671875 43.65625 24.015625 45.921875 
Q 28.375 48.1875 33.59375 48.1875 
Q 44.578125 48.1875 50.953125 41.515625 
Q 57.328125 34.859375 57.328125 23.390625 
Q 57.328125 12.15625 50.6875 5.359375 
Q 44.046875 -1.421875 33.015625 -1.421875 
Q 20.359375 -1.421875 13.671875 8.265625 
Q 6.984375 17.96875 6.984375 36.375 
Q 6.984375 53.65625 15.1875 63.9375 
Q 23.390625 74.21875 37.203125 74.21875 
Q 40.921875 74.21875 44.703125 73.484375 
Q 48.484375 72.75 52.59375 71.296875 
z
" id="DejaVuSans-54"/>
       </defs>
       <use xlink:href="#DejaVuSans-54"/>
       <use x="63.623047" xlink:href="#DejaVuSans-48"/>
      </g>
     </g>
    </g>
    <g id="xtick_3">
     <g id="line2d_3">
      <g>
       <use style="stroke:#000000;stroke-width:0.8;" x="203.694545" xlink:href="#m7e83d62413" y="307.584"/>
      </g>
     </g>
     <g id="text_3">
      <!-- 70 -->
      <g transform="translate(197.332045 322.182437)scale(0.1 -0.1)">
       <defs>
        <path d="M 8.203125 72.90625 
L 55.078125 72.90625 
L 55.078125 68.703125 
L 28.609375 0 
L 18.3125 0 
L 43.21875 64.59375 
L 8.203125 64.59375 
z
" id="DejaVuSans-55"/>
       </defs>
       <use xlink:href="#DejaVuSans-55"/>
       <use x="63.623047" xlink:href="#DejaVuSans-48"/>
      </g>
     </g>
    </g>
    <g id="xtick_4">
     <g id="line2d_4">
      <g>
       <use style="stroke:#000000;stroke-width:0.8;" x="268.625455" xlink:href="#m7e83d62413" y="307.584"/>
      </g>
     </g>
     <g id="text_4">
      <!-- 80 -->
      <g transform="translate(262.262955 322.182437)scale(0.1 -0.1)">
       <defs>
        <path d="M 31.78125 34.625 
Q 24.75 34.625 20.71875 30.859375 
Q 16.703125 27.09375 16.703125 20.515625 
Q 16.703125 13.921875 20.71875 10.15625 
Q 24.75 6.390625 31.78125 6.390625 
Q 38.8125 6.390625 42.859375 10.171875 
Q 46.921875 13.96875 46.921875 20.515625 
Q 46.921875 27.09375 42.890625 30.859375 
Q 38.875 34.625 31.78125 34.625 
z
M 21.921875 38.8125 
Q 15.578125 40.375 12.03125 44.71875 
Q 8.5 49.078125 8.5 55.328125 
Q 8.5 64.0625 14.71875 69.140625 
Q 20.953125 74.21875 31.78125 74.21875 
Q 42.671875 74.21875 48.875 69.140625 
Q 55.078125 64.0625 55.078125 55.328125 
Q 55.078125 49.078125 51.53125 44.71875 
Q 48 40.375 41.703125 38.8125 
Q 48.828125 37.15625 52.796875 32.3125 
Q 56.78125 27.484375 56.78125 20.515625 
Q 56.78125 9.90625 50.3125 4.234375 
Q 43.84375 -1.421875 31.78125 -1.421875 
Q 19.734375 -1.421875 13.25 4.234375 
Q 6.78125 9.90625 6.78125 20.515625 
Q 6.78125 27.484375 10.78125 32.3125 
Q 14.796875 37.15625 21.921875 38.8125 
z
M 18.3125 54.390625 
Q 18.3125 48.734375 21.84375 45.5625 
Q 25.390625 42.390625 31.78125 42.390625 
Q 38.140625 42.390625 41.71875 45.5625 
Q 45.3125 48.734375 45.3125 54.390625 
Q 45.3125 60.0625 41.71875 63.234375 
Q 38.140625 66.40625 31.78125 66.40625 
Q 25.390625 66.40625 21.84375 63.234375 
Q 18.3125 60.0625 18.3125 54.390625 
z
" id="DejaVuSans-56"/>
       </defs>
       <use xlink:href="#DejaVuSans-56"/>
       <use x="63.623047" xlink:href="#DejaVuSans-48"/>
      </g>
     </g>
    </g>
    <g id="xtick_5">
     <g id="line2d_5">
      <g>
       <use style="stroke:#000000;stroke-width:0.8;" x="333.556364" xlink:href="#m7e83d62413" y="307.584"/>
      </g>
     </g>
     <g id="text_5">
      <!-- 90 -->
      <g transform="translate(327.193864 322.182437)scale(0.1 -0.1)">
       <defs>
        <path d="M 10.984375 1.515625 
L 10.984375 10.5 
Q 14.703125 8.734375 18.5 7.8125 
Q 22.3125 6.890625 25.984375 6.890625 
Q 35.75 6.890625 40.890625 13.453125 
Q 46.046875 20.015625 46.78125 33.40625 
Q 43.953125 29.203125 39.59375 26.953125 
Q 35.25 24.703125 29.984375 24.703125 
Q 19.046875 24.703125 12.671875 31.3125 
Q 6.296875 37.9375 6.296875 49.421875 
Q 6.296875 60.640625 12.9375 67.421875 
Q 19.578125 74.21875 30.609375 74.21875 
Q 43.265625 74.21875 49.921875 64.515625 
Q 56.59375 54.828125 56.59375 36.375 
Q 56.59375 19.140625 48.40625 8.859375 
Q 40.234375 -1.421875 26.421875 -1.421875 
Q 22.703125 -1.421875 18.890625 -0.6875 
Q 15.09375 0.046875 10.984375 1.515625 
z
M 30.609375 32.421875 
Q 37.25 32.421875 41.125 36.953125 
Q 45.015625 41.5 45.015625 49.421875 
Q 45.015625 57.28125 41.125 61.84375 
Q 37.25 66.40625 30.609375 66.40625 
Q 23.96875 66.40625 20.09375 61.84375 
Q 16.21875 57.28125 16.21875 49.421875 
Q 16.21875 41.5 20.09375 36.953125 
Q 23.96875 32.421875 30.609375 32.421875 
z
" id="DejaVuSans-57"/>
       </defs>
       <use xlink:href="#DejaVuSans-57"/>
       <use x="63.623047" xlink:href="#DejaVuSans-48"/>
      </g>
     </g>
    </g>
    <g id="xtick_6">
     <g id="line2d_6">
      <g>
       <use style="stroke:#000000;stroke-width:0.8;" x="398.487273" xlink:href="#m7e83d62413" y="307.584"/>
      </g>
     </g>
     <g id="text_6">
      <!-- 100 -->
      <g transform="translate(388.943523 322.182437)scale(0.1 -0.1)">
       <defs>
        <path d="M 12.40625 8.296875 
L 28.515625 8.296875 
L 28.515625 63.921875 
L 10.984375 60.40625 
L 10.984375 69.390625 
L 28.421875 72.90625 
L 38.28125 72.90625 
L 38.28125 8.296875 
L 54.390625 8.296875 
L 54.390625 0 
L 12.40625 0 
z
" id="DejaVuSans-49"/>
       </defs>
       <use xlink:href="#DejaVuSans-49"/>
       <use x="63.623047" xlink:href="#DejaVuSans-48"/>
       <use x="127.246094" xlink:href="#DejaVuSans-48"/>
      </g>
     </g>
    </g>
    <g id="text_7">
     <!-- $\nu$ [MHz] -->
     <g transform="translate(217.16 335.860562)scale(0.1 -0.1)">
      <defs>
       <path d="M 14.984375 0 
L 8.9375 54.6875 
L 18.609375 54.6875 
L 23.78125 8.796875 
Q 30.8125 14.84375 37.359375 23.25 
Q 42.28125 29.546875 43.5625 35.015625 
Q 44.140625 37.59375 43.890625 42.484375 
Q 43.65625 48.296875 39.75 54.6875 
L 48.828125 54.6875 
L 48.828125 54.6875 
Q 51.375 50.34375 52.390625 44.28125 
Q 53.375 38.71875 52.640625 34.90625 
Q 50.78125 25.34375 42.484375 16.796875 
Q 31.640625 5.671875 24.5625 0 
z
" id="DejaVuSans-Oblique-957"/>
       <path id="DejaVuSans-32"/>
       <path d="M 8.59375 75.984375 
L 29.296875 75.984375 
L 29.296875 69 
L 17.578125 69 
L 17.578125 -6.203125 
L 29.296875 -6.203125 
L 29.296875 -13.1875 
L 8.59375 -13.1875 
z
" id="DejaVuSans-91"/>
       <path d="M 9.8125 72.90625 
L 24.515625 72.90625 
L 43.109375 23.296875 
L 61.8125 72.90625 
L 76.515625 72.90625 
L 76.515625 0 
L 66.890625 0 
L 66.890625 64.015625 
L 48.09375 14.015625 
L 38.1875 14.015625 
L 19.390625 64.015625 
L 19.390625 0 
L 9.8125 0 
z
" id="DejaVuSans-77"/>
       <path d="M 9.8125 72.90625 
L 19.671875 72.90625 
L 19.671875 43.015625 
L 55.515625 43.015625 
L 55.515625 72.90625 
L 65.375 72.90625 
L 65.375 0 
L 55.515625 0 
L 55.515625 34.71875 
L 19.671875 34.71875 
L 19.671875 0 
L 9.8125 0 
z
" id="DejaVuSans-72"/>
       <path d="M 5.515625 54.6875 
L 48.1875 54.6875 
L 48.1875 46.484375 
L 14.40625 7.171875 
L 48.1875 7.171875 
L 48.1875 0 
L 4.296875 0 
L 4.296875 8.203125 
L 38.09375 47.515625 
L 5.515625 47.515625 
z
" id="DejaVuSans-122"/>
       <path d="M 30.421875 75.984375 
L 30.421875 -13.1875 
L 9.71875 -13.1875 
L 9.71875 -6.203125 
L 21.390625 -6.203125 
L 21.390625 69 
L 9.71875 69 
L 9.71875 75.984375 
z
" id="DejaVuSans-93"/>
      </defs>
      <use transform="translate(0 0.015625)" xlink:href="#DejaVuSans-Oblique-957"/>
      <use transform="translate(55.859375 0.015625)" xlink:href="#DejaVuSans-32"/>
      <use transform="translate(87.646484 0.015625)" xlink:href="#DejaVuSans-91"/>
      <use transform="translate(126.660156 0.015625)" xlink:href="#DejaVuSans-77"/>
      <use transform="translate(212.939453 0.015625)" xlink:href="#DejaVuSans-72"/>
      <use transform="translate(288.134766 0.015625)" xlink:href="#DejaVuSans-122"/>
      <use transform="translate(340.625 0.015625)" xlink:href="#DejaVuSans-93"/>
     </g>
    </g>
   </g>
   <g id="matplotlib.axis_2">
    <g id="ytick_1">
     <g id="line2d_7">
      <defs>
       <path d="M 0 0 
L -3.5 0 
" id="mbd86c0ea29" style="stroke:#000000;stroke-width:0.8;"/>
      </defs>
      <g>
       <use style="stroke:#000000;stroke-width:0.8;" x="57.6" xlink:href="#mbd86c0ea29" y="307.584"/>
      </g>
     </g>
     <g id="text_8">
      <!-- −0.6 -->
      <g transform="translate(26.317187 311.383219)scale(0.1 -0.1)">
       <defs>
        <path d="M 10.59375 35.5 
L 73.1875 35.5 
L 73.1875 27.203125 
L 10.59375 27.203125 
z
" id="DejaVuSans-8722"/>
        <path d="M 10.6875 12.40625 
L 21 12.40625 
L 21 0 
L 10.6875 0 
z
" id="DejaVuSans-46"/>
       </defs>
       <use xlink:href="#DejaVuSans-8722"/>
       <use x="83.789062" xlink:href="#DejaVuSans-48"/>
       <use x="147.412109" xlink:href="#DejaVuSans-46"/>
       <use x="179.199219" xlink:href="#DejaVuSans-54"/>
      </g>
     </g>
    </g>
    <g id="ytick_2">
     <g id="line2d_8">
      <g>
       <use style="stroke:#000000;stroke-width:0.8;" x="57.6" xlink:href="#mbd86c0ea29" y="254.3616"/>
      </g>
     </g>
     <g id="text_9">
      <!-- −0.4 -->
      <g transform="translate(26.317187 258.160819)scale(0.1 -0.1)">
       <defs>
        <path d="M 37.796875 64.3125 
L 12.890625 25.390625 
L 37.796875 25.390625 
z
M 35.203125 72.90625 
L 47.609375 72.90625 
L 47.609375 25.390625 
L 58.015625 25.390625 
L 58.015625 17.1875 
L 47.609375 17.1875 
L 47.609375 0 
L 37.796875 0 
L 37.796875 17.1875 
L 4.890625 17.1875 
L 4.890625 26.703125 
z
" id="DejaVuSans-52"/>
       </defs>
       <use xlink:href="#DejaVuSans-8722"/>
       <use x="83.789062" xlink:href="#DejaVuSans-48"/>
       <use x="147.412109" xlink:href="#DejaVuSans-46"/>
       <use x="179.199219" xlink:href="#DejaVuSans-52"/>
      </g>
     </g>
    </g>
    <g id="ytick_3">
     <g id="line2d_9">
      <g>
       <use style="stroke:#000000;stroke-width:0.8;" x="57.6" xlink:href="#mbd86c0ea29" y="201.1392"/>
      </g>
     </g>
     <g id="text_10">
      <!-- −0.2 -->
      <g transform="translate(26.317187 204.938419)scale(0.1 -0.1)">
       <defs>
        <path d="M 19.1875 8.296875 
L 53.609375 8.296875 
L 53.609375 0 
L 7.328125 0 
L 7.328125 8.296875 
Q 12.9375 14.109375 22.625 23.890625 
Q 32.328125 33.6875 34.8125 36.53125 
Q 39.546875 41.84375 41.421875 45.53125 
Q 43.3125 49.21875 43.3125 52.78125 
Q 43.3125 58.59375 39.234375 62.25 
Q 35.15625 65.921875 28.609375 65.921875 
Q 23.96875 65.921875 18.8125 64.3125 
Q 13.671875 62.703125 7.8125 59.421875 
L 7.8125 69.390625 
Q 13.765625 71.78125 18.9375 73 
Q 24.125 74.21875 28.421875 74.21875 
Q 39.75 74.21875 46.484375 68.546875 
Q 53.21875 62.890625 53.21875 53.421875 
Q 53.21875 48.921875 51.53125 44.890625 
Q 49.859375 40.875 45.40625 35.40625 
Q 44.1875 33.984375 37.640625 27.21875 
Q 31.109375 20.453125 19.1875 8.296875 
z
" id="DejaVuSans-50"/>
       </defs>
       <use xlink:href="#DejaVuSans-8722"/>
       <use x="83.789062" xlink:href="#DejaVuSans-48"/>
       <use x="147.412109" xlink:href="#DejaVuSans-46"/>
       <use x="179.199219" xlink:href="#DejaVuSans-50"/>
      </g>
     </g>
    </g>
    <g id="ytick_4">
     <g id="line2d_10">
      <g>
       <use style="stroke:#000000;stroke-width:0.8;" x="57.6" xlink:href="#mbd86c0ea29" y="147.9168"/>
      </g>
     </g>
     <g id="text_11">
      <!-- 0.0 -->
      <g transform="translate(34.696875 151.716019)scale(0.1 -0.1)">
       <use xlink:href="#DejaVuSans-48"/>
       <use x="63.623047" xlink:href="#DejaVuSans-46"/>
       <use x="95.410156" xlink:href="#DejaVuSans-48"/>
      </g>
     </g>
    </g>
    <g id="ytick_5">
     <g id="line2d_11">
      <g>
       <use style="stroke:#000000;stroke-width:0.8;" x="57.6" xlink:href="#mbd86c0ea29" y="94.6944"/>
      </g>
     </g>
     <g id="text_12">
      <!-- 0.2 -->
      <g transform="translate(34.696875 98.493619)scale(0.1 -0.1)">
       <use xlink:href="#DejaVuSans-48"/>
       <use x="63.623047" xlink:href="#DejaVuSans-46"/>
       <use x="95.410156" xlink:href="#DejaVuSans-50"/>
      </g>
     </g>
    </g>
    <g id="ytick_6">
     <g id="line2d_12">
      <g>
       <use style="stroke:#000000;stroke-width:0.8;" x="57.6" xlink:href="#mbd86c0ea29" y="41.472"/>
      </g>
     </g>
     <g id="text_13">
      <!-- 0.4 -->
      <g transform="translate(34.696875 45.271219)scale(0.1 -0.1)">
       <use xlink:href="#DejaVuSans-48"/>
       <use x="63.623047" xlink:href="#DejaVuSans-46"/>
       <use x="95.410156" xlink:href="#DejaVuSans-52"/>
      </g>
     </g>
    </g>
    <g id="text_14">
     <!-- Residuals [K] -->
     <g transform="translate(20.2375 207.017844)rotate(-90)scale(0.1 -0.1)">
      <defs>
       <path d="M 44.390625 34.1875 
Q 47.5625 33.109375 50.5625 29.59375 
Q 53.5625 26.078125 56.59375 19.921875 
L 66.609375 0 
L 56 0 
L 46.6875 18.703125 
Q 43.0625 26.03125 39.671875 28.421875 
Q 36.28125 30.8125 30.421875 30.8125 
L 19.671875 30.8125 
L 19.671875 0 
L 9.8125 0 
L 9.8125 72.90625 
L 32.078125 72.90625 
Q 44.578125 72.90625 50.734375 67.671875 
Q 56.890625 62.453125 56.890625 51.90625 
Q 56.890625 45.015625 53.6875 40.46875 
Q 50.484375 35.9375 44.390625 34.1875 
z
M 19.671875 64.796875 
L 19.671875 38.921875 
L 32.078125 38.921875 
Q 39.203125 38.921875 42.84375 42.21875 
Q 46.484375 45.515625 46.484375 51.90625 
Q 46.484375 58.296875 42.84375 61.546875 
Q 39.203125 64.796875 32.078125 64.796875 
z
" id="DejaVuSans-82"/>
       <path d="M 56.203125 29.59375 
L 56.203125 25.203125 
L 14.890625 25.203125 
Q 15.484375 15.921875 20.484375 11.0625 
Q 25.484375 6.203125 34.421875 6.203125 
Q 39.59375 6.203125 44.453125 7.46875 
Q 49.3125 8.734375 54.109375 11.28125 
L 54.109375 2.78125 
Q 49.265625 0.734375 44.1875 -0.34375 
Q 39.109375 -1.421875 33.890625 -1.421875 
Q 20.796875 -1.421875 13.15625 6.1875 
Q 5.515625 13.8125 5.515625 26.8125 
Q 5.515625 40.234375 12.765625 48.109375 
Q 20.015625 56 32.328125 56 
Q 43.359375 56 49.78125 48.890625 
Q 56.203125 41.796875 56.203125 29.59375 
z
M 47.21875 32.234375 
Q 47.125 39.59375 43.09375 43.984375 
Q 39.0625 48.390625 32.421875 48.390625 
Q 24.90625 48.390625 20.390625 44.140625 
Q 15.875 39.890625 15.1875 32.171875 
z
" id="DejaVuSans-101"/>
       <path d="M 44.28125 53.078125 
L 44.28125 44.578125 
Q 40.484375 46.53125 36.375 47.5 
Q 32.28125 48.484375 27.875 48.484375 
Q 21.1875 48.484375 17.84375 46.4375 
Q 14.5 44.390625 14.5 40.28125 
Q 14.5 37.15625 16.890625 35.375 
Q 19.28125 33.59375 26.515625 31.984375 
L 29.59375 31.296875 
Q 39.15625 29.25 43.1875 25.515625 
Q 47.21875 21.78125 47.21875 15.09375 
Q 47.21875 7.46875 41.1875 3.015625 
Q 35.15625 -1.421875 24.609375 -1.421875 
Q 20.21875 -1.421875 15.453125 -0.5625 
Q 10.6875 0.296875 5.421875 2 
L 5.421875 11.28125 
Q 10.40625 8.6875 15.234375 7.390625 
Q 20.0625 6.109375 24.8125 6.109375 
Q 31.15625 6.109375 34.5625 8.28125 
Q 37.984375 10.453125 37.984375 14.40625 
Q 37.984375 18.0625 35.515625 20.015625 
Q 33.0625 21.96875 24.703125 23.78125 
L 21.578125 24.515625 
Q 13.234375 26.265625 9.515625 29.90625 
Q 5.8125 33.546875 5.8125 39.890625 
Q 5.8125 47.609375 11.28125 51.796875 
Q 16.75 56 26.8125 56 
Q 31.78125 56 36.171875 55.265625 
Q 40.578125 54.546875 44.28125 53.078125 
z
" id="DejaVuSans-115"/>
       <path d="M 9.421875 54.6875 
L 18.40625 54.6875 
L 18.40625 0 
L 9.421875 0 
z
M 9.421875 75.984375 
L 18.40625 75.984375 
L 18.40625 64.59375 
L 9.421875 64.59375 
z
" id="DejaVuSans-105"/>
       <path d="M 45.40625 46.390625 
L 45.40625 75.984375 
L 54.390625 75.984375 
L 54.390625 0 
L 45.40625 0 
L 45.40625 8.203125 
Q 42.578125 3.328125 38.25 0.953125 
Q 33.9375 -1.421875 27.875 -1.421875 
Q 17.96875 -1.421875 11.734375 6.484375 
Q 5.515625 14.40625 5.515625 27.296875 
Q 5.515625 40.1875 11.734375 48.09375 
Q 17.96875 56 27.875 56 
Q 33.9375 56 38.25 53.625 
Q 42.578125 51.265625 45.40625 46.390625 
z
M 14.796875 27.296875 
Q 14.796875 17.390625 18.875 11.75 
Q 22.953125 6.109375 30.078125 6.109375 
Q 37.203125 6.109375 41.296875 11.75 
Q 45.40625 17.390625 45.40625 27.296875 
Q 45.40625 37.203125 41.296875 42.84375 
Q 37.203125 48.484375 30.078125 48.484375 
Q 22.953125 48.484375 18.875 42.84375 
Q 14.796875 37.203125 14.796875 27.296875 
z
" id="DejaVuSans-100"/>
       <path d="M 8.5 21.578125 
L 8.5 54.6875 
L 17.484375 54.6875 
L 17.484375 21.921875 
Q 17.484375 14.15625 20.5 10.265625 
Q 23.53125 6.390625 29.59375 6.390625 
Q 36.859375 6.390625 41.078125 11.03125 
Q 45.3125 15.671875 45.3125 23.6875 
L 45.3125 54.6875 
L 54.296875 54.6875 
L 54.296875 0 
L 45.3125 0 
L 45.3125 8.40625 
Q 42.046875 3.421875 37.71875 1 
Q 33.40625 -1.421875 27.6875 -1.421875 
Q 18.265625 -1.421875 13.375 4.4375 
Q 8.5 10.296875 8.5 21.578125 
z
M 31.109375 56 
z
" id="DejaVuSans-117"/>
       <path d="M 34.28125 27.484375 
Q 23.390625 27.484375 19.1875 25 
Q 14.984375 22.515625 14.984375 16.5 
Q 14.984375 11.71875 18.140625 8.90625 
Q 21.296875 6.109375 26.703125 6.109375 
Q 34.1875 6.109375 38.703125 11.40625 
Q 43.21875 16.703125 43.21875 25.484375 
L 43.21875 27.484375 
z
M 52.203125 31.203125 
L 52.203125 0 
L 43.21875 0 
L 43.21875 8.296875 
Q 40.140625 3.328125 35.546875 0.953125 
Q 30.953125 -1.421875 24.3125 -1.421875 
Q 15.921875 -1.421875 10.953125 3.296875 
Q 6 8.015625 6 15.921875 
Q 6 25.140625 12.171875 29.828125 
Q 18.359375 34.515625 30.609375 34.515625 
L 43.21875 34.515625 
L 43.21875 35.40625 
Q 43.21875 41.609375 39.140625 45 
Q 35.0625 48.390625 27.6875 48.390625 
Q 23 48.390625 18.546875 47.265625 
Q 14.109375 46.140625 10.015625 43.890625 
L 10.015625 52.203125 
Q 14.9375 54.109375 19.578125 55.046875 
Q 24.21875 56 28.609375 56 
Q 40.484375 56 46.34375 49.84375 
Q 52.203125 43.703125 52.203125 31.203125 
z
" id="DejaVuSans-97"/>
       <path d="M 9.421875 75.984375 
L 18.40625 75.984375 
L 18.40625 0 
L 9.421875 0 
z
" id="DejaVuSans-108"/>
       <path d="M 9.8125 72.90625 
L 19.671875 72.90625 
L 19.671875 42.09375 
L 52.390625 72.90625 
L 65.09375 72.90625 
L 28.90625 38.921875 
L 67.671875 0 
L 54.6875 0 
L 19.671875 35.109375 
L 19.671875 0 
L 9.8125 0 
z
" id="DejaVuSans-75"/>
      </defs>
      <use xlink:href="#DejaVuSans-82"/>
      <use x="64.982422" xlink:href="#DejaVuSans-101"/>
      <use x="126.505859" xlink:href="#DejaVuSans-115"/>
      <use x="178.605469" xlink:href="#DejaVuSans-105"/>
      <use x="206.388672" xlink:href="#DejaVuSans-100"/>
      <use x="269.865234" xlink:href="#DejaVuSans-117"/>
      <use x="333.244141" xlink:href="#DejaVuSans-97"/>
      <use x="394.523438" xlink:href="#DejaVuSans-108"/>
      <use x="422.306641" xlink:href="#DejaVuSans-115"/>
      <use x="474.40625" xlink:href="#DejaVuSans-32"/>
      <use x="506.193359" xlink:href="#DejaVuSans-91"/>
      <use x="545.207031" xlink:href="#DejaVuSans-75"/>
      <use x="610.783203" xlink:href="#DejaVuSans-93"/>
     </g>
    </g>
   </g>
   <g id="line2d_13">
    <path clip-path="url(#p237035cfdb)" d="M 73.832727 51.311561 
L 80.325818 150.165478 
L 86.818909 198.962396 
L 93.312 215.081299 
L 99.805091 210.835332 
L 106.298182 194.693284 
L 112.791273 173.869459 
L 119.284364 152.074748 
L 125.777455 131.704963 
L 132.270545 115.566522 
L 138.763636 103.394589 
L 145.256727 95.82997 
L 151.749818 92.690903 
L 158.242909 94.271247 
L 164.736 99.337149 
L 171.229091 107.381271 
L 177.722182 117.355722 
L 184.215273 128.846683 
L 190.708364 140.767869 
L 197.201455 153.331325 
L 203.694545 164.889853 
L 210.187636 175.585564 
L 216.680727 185.078236 
L 223.173818 192.883651 
L 229.666909 198.607838 
L 236.16 202.354477 
L 242.653091 203.783446 
L 249.146182 202.825492 
L 255.639273 199.794291 
L 262.132364 194.353049 
L 268.625455 187.02902 
L 275.118545 178.335067 
L 281.611636 167.835363 
L 288.104727 155.93049 
L 294.597818 143.397032 
L 301.090909 130.542308 
L 307.584 118.13436 
L 314.077091 105.980757 
L 320.570182 95.622673 
L 327.063273 86.602046 
L 333.556364 80.294424 
L 340.049455 76.627395 
L 346.542545 77.148833 
L 353.035636 82.591588 
L 359.528727 91.51022 
L 366.021818 106.63679 
L 372.514909 128.597911 
L 379.008 157.763192 
L 385.501091 194.676066 
L 391.994182 238.715065 
L 398.487273 292.576878 
" style="fill:none;stroke:#1f77b4;stroke-linecap:square;stroke-width:1.5;"/>
   </g>
   <g id="line2d_14">
    <path clip-path="url(#p237035cfdb)" d="M 73.832727 150.535857 
L 80.325818 148.091678 
L 86.818909 146.454269 
L 93.312 145.978287 
L 99.805091 146.18369 
L 106.298182 146.187432 
L 112.791273 147.172477 
L 119.284364 148.021997 
L 125.777455 148.229169 
L 132.270545 149.211546 
L 138.763636 149.539109 
L 145.256727 149.41513 
L 151.749818 148.907108 
L 158.242909 149.221029 
L 164.736 149.199473 
L 171.229091 149.311185 
L 177.722182 148.977407 
L 184.215273 148.616594 
L 190.708364 147.878112 
L 197.201455 148.01637 
L 203.694545 147.33014 
L 210.187636 146.756471 
L 216.680727 146.592501 
L 223.173818 146.545271 
L 229.666909 146.339652 
L 236.16 146.569547 
L 242.653091 146.585858 
L 249.146182 146.605326 
L 255.639273 146.835614 
L 262.132364 146.778652 
L 268.625455 146.676578 
L 275.118545 147.262643 
L 281.611636 147.404175 
L 288.104727 147.915405 
L 294.597818 147.988892 
L 301.090909 148.124974 
L 307.584 148.595253 
L 314.077091 148.586607 
L 320.570182 149.238593 
L 327.063273 149.310242 
L 333.556364 149.674293 
L 340.049455 149.562206 
L 346.542545 149.834851 
L 353.035636 150.602922 
L 359.528727 149.672676 
L 366.021818 149.046655 
L 372.514909 148.577903 
L 379.008 148.176808 
L 385.501091 147.375436 
L 391.994182 145.071935 
L 398.487273 142.958919 
" style="fill:none;stroke:#ff7f0e;stroke-linecap:square;stroke-width:1.5;"/>
   </g>
   <g id="line2d_15">
    <path clip-path="url(#p237035cfdb)" d="M 73.832727 171.24123 
L 80.325818 147.331769 
L 86.818909 135.463558 
L 93.312 131.615083 
L 99.805091 132.747626 
L 106.298182 136.50444 
L 112.791273 141.797113 
L 119.284364 147.218345 
L 125.777455 151.982274 
L 132.270545 156.1384 
L 138.763636 158.997886 
L 145.256727 160.63415 
L 151.749818 161.068382 
L 158.242909 160.742712 
L 164.736 159.514843 
L 171.229091 157.651494 
L 177.722182 155.112171 
L 184.215273 152.247026 
L 190.708364 149.12304 
L 197.201455 146.314513 
L 203.694545 143.341704 
L 210.187636 140.646277 
L 216.680727 138.434702 
L 223.173818 136.698217 
L 229.666909 135.370855 
L 236.16 134.779987 
L 242.653091 134.594958 
L 249.146182 135.024891 
L 255.639273 135.994886 
L 262.132364 137.438877 
L 268.625455 139.225599 
L 275.118545 141.618379 
L 281.611636 144.132408 
L 288.104727 147.075296 
L 294.597818 149.89551 
L 301.090909 152.722099 
L 307.584 155.477955 
L 314.077091 157.907748 
L 320.570182 160.313506 
L 327.063273 161.989065 
L 333.556364 163.295758 
L 340.049455 163.801654 
L 346.542545 163.63043 
L 353.035636 162.99744 
L 359.528727 160.245664 
L 366.021818 156.556932 
L 372.514909 151.641308 
L 379.008 145.540509 
L 385.501091 137.627482 
L 391.994182 127.09119 
L 398.487273 115.100985 
" style="fill:none;stroke:#2ca02c;stroke-linecap:square;stroke-width:1.5;"/>
   </g>
   <g id="line2d_16">
    <path clip-path="url(#p237035cfdb)" d="M 73.832727 177.702532 
L 80.325818 147.011219 
L 86.818909 132.160303 
L 93.312 127.323556 
L 99.805091 128.583412 
L 106.298182 133.84937 
L 112.791273 140.038351 
L 119.284364 146.549386 
L 125.777455 153.074566 
L 132.270545 157.679083 
L 138.763636 161.334396 
L 145.256727 163.880931 
L 151.749818 165.206653 
L 158.242909 164.469044 
L 164.736 162.817013 
L 171.229091 160.083394 
L 177.722182 157.085394 
L 184.215273 153.547009 
L 190.708364 150.213683 
L 197.201455 146.05656 
L 203.694545 142.797414 
L 210.187636 139.656572 
L 216.680727 136.73378 
L 223.173818 134.273382 
L 229.666909 132.534777 
L 236.16 131.192474 
L 242.653091 130.7034 
L 249.146182 130.984221 
L 255.639273 131.784145 
L 262.132364 133.6282 
L 268.625455 136.002699 
L 275.118545 138.389008 
L 281.611636 141.690394 
L 288.104727 145.233452 
L 294.597818 149.271107 
L 301.090909 153.447623 
L 307.584 157.157087 
L 314.077091 161.212528 
L 320.570182 164.081431 
L 327.063273 167.012873 
L 333.556364 168.839111 
L 340.049455 170.107448 
L 346.542545 169.711057 
L 353.035636 167.309388 
L 359.528727 165.042326 
L 366.021818 160.518767 
L 372.514909 153.517262 
L 379.008 144.344156 
L 385.501091 132.852676 
L 391.994182 120.348297 
L 398.487273 104.585807 
" style="fill:none;stroke:#d62728;stroke-linecap:square;stroke-width:1.5;"/>
   </g>
   <g id="line2d_17">
    <path clip-path="url(#p237035cfdb)" d="M 73.832727 186.222853 
L 80.325818 146.79248 
L 86.818909 127.604252 
L 93.312 121.374555 
L 99.805091 123.043737 
L 106.298182 129.819064 
L 112.791273 137.82338 
L 119.284364 146.240537 
L 125.777455 154.513553 
L 132.270545 160.523818 
L 138.763636 165.260224 
L 145.256727 168.461009 
L 151.749818 170.147262 
L 158.242909 169.195851 
L 164.736 167.043809 
L 171.229091 163.577082 
L 177.722182 159.710124 
L 184.215273 155.171792 
L 190.708364 150.829738 
L 197.201455 145.437372 
L 203.694545 141.196974 
L 210.187636 137.213034 
L 216.680727 133.429667 
L 223.173818 130.236967 
L 229.666909 128.056682 
L 236.16 126.297388 
L 242.653091 125.783828 
L 249.146182 126.15934 
L 255.639273 127.301995 
L 262.132364 129.653488 
L 268.625455 132.797653 
L 275.118545 135.931924 
L 281.611636 140.251489 
L 288.104727 144.872398 
L 294.597818 149.91871 
L 301.090909 155.098153 
L 307.584 159.838394 
L 314.077091 164.817351 
L 320.570182 168.529791 
L 327.063273 172.136601 
L 333.556364 174.464974 
L 340.049455 175.97122 
L 346.542545 175.597049 
L 353.035636 172.802908 
L 359.528727 169.766875 
L 366.021818 164.0232 
L 372.514909 155.409491 
L 379.008 143.720399 
L 385.501091 129.138605 
L 391.994182 112.607631 
L 398.487273 91.775705 
" style="fill:none;stroke:#9467bd;stroke-linecap:square;stroke-width:1.5;"/>
   </g>
   <g id="line2d_18">
    <path clip-path="url(#p237035cfdb)" d="M 73.832727 116.176202 
L 80.325818 148.717596 
L 86.818909 164.967008 
L 93.312 170.059874 
L 99.805091 168.491309 
L 106.298182 163.281701 
L 112.791273 156.22442 
L 119.284364 148.969173 
L 125.777455 142.312639 
L 132.270545 136.885282 
L 138.763636 133.005144 
L 145.256727 130.635338 
L 151.749818 129.843404 
L 158.242909 130.390134 
L 164.736 132.110337 
L 171.229091 134.854424 
L 177.722182 138.235175 
L 184.215273 142.078646 
L 190.708364 146.134917 
L 197.201455 150.218931 
L 203.694545 154.085001 
L 210.187636 157.612135 
L 216.680727 160.622954 
L 223.173818 163.059509 
L 229.666909 164.887862 
L 236.16 165.849061 
L 242.653091 166.093498 
L 249.146182 165.575645 
L 255.639273 164.29886 
L 262.132364 162.258856 
L 268.625455 159.698115 
L 275.118545 156.63604 
L 281.611636 153.10916 
L 288.104727 149.197386 
L 294.597818 145.277109 
L 301.090909 141.330867 
L 307.584 137.601088 
L 314.077091 134.092107 
L 320.570182 131.050919 
L 327.063273 128.615342 
L 333.556364 126.873085 
L 340.049455 126.184891 
L 346.542545 126.45637 
L 353.035636 127.695351 
L 359.528727 131.171591 
L 366.021818 136.075986 
L 372.514909 142.849753 
L 379.008 151.32467 
L 385.501091 162.250831 
L 391.994182 176.123745 
L 398.487273 192.341286 
" style="fill:none;stroke:#8c564b;stroke-linecap:square;stroke-width:1.5;"/>
   </g>
   <g id="patch_3">
    <path d="M 57.6 307.584 
L 57.6 41.472 
" style="fill:none;stroke:#000000;stroke-linecap:square;stroke-linejoin:miter;stroke-width:0.8;"/>
   </g>
   <g id="patch_4">
    <path d="M 414.72 307.584 
L 414.72 41.472 
" style="fill:none;stroke:#000000;stroke-linecap:square;stroke-linejoin:miter;stroke-width:0.8;"/>
   </g>
   <g id="patch_5">
    <path d="M 57.6 307.584 
L 414.72 307.584 
" style="fill:none;stroke:#000000;stroke-linecap:square;stroke-linejoin:miter;stroke-width:0.8;"/>
   </g>
   <g id="patch_6">
    <path d="M 57.6 41.472 
L 414.72 41.472 
" style="fill:none;stroke:#000000;stroke-linecap:square;stroke-linejoin:miter;stroke-width:0.8;"/>
   </g>
   <g id="text_15">
    <g id="patch_7">
     <path d="M 69.832727 300.358087 
L 171.61554 300.358087 
L 171.61554 215.493087 
L 69.832727 215.493087 
z
" style="fill:#f5deb3;opacity:0.7;stroke:#000000;stroke-linejoin:miter;"/>
    </g>
    <!-- RMS: -->
    <g transform="translate(73.832727 227.091525)scale(0.1 -0.1)">
     <defs>
      <path d="M 53.515625 70.515625 
L 53.515625 60.890625 
Q 47.90625 63.578125 42.921875 64.890625 
Q 37.9375 66.21875 33.296875 66.21875 
Q 25.25 66.21875 20.875 63.09375 
Q 16.5 59.96875 16.5 54.203125 
Q 16.5 49.359375 19.40625 46.890625 
Q 22.3125 44.4375 30.421875 42.921875 
L 36.375 41.703125 
Q 47.40625 39.59375 52.65625 34.296875 
Q 57.90625 29 57.90625 20.125 
Q 57.90625 9.515625 50.796875 4.046875 
Q 43.703125 -1.421875 29.984375 -1.421875 
Q 24.8125 -1.421875 18.96875 -0.25 
Q 13.140625 0.921875 6.890625 3.21875 
L 6.890625 13.375 
Q 12.890625 10.015625 18.65625 8.296875 
Q 24.421875 6.59375 29.984375 6.59375 
Q 38.421875 6.59375 43.015625 9.90625 
Q 47.609375 13.234375 47.609375 19.390625 
Q 47.609375 24.75 44.3125 27.78125 
Q 41.015625 30.8125 33.5 32.328125 
L 27.484375 33.5 
Q 16.453125 35.6875 11.515625 40.375 
Q 6.59375 45.0625 6.59375 53.421875 
Q 6.59375 63.09375 13.40625 68.65625 
Q 20.21875 74.21875 32.171875 74.21875 
Q 37.3125 74.21875 42.625 73.28125 
Q 47.953125 72.359375 53.515625 70.515625 
z
" id="DejaVuSans-83"/>
      <path d="M 11.71875 12.40625 
L 22.015625 12.40625 
L 22.015625 0 
L 11.71875 0 
z
M 11.71875 51.703125 
L 22.015625 51.703125 
L 22.015625 39.3125 
L 11.71875 39.3125 
z
" id="DejaVuSans-58"/>
     </defs>
     <use xlink:href="#DejaVuSans-82"/>
     <use x="69.482422" xlink:href="#DejaVuSans-77"/>
     <use x="155.761719" xlink:href="#DejaVuSans-83"/>
     <use x="219.238281" xlink:href="#DejaVuSans-58"/>
    </g>
    <!-- 0-4 hr: 0.189 K -->
    <g transform="translate(73.832727 238.289337)scale(0.1 -0.1)">
     <defs>
      <path d="M 4.890625 31.390625 
L 31.203125 31.390625 
L 31.203125 23.390625 
L 4.890625 23.390625 
z
" id="DejaVuSans-45"/>
      <path d="M 54.890625 33.015625 
L 54.890625 0 
L 45.90625 0 
L 45.90625 32.71875 
Q 45.90625 40.484375 42.875 44.328125 
Q 39.84375 48.1875 33.796875 48.1875 
Q 26.515625 48.1875 22.3125 43.546875 
Q 18.109375 38.921875 18.109375 30.90625 
L 18.109375 0 
L 9.078125 0 
L 9.078125 75.984375 
L 18.109375 75.984375 
L 18.109375 46.1875 
Q 21.34375 51.125 25.703125 53.5625 
Q 30.078125 56 35.796875 56 
Q 45.21875 56 50.046875 50.171875 
Q 54.890625 44.34375 54.890625 33.015625 
z
" id="DejaVuSans-104"/>
      <path d="M 41.109375 46.296875 
Q 39.59375 47.171875 37.8125 47.578125 
Q 36.03125 48 33.890625 48 
Q 26.265625 48 22.1875 43.046875 
Q 18.109375 38.09375 18.109375 28.8125 
L 18.109375 0 
L 9.078125 0 
L 9.078125 54.6875 
L 18.109375 54.6875 
L 18.109375 46.1875 
Q 20.953125 51.171875 25.484375 53.578125 
Q 30.03125 56 36.53125 56 
Q 37.453125 56 38.578125 55.875 
Q 39.703125 55.765625 41.0625 55.515625 
z
" id="DejaVuSans-114"/>
     </defs>
     <use xlink:href="#DejaVuSans-48"/>
     <use x="63.623047" xlink:href="#DejaVuSans-45"/>
     <use x="99.707031" xlink:href="#DejaVuSans-52"/>
     <use x="163.330078" xlink:href="#DejaVuSans-32"/>
     <use x="195.117188" xlink:href="#DejaVuSans-104"/>
     <use x="258.496094" xlink:href="#DejaVuSans-114"/>
     <use x="297.859375" xlink:href="#DejaVuSans-58"/>
     <use x="331.550781" xlink:href="#DejaVuSans-32"/>
     <use x="363.337891" xlink:href="#DejaVuSans-48"/>
     <use x="426.960938" xlink:href="#DejaVuSans-46"/>
     <use x="458.748047" xlink:href="#DejaVuSans-49"/>
     <use x="522.371094" xlink:href="#DejaVuSans-56"/>
     <use x="585.994141" xlink:href="#DejaVuSans-57"/>
     <use x="649.617188" xlink:href="#DejaVuSans-32"/>
     <use x="681.404297" xlink:href="#DejaVuSans-75"/>
    </g>
    <!-- 4-8 hr: 0.00554 K -->
    <g transform="translate(73.832727 249.48715)scale(0.1 -0.1)">
     <use xlink:href="#DejaVuSans-52"/>
     <use x="63.623047" xlink:href="#DejaVuSans-45"/>
     <use x="99.707031" xlink:href="#DejaVuSans-56"/>
     <use x="163.330078" xlink:href="#DejaVuSans-32"/>
     <use x="195.117188" xlink:href="#DejaVuSans-104"/>
     <use x="258.496094" xlink:href="#DejaVuSans-114"/>
     <use x="297.859375" xlink:href="#DejaVuSans-58"/>
     <use x="331.550781" xlink:href="#DejaVuSans-32"/>
     <use x="363.337891" xlink:href="#DejaVuSans-48"/>
     <use x="426.960938" xlink:href="#DejaVuSans-46"/>
     <use x="458.748047" xlink:href="#DejaVuSans-48"/>
     <use x="522.371094" xlink:href="#DejaVuSans-48"/>
     <use x="585.994141" xlink:href="#DejaVuSans-53"/>
     <use x="649.617188" xlink:href="#DejaVuSans-53"/>
     <use x="713.240234" xlink:href="#DejaVuSans-52"/>
     <use x="776.863281" xlink:href="#DejaVuSans-32"/>
     <use x="808.650391" xlink:href="#DejaVuSans-75"/>
    </g>
    <!-- 8-12 hr: 0.0443 K -->
    <g transform="translate(73.832727 260.684962)scale(0.1 -0.1)">
     <defs>
      <path d="M 40.578125 39.3125 
Q 47.65625 37.796875 51.625 33 
Q 55.609375 28.21875 55.609375 21.1875 
Q 55.609375 10.40625 48.1875 4.484375 
Q 40.765625 -1.421875 27.09375 -1.421875 
Q 22.515625 -1.421875 17.65625 -0.515625 
Q 12.796875 0.390625 7.625 2.203125 
L 7.625 11.71875 
Q 11.71875 9.328125 16.59375 8.109375 
Q 21.484375 6.890625 26.8125 6.890625 
Q 36.078125 6.890625 40.9375 10.546875 
Q 45.796875 14.203125 45.796875 21.1875 
Q 45.796875 27.640625 41.28125 31.265625 
Q 36.765625 34.90625 28.71875 34.90625 
L 20.21875 34.90625 
L 20.21875 43.015625 
L 29.109375 43.015625 
Q 36.375 43.015625 40.234375 45.921875 
Q 44.09375 48.828125 44.09375 54.296875 
Q 44.09375 59.90625 40.109375 62.90625 
Q 36.140625 65.921875 28.71875 65.921875 
Q 24.65625 65.921875 20.015625 65.03125 
Q 15.375 64.15625 9.8125 62.3125 
L 9.8125 71.09375 
Q 15.4375 72.65625 20.34375 73.4375 
Q 25.25 74.21875 29.59375 74.21875 
Q 40.828125 74.21875 47.359375 69.109375 
Q 53.90625 64.015625 53.90625 55.328125 
Q 53.90625 49.265625 50.4375 45.09375 
Q 46.96875 40.921875 40.578125 39.3125 
z
" id="DejaVuSans-51"/>
     </defs>
     <use xlink:href="#DejaVuSans-56"/>
     <use x="63.623047" xlink:href="#DejaVuSans-45"/>
     <use x="99.707031" xlink:href="#DejaVuSans-49"/>
     <use x="163.330078" xlink:href="#DejaVuSans-50"/>
     <use x="226.953125" xlink:href="#DejaVuSans-32"/>
     <use x="258.740234" xlink:href="#DejaVuSans-104"/>
     <use x="322.119141" xlink:href="#DejaVuSans-114"/>
     <use x="361.482422" xlink:href="#DejaVuSans-58"/>
     <use x="395.173828" xlink:href="#DejaVuSans-32"/>
     <use x="426.960938" xlink:href="#DejaVuSans-48"/>
     <use x="490.583984" xlink:href="#DejaVuSans-46"/>
     <use x="522.371094" xlink:href="#DejaVuSans-48"/>
     <use x="585.994141" xlink:href="#DejaVuSans-52"/>
     <use x="649.617188" xlink:href="#DejaVuSans-52"/>
     <use x="713.240234" xlink:href="#DejaVuSans-51"/>
     <use x="776.863281" xlink:href="#DejaVuSans-32"/>
     <use x="808.650391" xlink:href="#DejaVuSans-75"/>
    </g>
    <!-- 12-16 hr: 0.058 K -->
    <g transform="translate(73.832727 271.882775)scale(0.1 -0.1)">
     <use xlink:href="#DejaVuSans-49"/>
     <use x="63.623047" xlink:href="#DejaVuSans-50"/>
     <use x="127.246094" xlink:href="#DejaVuSans-45"/>
     <use x="163.330078" xlink:href="#DejaVuSans-49"/>
     <use x="226.953125" xlink:href="#DejaVuSans-54"/>
     <use x="290.576172" xlink:href="#DejaVuSans-32"/>
     <use x="322.363281" xlink:href="#DejaVuSans-104"/>
     <use x="385.742188" xlink:href="#DejaVuSans-114"/>
     <use x="425.105469" xlink:href="#DejaVuSans-58"/>
     <use x="458.796875" xlink:href="#DejaVuSans-32"/>
     <use x="490.583984" xlink:href="#DejaVuSans-48"/>
     <use x="554.207031" xlink:href="#DejaVuSans-46"/>
     <use x="585.994141" xlink:href="#DejaVuSans-48"/>
     <use x="649.617188" xlink:href="#DejaVuSans-53"/>
     <use x="713.240234" xlink:href="#DejaVuSans-56"/>
     <use x="776.863281" xlink:href="#DejaVuSans-32"/>
     <use x="808.650391" xlink:href="#DejaVuSans-75"/>
    </g>
    <!-- 16-20 hr: 0.0744 K -->
    <g transform="translate(73.832727 283.080587)scale(0.1 -0.1)">
     <use xlink:href="#DejaVuSans-49"/>
     <use x="63.623047" xlink:href="#DejaVuSans-54"/>
     <use x="127.246094" xlink:href="#DejaVuSans-45"/>
     <use x="163.330078" xlink:href="#DejaVuSans-50"/>
     <use x="226.953125" xlink:href="#DejaVuSans-48"/>
     <use x="290.576172" xlink:href="#DejaVuSans-32"/>
     <use x="322.363281" xlink:href="#DejaVuSans-104"/>
     <use x="385.742188" xlink:href="#DejaVuSans-114"/>
     <use x="425.105469" xlink:href="#DejaVuSans-58"/>
     <use x="458.796875" xlink:href="#DejaVuSans-32"/>
     <use x="490.583984" xlink:href="#DejaVuSans-48"/>
     <use x="554.207031" xlink:href="#DejaVuSans-46"/>
     <use x="585.994141" xlink:href="#DejaVuSans-48"/>
     <use x="649.617188" xlink:href="#DejaVuSans-55"/>
     <use x="713.240234" xlink:href="#DejaVuSans-52"/>
     <use x="776.863281" xlink:href="#DejaVuSans-52"/>
     <use x="840.486328" xlink:href="#DejaVuSans-32"/>
     <use x="872.273438" xlink:href="#DejaVuSans-75"/>
    </g>
    <!-- 20-24 hr: 0.0602 K -->
    <g transform="translate(73.832727 294.2784)scale(0.1 -0.1)">
     <use xlink:href="#DejaVuSans-50"/>
     <use x="63.623047" xlink:href="#DejaVuSans-48"/>
     <use x="127.246094" xlink:href="#DejaVuSans-45"/>
     <use x="163.330078" xlink:href="#DejaVuSans-50"/>
     <use x="226.953125" xlink:href="#DejaVuSans-52"/>
     <use x="290.576172" xlink:href="#DejaVuSans-32"/>
     <use x="322.363281" xlink:href="#DejaVuSans-104"/>
     <use x="385.742188" xlink:href="#DejaVuSans-114"/>
     <use x="425.105469" xlink:href="#DejaVuSans-58"/>
     <use x="458.796875" xlink:href="#DejaVuSans-32"/>
     <use x="490.583984" xlink:href="#DejaVuSans-48"/>
     <use x="554.207031" xlink:href="#DejaVuSans-46"/>
     <use x="585.994141" xlink:href="#DejaVuSans-48"/>
     <use x="649.617188" xlink:href="#DejaVuSans-54"/>
     <use x="713.240234" xlink:href="#DejaVuSans-48"/>
     <use x="776.863281" xlink:href="#DejaVuSans-50"/>
     <use x="840.486328" xlink:href="#DejaVuSans-32"/>
     <use x="872.273438" xlink:href="#DejaVuSans-75"/>
    </g>
   </g>
   <g id="text_16">
    <!-- LST averaged spectra using bins of width 4 hr -->
    <g transform="translate(98.275313 35.472)scale(0.12 -0.12)">
     <defs>
      <path d="M 9.8125 72.90625 
L 19.671875 72.90625 
L 19.671875 8.296875 
L 55.171875 8.296875 
L 55.171875 0 
L 9.8125 0 
z
" id="DejaVuSans-76"/>
      <path d="M -0.296875 72.90625 
L 61.375 72.90625 
L 61.375 64.59375 
L 35.5 64.59375 
L 35.5 0 
L 25.59375 0 
L 25.59375 64.59375 
L -0.296875 64.59375 
z
" id="DejaVuSans-84"/>
      <path d="M 2.984375 54.6875 
L 12.5 54.6875 
L 29.59375 8.796875 
L 46.6875 54.6875 
L 56.203125 54.6875 
L 35.6875 0 
L 23.484375 0 
z
" id="DejaVuSans-118"/>
      <path d="M 45.40625 27.984375 
Q 45.40625 37.75 41.375 43.109375 
Q 37.359375 48.484375 30.078125 48.484375 
Q 22.859375 48.484375 18.828125 43.109375 
Q 14.796875 37.75 14.796875 27.984375 
Q 14.796875 18.265625 18.828125 12.890625 
Q 22.859375 7.515625 30.078125 7.515625 
Q 37.359375 7.515625 41.375 12.890625 
Q 45.40625 18.265625 45.40625 27.984375 
z
M 54.390625 6.78125 
Q 54.390625 -7.171875 48.1875 -13.984375 
Q 42 -20.796875 29.203125 -20.796875 
Q 24.46875 -20.796875 20.265625 -20.09375 
Q 16.0625 -19.390625 12.109375 -17.921875 
L 12.109375 -9.1875 
Q 16.0625 -11.328125 19.921875 -12.34375 
Q 23.78125 -13.375 27.78125 -13.375 
Q 36.625 -13.375 41.015625 -8.765625 
Q 45.40625 -4.15625 45.40625 5.171875 
L 45.40625 9.625 
Q 42.625 4.78125 38.28125 2.390625 
Q 33.9375 0 27.875 0 
Q 17.828125 0 11.671875 7.65625 
Q 5.515625 15.328125 5.515625 27.984375 
Q 5.515625 40.671875 11.671875 48.328125 
Q 17.828125 56 27.875 56 
Q 33.9375 56 38.28125 53.609375 
Q 42.625 51.21875 45.40625 46.390625 
L 45.40625 54.6875 
L 54.390625 54.6875 
z
" id="DejaVuSans-103"/>
      <path d="M 18.109375 8.203125 
L 18.109375 -20.796875 
L 9.078125 -20.796875 
L 9.078125 54.6875 
L 18.109375 54.6875 
L 18.109375 46.390625 
Q 20.953125 51.265625 25.265625 53.625 
Q 29.59375 56 35.59375 56 
Q 45.5625 56 51.78125 48.09375 
Q 58.015625 40.1875 58.015625 27.296875 
Q 58.015625 14.40625 51.78125 6.484375 
Q 45.5625 -1.421875 35.59375 -1.421875 
Q 29.59375 -1.421875 25.265625 0.953125 
Q 20.953125 3.328125 18.109375 8.203125 
z
M 48.6875 27.296875 
Q 48.6875 37.203125 44.609375 42.84375 
Q 40.53125 48.484375 33.40625 48.484375 
Q 26.265625 48.484375 22.1875 42.84375 
Q 18.109375 37.203125 18.109375 27.296875 
Q 18.109375 17.390625 22.1875 11.75 
Q 26.265625 6.109375 33.40625 6.109375 
Q 40.53125 6.109375 44.609375 11.75 
Q 48.6875 17.390625 48.6875 27.296875 
z
" id="DejaVuSans-112"/>
      <path d="M 48.78125 52.59375 
L 48.78125 44.1875 
Q 44.96875 46.296875 41.140625 47.34375 
Q 37.3125 48.390625 33.40625 48.390625 
Q 24.65625 48.390625 19.8125 42.84375 
Q 14.984375 37.3125 14.984375 27.296875 
Q 14.984375 17.28125 19.8125 11.734375 
Q 24.65625 6.203125 33.40625 6.203125 
Q 37.3125 6.203125 41.140625 7.25 
Q 44.96875 8.296875 48.78125 10.40625 
L 48.78125 2.09375 
Q 45.015625 0.34375 40.984375 -0.53125 
Q 36.96875 -1.421875 32.421875 -1.421875 
Q 20.0625 -1.421875 12.78125 6.34375 
Q 5.515625 14.109375 5.515625 27.296875 
Q 5.515625 40.671875 12.859375 48.328125 
Q 20.21875 56 33.015625 56 
Q 37.15625 56 41.109375 55.140625 
Q 45.0625 54.296875 48.78125 52.59375 
z
" id="DejaVuSans-99"/>
      <path d="M 18.3125 70.21875 
L 18.3125 54.6875 
L 36.8125 54.6875 
L 36.8125 47.703125 
L 18.3125 47.703125 
L 18.3125 18.015625 
Q 18.3125 11.328125 20.140625 9.421875 
Q 21.96875 7.515625 27.59375 7.515625 
L 36.8125 7.515625 
L 36.8125 0 
L 27.59375 0 
Q 17.1875 0 13.234375 3.875 
Q 9.28125 7.765625 9.28125 18.015625 
L 9.28125 47.703125 
L 2.6875 47.703125 
L 2.6875 54.6875 
L 9.28125 54.6875 
L 9.28125 70.21875 
z
" id="DejaVuSans-116"/>
      <path d="M 54.890625 33.015625 
L 54.890625 0 
L 45.90625 0 
L 45.90625 32.71875 
Q 45.90625 40.484375 42.875 44.328125 
Q 39.84375 48.1875 33.796875 48.1875 
Q 26.515625 48.1875 22.3125 43.546875 
Q 18.109375 38.921875 18.109375 30.90625 
L 18.109375 0 
L 9.078125 0 
L 9.078125 54.6875 
L 18.109375 54.6875 
L 18.109375 46.1875 
Q 21.34375 51.125 25.703125 53.5625 
Q 30.078125 56 35.796875 56 
Q 45.21875 56 50.046875 50.171875 
Q 54.890625 44.34375 54.890625 33.015625 
z
" id="DejaVuSans-110"/>
      <path d="M 48.6875 27.296875 
Q 48.6875 37.203125 44.609375 42.84375 
Q 40.53125 48.484375 33.40625 48.484375 
Q 26.265625 48.484375 22.1875 42.84375 
Q 18.109375 37.203125 18.109375 27.296875 
Q 18.109375 17.390625 22.1875 11.75 
Q 26.265625 6.109375 33.40625 6.109375 
Q 40.53125 6.109375 44.609375 11.75 
Q 48.6875 17.390625 48.6875 27.296875 
z
M 18.109375 46.390625 
Q 20.953125 51.265625 25.265625 53.625 
Q 29.59375 56 35.59375 56 
Q 45.5625 56 51.78125 48.09375 
Q 58.015625 40.1875 58.015625 27.296875 
Q 58.015625 14.40625 51.78125 6.484375 
Q 45.5625 -1.421875 35.59375 -1.421875 
Q 29.59375 -1.421875 25.265625 0.953125 
Q 20.953125 3.328125 18.109375 8.203125 
L 18.109375 0 
L 9.078125 0 
L 9.078125 75.984375 
L 18.109375 75.984375 
z
" id="DejaVuSans-98"/>
      <path d="M 30.609375 48.390625 
Q 23.390625 48.390625 19.1875 42.75 
Q 14.984375 37.109375 14.984375 27.296875 
Q 14.984375 17.484375 19.15625 11.84375 
Q 23.34375 6.203125 30.609375 6.203125 
Q 37.796875 6.203125 41.984375 11.859375 
Q 46.1875 17.53125 46.1875 27.296875 
Q 46.1875 37.015625 41.984375 42.703125 
Q 37.796875 48.390625 30.609375 48.390625 
z
M 30.609375 56 
Q 42.328125 56 49.015625 48.375 
Q 55.71875 40.765625 55.71875 27.296875 
Q 55.71875 13.875 49.015625 6.21875 
Q 42.328125 -1.421875 30.609375 -1.421875 
Q 18.84375 -1.421875 12.171875 6.21875 
Q 5.515625 13.875 5.515625 27.296875 
Q 5.515625 40.765625 12.171875 48.375 
Q 18.84375 56 30.609375 56 
z
" id="DejaVuSans-111"/>
      <path d="M 37.109375 75.984375 
L 37.109375 68.5 
L 28.515625 68.5 
Q 23.6875 68.5 21.796875 66.546875 
Q 19.921875 64.59375 19.921875 59.515625 
L 19.921875 54.6875 
L 34.71875 54.6875 
L 34.71875 47.703125 
L 19.921875 47.703125 
L 19.921875 0 
L 10.890625 0 
L 10.890625 47.703125 
L 2.296875 47.703125 
L 2.296875 54.6875 
L 10.890625 54.6875 
L 10.890625 58.5 
Q 10.890625 67.625 15.140625 71.796875 
Q 19.390625 75.984375 28.609375 75.984375 
z
" id="DejaVuSans-102"/>
      <path d="M 4.203125 54.6875 
L 13.1875 54.6875 
L 24.421875 12.015625 
L 35.59375 54.6875 
L 46.1875 54.6875 
L 57.421875 12.015625 
L 68.609375 54.6875 
L 77.59375 54.6875 
L 63.28125 0 
L 52.6875 0 
L 40.921875 44.828125 
L 29.109375 0 
L 18.5 0 
z
" id="DejaVuSans-119"/>
     </defs>
     <use xlink:href="#DejaVuSans-76"/>
     <use x="55.712891" xlink:href="#DejaVuSans-83"/>
     <use x="119.189453" xlink:href="#DejaVuSans-84"/>
     <use x="180.273438" xlink:href="#DejaVuSans-32"/>
     <use x="212.060547" xlink:href="#DejaVuSans-97"/>
     <use x="273.339844" xlink:href="#DejaVuSans-118"/>
     <use x="332.519531" xlink:href="#DejaVuSans-101"/>
     <use x="394.042969" xlink:href="#DejaVuSans-114"/>
     <use x="435.15625" xlink:href="#DejaVuSans-97"/>
     <use x="496.435547" xlink:href="#DejaVuSans-103"/>
     <use x="559.912109" xlink:href="#DejaVuSans-101"/>
     <use x="621.435547" xlink:href="#DejaVuSans-100"/>
     <use x="684.912109" xlink:href="#DejaVuSans-32"/>
     <use x="716.699219" xlink:href="#DejaVuSans-115"/>
     <use x="768.798828" xlink:href="#DejaVuSans-112"/>
     <use x="832.275391" xlink:href="#DejaVuSans-101"/>
     <use x="893.798828" xlink:href="#DejaVuSans-99"/>
     <use x="948.779297" xlink:href="#DejaVuSans-116"/>
     <use x="987.988281" xlink:href="#DejaVuSans-114"/>
     <use x="1029.101562" xlink:href="#DejaVuSans-97"/>
     <use x="1090.380859" xlink:href="#DejaVuSans-32"/>
     <use x="1122.167969" xlink:href="#DejaVuSans-117"/>
     <use x="1185.546875" xlink:href="#DejaVuSans-115"/>
     <use x="1237.646484" xlink:href="#DejaVuSans-105"/>
     <use x="1265.429688" xlink:href="#DejaVuSans-110"/>
     <use x="1328.808594" xlink:href="#DejaVuSans-103"/>
     <use x="1392.285156" xlink:href="#DejaVuSans-32"/>
     <use x="1424.072266" xlink:href="#DejaVuSans-98"/>
     <use x="1487.548828" xlink:href="#DejaVuSans-105"/>
     <use x="1515.332031" xlink:href="#DejaVuSans-110"/>
     <use x="1578.710938" xlink:href="#DejaVuSans-115"/>
     <use x="1630.810547" xlink:href="#DejaVuSans-32"/>
     <use x="1662.597656" xlink:href="#DejaVuSans-111"/>
     <use x="1723.779297" xlink:href="#DejaVuSans-102"/>
     <use x="1758.984375" xlink:href="#DejaVuSans-32"/>
     <use x="1790.771484" xlink:href="#DejaVuSans-119"/>
     <use x="1872.558594" xlink:href="#DejaVuSans-105"/>
     <use x="1900.341797" xlink:href="#DejaVuSans-100"/>
     <use x="1963.818359" xlink:href="#DejaVuSans-116"/>
     <use x="2003.027344" xlink:href="#DejaVuSans-104"/>
     <use x="2066.40625" xlink:href="#DejaVuSans-32"/>
     <use x="2098.193359" xlink:href="#DejaVuSans-52"/>
     <use x="2161.816406" xlink:href="#DejaVuSans-32"/>
     <use x="2193.603516" xlink:href="#DejaVuSans-104"/>
     <use x="2256.982422" xlink:href="#DejaVuSans-114"/>
    </g>
   </g>
   <g id="legend_1">
    <g id="patch_8">
     <path d="M 198.817813 302.584 
L 273.502187 302.584 
Q 275.502187 302.584 275.502187 300.584 
L 275.502187 213.51525 
Q 275.502187 211.51525 273.502187 211.51525 
L 198.817813 211.51525 
Q 196.817813 211.51525 196.817813 213.51525 
L 196.817813 300.584 
Q 196.817813 302.584 198.817813 302.584 
z
" style="fill:#ffffff;opacity:0.8;stroke:#cccccc;stroke-linejoin:miter;"/>
    </g>
    <g id="line2d_19">
     <path d="M 200.817813 219.613687 
L 220.817813 219.613687 
" style="fill:none;stroke:#1f77b4;stroke-linecap:square;stroke-width:1.5;"/>
    </g>
    <g id="line2d_20"/>
    <g id="text_17">
     <!-- 0-4 hr -->
     <g transform="translate(228.817813 223.113687)scale(0.1 -0.1)">
      <use xlink:href="#DejaVuSans-48"/>
      <use x="63.623047" xlink:href="#DejaVuSans-45"/>
      <use x="99.707031" xlink:href="#DejaVuSans-52"/>
      <use x="163.330078" xlink:href="#DejaVuSans-32"/>
      <use x="195.117188" xlink:href="#DejaVuSans-104"/>
      <use x="258.496094" xlink:href="#DejaVuSans-114"/>
     </g>
    </g>
    <g id="line2d_21">
     <path d="M 200.817813 234.291812 
L 220.817813 234.291812 
" style="fill:none;stroke:#ff7f0e;stroke-linecap:square;stroke-width:1.5;"/>
    </g>
    <g id="line2d_22"/>
    <g id="text_18">
     <!-- 4-8 hr -->
     <g transform="translate(228.817813 237.791812)scale(0.1 -0.1)">
      <use xlink:href="#DejaVuSans-52"/>
      <use x="63.623047" xlink:href="#DejaVuSans-45"/>
      <use x="99.707031" xlink:href="#DejaVuSans-56"/>
      <use x="163.330078" xlink:href="#DejaVuSans-32"/>
      <use x="195.117188" xlink:href="#DejaVuSans-104"/>
      <use x="258.496094" xlink:href="#DejaVuSans-114"/>
     </g>
    </g>
    <g id="line2d_23">
     <path d="M 200.817813 248.969937 
L 220.817813 248.969937 
" style="fill:none;stroke:#2ca02c;stroke-linecap:square;stroke-width:1.5;"/>
    </g>
    <g id="line2d_24"/>
    <g id="text_19">
     <!-- 8-12 hr -->
     <g transform="translate(228.817813 252.469937)scale(0.1 -0.1)">
      <use xlink:href="#DejaVuSans-56"/>
      <use x="63.623047" xlink:href="#DejaVuSans-45"/>
      <use x="99.707031" xlink:href="#DejaVuSans-49"/>
      <use x="163.330078" xlink:href="#DejaVuSans-50"/>
      <use x="226.953125" xlink:href="#DejaVuSans-32"/>
      <use x="258.740234" xlink:href="#DejaVuSans-104"/>
      <use x="322.119141" xlink:href="#DejaVuSans-114"/>
     </g>
    </g>
    <g id="line2d_25">
     <path d="M 200.817813 263.648062 
L 220.817813 263.648062 
" style="fill:none;stroke:#d62728;stroke-linecap:square;stroke-width:1.5;"/>
    </g>
    <g id="line2d_26"/>
    <g id="text_20">
     <!-- 12-16 hr -->
     <g transform="translate(228.817813 267.148062)scale(0.1 -0.1)">
      <use xlink:href="#DejaVuSans-49"/>
      <use x="63.623047" xlink:href="#DejaVuSans-50"/>
      <use x="127.246094" xlink:href="#DejaVuSans-45"/>
      <use x="163.330078" xlink:href="#DejaVuSans-49"/>
      <use x="226.953125" xlink:href="#DejaVuSans-54"/>
      <use x="290.576172" xlink:href="#DejaVuSans-32"/>
      <use x="322.363281" xlink:href="#DejaVuSans-104"/>
      <use x="385.742188" xlink:href="#DejaVuSans-114"/>
     </g>
    </g>
    <g id="line2d_27">
     <path d="M 200.817813 278.326188 
L 220.817813 278.326188 
" style="fill:none;stroke:#9467bd;stroke-linecap:square;stroke-width:1.5;"/>
    </g>
    <g id="line2d_28"/>
    <g id="text_21">
     <!-- 16-20 hr -->
     <g transform="translate(228.817813 281.826188)scale(0.1 -0.1)">
      <use xlink:href="#DejaVuSans-49"/>
      <use x="63.623047" xlink:href="#DejaVuSans-54"/>
      <use x="127.246094" xlink:href="#DejaVuSans-45"/>
      <use x="163.330078" xlink:href="#DejaVuSans-50"/>
      <use x="226.953125" xlink:href="#DejaVuSans-48"/>
      <use x="290.576172" xlink:href="#DejaVuSans-32"/>
      <use x="322.363281" xlink:href="#DejaVuSans-104"/>
      <use x="385.742188" xlink:href="#DejaVuSans-114"/>
     </g>
    </g>
    <g id="line2d_29">
     <path d="M 200.817813 293.004312 
L 220.817813 293.004312 
" style="fill:none;stroke:#8c564b;stroke-linecap:square;stroke-width:1.5;"/>
    </g>
    <g id="line2d_30"/>
    <g id="text_22">
     <!-- 20-24 hr -->
     <g transform="translate(228.817813 296.504312)scale(0.1 -0.1)">
      <use xlink:href="#DejaVuSans-50"/>
      <use x="63.623047" xlink:href="#DejaVuSans-48"/>
      <use x="127.246094" xlink:href="#DejaVuSans-45"/>
      <use x="163.330078" xlink:href="#DejaVuSans-50"/>
      <use x="226.953125" xlink:href="#DejaVuSans-52"/>
      <use x="290.576172" xlink:href="#DejaVuSans-32"/>
      <use x="322.363281" xlink:href="#DejaVuSans-104"/>
      <use x="385.742188" xlink:href="#DejaVuSans-114"/>
     </g>
    </g>
   </g>
  </g>
 </g>
 <defs>
  <clipPath id="p237035cfdb">
   <rect height="266.112" width="357.12" x="57.6" y="41.472"/>
  </clipPath>
 </defs>
</svg>
